<svg width="100" height="96" viewBox="0 0 100 96" fill="none" xmlns="http://www.w3.org/2000/svg">
<path d="M62 0C49.7376 0 37.7505 3.63624 27.5547 10.4489C17.3588 17.2615 9.41213 26.9446 4.7195 38.2736C0.0268641 49.6026 -1.20094 62.0688 1.19134 74.0956C3.58362 86.1224 9.48855 97.1698 18.1594 105.841C26.8303 114.511 37.8776 120.416 49.9044 122.809C61.9312 125.201 74.3974 123.973 85.7264 119.281C97.0554 114.588 106.738 106.641 113.551 96.4453C120.364 86.2495 124 74.2624 124 62C123.982 45.5622 117.444 29.803 105.82 18.1797C94.197 6.55643 78.4378 0.0184013 62 0ZM62 112.978C51.9176 112.978 42.0615 109.988 33.6783 104.386C25.295 98.7849 18.7611 90.8233 14.9027 81.5083C11.0443 72.1934 10.0348 61.9434 12.0018 52.0547C13.9688 42.166 18.8239 33.0826 25.9533 25.9533C33.0827 18.8239 42.166 13.9687 52.0547 12.0017C61.9435 10.0348 72.1934 11.0443 81.5084 14.9027C90.8233 18.7611 98.785 25.295 104.386 33.6783C109.988 42.0615 112.978 51.9175 112.978 62C112.963 75.5155 107.587 88.4732 98.0301 98.0301C88.4732 107.587 75.5155 112.963 62 112.978Z" fill="white" fill-opacity="0.15"/>
<path d="M55.1114 27.5556C55.1114 26.1931 55.5154 24.8612 56.2724 23.7284C57.0293 22.5955 58.1052 21.7125 59.364 21.1911C60.6228 20.6697 62.0079 20.5333 63.3442 20.7991C64.6805 21.0649 65.908 21.721 66.8715 22.6845C67.8349 23.6479 68.491 24.8754 68.7568 26.2117C69.0226 27.548 68.8862 28.9331 68.3648 30.1919C67.8434 31.4507 66.9604 32.5266 65.8275 33.2835C64.6947 34.0405 63.3628 34.4445 62.0003 34.4445C60.1732 34.4445 58.421 33.7187 57.1291 32.4268C55.8372 31.1349 55.1114 29.3827 55.1114 27.5556ZM77.1558 90.9334V96.4445C77.1558 97.1753 76.8655 97.8762 76.3488 98.393C75.832 98.9098 75.1311 99.2001 74.4003 99.2001H49.6003C48.8695 99.2001 48.1686 98.9098 47.6518 98.393C47.135 97.8762 46.8447 97.1753 46.8447 96.4445V90.9334C46.8447 90.2026 47.135 89.5017 47.6518 88.9849C48.1686 88.4682 48.8695 88.1779 49.6003 88.1779H52.3558C53.0867 88.1779 53.7875 87.8875 54.3043 87.3708C54.8211 86.854 55.1114 86.1531 55.1114 85.4223V59.2445C55.1114 58.5137 54.8211 57.8128 54.3043 57.296C53.7875 56.7793 53.0867 56.489 52.3558 56.489H49.6003C48.8695 56.489 48.1686 56.1986 47.6518 55.6819C47.135 55.1651 46.8447 54.4642 46.8447 53.7334V48.2223C46.8447 47.4915 47.135 46.7906 47.6518 46.2738C48.1686 45.7571 48.8695 45.4667 49.6003 45.4667H66.1336C66.8644 45.4667 67.5653 45.7571 68.0821 46.2738C68.5989 46.7906 68.8892 47.4915 68.8892 48.2223V85.4223C68.8892 86.1531 69.1795 86.854 69.6962 87.3708C70.213 87.8875 70.9139 88.1779 71.6447 88.1779H74.4003C75.1311 88.1779 75.832 88.4682 76.3488 88.9849C76.8655 89.5017 77.1558 90.2026 77.1558 90.9334Z" fill="white" fill-opacity="0.15"/>
</svg>
