<svg width="70" height="70" viewBox="0 0 70 70" fill="none" xmlns="http://www.w3.org/2000/svg">
<g filter="url(#filter0_d)">
<rect x="8" y="4" width="53.3333" height="53.3333" rx="8" fill="white"/>
</g>
<g clip-path="url(#clip0)">
<path d="M50.4821 12.8889H18.8502C17.767 12.8895 16.8889 13.7681 16.8892 14.8515V46.4835C16.8897 47.5666 17.7683 48.4447 18.8518 48.4445H50.4821C51.5658 48.4447 52.4444 47.5664 52.4447 46.4827C52.4447 46.4824 52.4447 46.4821 52.4447 46.4818V14.8499C52.4442 13.7667 51.5655 12.8886 50.4821 12.8889Z" fill="#4267B2"/>
<path d="M36.9934 48.4445V34.6945H41.6288L42.3233 29.3125H36.9934V25.8848C36.9934 24.3302 37.425 23.2709 39.6543 23.2709H42.4795V18.4703C41.988 18.4049 40.3015 18.2587 38.3392 18.2587C34.242 18.2587 31.4379 20.7587 31.4379 25.3518V29.3125H26.8198V34.6945H31.4379V48.4445H36.9934Z" fill="white"/>
</g>
<defs>
<filter id="filter0_d" x="0" y="0" width="69.3333" height="69.3333" filterUnits="userSpaceOnUse" color-interpolation-filters="sRGB">
<feFlood flood-opacity="0" result="BackgroundImageFix"/>
<feColorMatrix in="SourceAlpha" type="matrix" values="0 0 0 0 0 0 0 0 0 0 0 0 0 0 0 0 0 0 127 0"/>
<feOffset dy="4"/>
<feGaussianBlur stdDeviation="4"/>
<feColorMatrix type="matrix" values="0 0 0 0 0 0 0 0 0 0 0 0 0 0 0 0 0 0 0.16 0"/>
<feBlend mode="normal" in2="BackgroundImageFix" result="effect1_dropShadow"/>
<feBlend mode="normal" in="SourceGraphic" in2="effect1_dropShadow" result="shape"/>
</filter>
<clipPath id="clip0">
<rect x="16.8892" y="12.8889" width="35.5556" height="35.5556" rx="16" fill="white"/>
</clipPath>
</defs>
</svg>
