<svg width="70" height="70" viewBox="0 0 70 70" fill="none" xmlns="http://www.w3.org/2000/svg">
<g filter="url(#filter0_d)">
<rect x="8.11084" y="4" width="53.3333" height="53.3333" rx="8" fill="white"/>
</g>
<g clip-path="url(#clip0)">
<path d="M19.2224 15.3084C16.4284 18.2106 17.0002 21.2936 17.0002 30.6595C17.0002 38.4373 15.6432 46.2343 22.7454 48.0699C24.9632 48.6402 44.6136 48.6402 46.8284 48.0669C49.7854 47.3039 52.1913 44.9054 52.5202 40.7232C52.5661 40.1395 52.5661 21.1899 52.5187 20.5943C52.1691 16.1395 49.4269 13.5721 45.8136 13.0521C44.9854 12.9321 44.8195 12.8965 40.5706 12.8891C25.4995 12.8965 22.1958 12.2254 19.2224 15.3084Z" fill="url(#paint0_linear)"/>
<path d="M34.7749 17.5392C29.3957 17.5392 24.2875 17.0606 22.3364 22.068C21.5305 24.1362 21.6475 26.8221 21.6475 30.6681C21.6475 34.0429 21.5394 37.2147 22.3364 39.2666C24.2831 44.2769 29.4327 43.7969 34.772 43.7969C39.9231 43.7969 45.2342 44.3332 47.209 39.2666C48.0164 37.1777 47.8979 34.5318 47.8979 30.6681C47.8979 25.5392 48.1809 22.228 45.6935 19.7421C43.1749 17.2236 39.769 17.5392 34.769 17.5392H34.7749ZM33.5986 19.9051C44.8194 19.8873 46.2475 18.6399 45.4594 35.9688C45.1794 42.0977 40.5127 41.4251 34.7764 41.4251C24.3172 41.4251 24.0164 41.1258 24.0164 30.6621C24.0164 20.0769 24.846 19.911 33.5986 19.9021V19.9051ZM41.7823 22.0843C40.9127 22.0843 40.2075 22.7895 40.2075 23.6592C40.2075 24.5288 40.9127 25.234 41.7823 25.234C42.652 25.234 43.3572 24.5288 43.3572 23.6592C43.3572 22.7895 42.652 22.0843 41.7823 22.0843ZM34.7749 23.9258C31.052 23.9258 28.0342 26.9451 28.0342 30.6681C28.0342 34.391 31.052 37.4088 34.7749 37.4088C38.4979 37.4088 41.5142 34.391 41.5142 30.6681C41.5142 26.9451 38.4979 23.9258 34.7749 23.9258ZM34.7749 26.2918C40.5601 26.2918 40.5675 35.0443 34.7749 35.0443C28.9912 35.0443 28.9823 26.2918 34.7749 26.2918Z" fill="white"/>
</g>
<defs>
<filter id="filter0_d" x="0.11084" y="0" width="69.3333" height="69.3333" filterUnits="userSpaceOnUse" color-interpolation-filters="sRGB">
<feFlood flood-opacity="0" result="BackgroundImageFix"/>
<feColorMatrix in="SourceAlpha" type="matrix" values="0 0 0 0 0 0 0 0 0 0 0 0 0 0 0 0 0 0 127 0"/>
<feOffset dy="4"/>
<feGaussianBlur stdDeviation="4"/>
<feColorMatrix type="matrix" values="0 0 0 0 0 0 0 0 0 0 0 0 0 0 0 0 0 0 0.16 0"/>
<feBlend mode="normal" in2="BackgroundImageFix" result="effect1_dropShadow"/>
<feBlend mode="normal" in="SourceGraphic" in2="effect1_dropShadow" result="shape"/>
</filter>
<linearGradient id="paint0_linear" x1="19.2906" y1="46.1737" x2="52.3357" y2="17.5735" gradientUnits="userSpaceOnUse">
<stop stop-color="#FFDD55"/>
<stop offset="0.5" stop-color="#FF543E"/>
<stop offset="1" stop-color="#C837AB"/>
</linearGradient>
<clipPath id="clip0">
<rect x="17" y="12.8889" width="35.5556" height="35.5556" fill="white"/>
</clipPath>
</defs>
</svg>
