<svg width="104" height="104" viewBox="0 0 104 104" fill="none" xmlns="http://www.w3.org/2000/svg">
<path d="M60.9998 19.8045C38.4541 19.8045 20.1118 38.1467 20.1118 60.6925C20.1118 68.6537 22.4028 76.3715 26.7368 83.0115C30.5116 88.7942 35.6521 93.5042 41.7003 96.745V115.071L48.5423 128H73.4573L80.2996 115.071V96.7452C86.3476 93.5045 91.4881 88.7947 95.2631 83.0117C99.5971 76.3717 101.888 68.654 101.888 60.6927C101.888 38.1467 83.5456 19.8045 60.9998 19.8045ZM49.2001 98.1757H72.7993V105.833H49.2001V98.1757ZM54.8771 79.6902H67.1228L64.0538 90.6757H57.9461L54.8771 79.6902ZM53.0586 120.5L49.2658 113.333H72.7333L68.9411 120.5H53.0586ZM75.6911 90.6757H71.8408L79.0113 65.009L71.7878 62.991L69.2178 72.1902H52.7816L50.2116 62.991L42.9881 65.009L50.1586 90.6757H46.3083C34.9256 85.0862 27.6116 73.4072 27.6116 60.6925C27.6116 42.2822 42.5893 27.3045 60.9996 27.3045C79.4098 27.3045 94.3876 42.2822 94.3876 60.6925C94.3878 73.4072 87.0738 85.0862 75.6911 90.6757Z" fill="white" fill-opacity="0.2"/>
<path d="M57.2515 0H64.7514V12.5H57.2515V0Z" fill="white" fill-opacity="0.2"/>
<path d="M82.4727 17.4012L88.9102 6.67618L95.3452 10.5387L88.9077 21.2637L82.4727 17.4012Z" fill="white" fill-opacity="0.2"/>
<path d="M26.7285 10.5731L33.1635 6.71062L39.601 17.4356L33.166 21.2981L26.7285 10.5731Z" fill="white" fill-opacity="0.2"/>
<path d="M5.96094 35.3929L9.49344 28.7779L20.5184 34.6654L16.9859 41.2804L5.96094 35.3929Z" fill="white" fill-opacity="0.2"/>
<path d="M0.581543 59.8269L13.069 59.1894L13.4515 66.6819L0.964043 67.3194L0.581543 59.8269Z" fill="white" fill-opacity="0.2"/>
<path d="M8.84521 91.014L19.2202 84.0515L23.3977 90.2765L13.0227 97.239L8.84521 91.014Z" fill="white" fill-opacity="0.2"/>
</svg>
