<svg width="97" height="85" viewBox="0 0 97 85" fill="none" xmlns="http://www.w3.org/2000/svg">
<path d="M53.5 -22C23.9905 -22 0 -0.670315 0 25.4644C0 37.5356 4.95579 48.7864 14.0789 57.5761C12.0516 62.3812 9.34842 68.0066 5.96947 71.874C3.94211 74.218 3.37895 77.6167 4.73053 80.5466C5.96947 83.3593 8.67263 85 11.6011 85C11.7137 85 11.9389 85 12.0516 85C26.5811 84.2968 36.8305 77.9682 43.3632 72.1084C77.2653 78.0854 107 54.6462 107 25.4644C107 -0.670315 83.0095 -22 53.5 -22ZM53.5 63.3187C50.0084 63.3187 46.4042 62.9671 42.8 62.1468C41.3358 61.7952 39.7589 62.264 38.6326 63.4359C34.1274 67.8894 26.5811 73.2804 15.6558 75.0383C19.3726 69.6473 22.1884 63.0843 23.9905 58.1621C24.7789 56.1698 24.1032 53.943 22.5263 52.6539C13.9663 45.5049 9.23579 35.8949 9.23579 25.6988C9.23579 4.8379 29.0589 -12.0383 53.3874 -12.0383C77.7158 -12.0383 104 0.5 98.5 24C98.5 44.7437 77.8284 63.3187 53.5 63.3187Z" fill="white" fill-opacity="0.2"/>
<path d="M36.3808 20.3077L32.1008 19.9562C31.4251 19.9562 30.9745 19.4874 30.6366 18.9014L28.9472 14.7995C28.384 13.3932 26.4693 13.3932 25.7935 14.7995L24.104 18.9014C23.8787 19.4874 23.3156 19.9562 22.6398 19.9562L18.3598 20.3077C16.8956 20.4249 16.2198 22.4173 17.3461 23.3548L20.6124 26.2847C21.0629 26.7535 21.2882 27.3395 21.1756 28.0427L20.1619 32.3789C19.824 33.9025 21.4008 35.0745 22.6398 34.2541L26.244 31.9102C26.8072 31.5586 27.4829 31.5586 28.0461 31.9102L31.6503 34.2541C32.8893 35.0745 34.4661 33.9025 34.1282 32.3789L33.5651 28.0427C33.4524 27.4567 33.6777 26.7535 34.1282 26.2847L37.3945 23.3548C38.5208 22.4173 37.8451 20.4249 36.3808 20.3077Z" fill="white" fill-opacity="0.2"/>
<path d="M62.397 20.3077L58.117 19.9562C57.4412 19.9562 56.9906 19.4874 56.6527 18.9014L54.9633 14.7995C54.4001 13.3932 52.4854 13.3932 51.8096 14.7995L50.1201 18.9014C49.8949 19.4874 49.3317 19.9562 48.6559 19.9562L44.3759 20.3077C42.9117 20.4249 42.2359 22.4173 43.3622 23.3548L46.6285 26.2847C47.0791 26.7535 47.3043 27.3395 47.1917 28.0427L46.178 32.3789C46.0654 33.9025 47.6422 35.0745 48.9938 34.2541L52.598 31.9102C53.1612 31.5586 53.837 31.5586 54.4001 31.9102L58.0043 34.2541C59.2433 35.0745 60.8201 33.9025 60.4822 32.3789L59.5812 28.0427C59.4685 27.4567 59.6938 26.7535 60.1443 26.2847L63.4106 23.3548C64.4243 22.4173 63.8612 20.4249 62.397 20.3077Z" fill="white" fill-opacity="0.2"/>
<path d="M88.3047 20.3077L84.0247 19.9562C83.3489 19.9562 82.8984 19.4874 82.5605 18.9014L80.871 14.7995C80.3078 13.3932 78.3931 13.3932 77.7173 14.7995L76.0278 18.9014C75.8026 19.4874 75.2394 19.9562 74.5636 19.9562L70.2836 20.3077C68.8194 20.4249 68.1436 22.4173 69.2699 23.3548L72.5363 26.2847C72.9868 26.7535 73.212 27.3395 73.0994 28.0427L72.0857 32.3789C72.0857 33.9025 73.6626 35.0745 74.9015 34.2541L78.5057 31.9102C79.0689 31.5586 79.7447 31.5586 80.3078 31.9102L83.912 34.2541C85.151 35.0745 86.7278 33.9025 86.3899 32.3789L85.4889 28.0427C85.3763 27.4567 85.6015 26.7535 86.052 26.2847L89.3184 23.3548C90.4447 22.4173 89.8815 20.4249 88.3047 20.3077Z" fill="white" fill-opacity="0.2"/>
</svg>
