<svg width="94" height="96" viewBox="0 0 94 96" fill="none" xmlns="http://www.w3.org/2000/svg">
<g opacity="0.16">
<path d="M13.9718 67.2018C13.5863 64.8037 13.3735 62.3366 13.3735 59.8283C13.3735 40.8365 24.9276 24.6562 41.1484 18.3991" stroke="white" stroke-width="8" stroke-miterlimit="10"/>
<path d="M83.1768 93.8563C75.7977 100.196 66.3311 104 56.0003 104C45.6695 104 36.2029 100.196 28.8237 93.8563" stroke="white" stroke-width="8" stroke-miterlimit="10"/>
<path d="M70.8516 18.3855C87.0724 24.6425 98.6265 40.8228 98.6265 59.8146C98.6265 62.3229 98.427 64.7899 98.0282 67.188" stroke="white" stroke-width="8" stroke-miterlimit="10"/>
<path d="M71.0899 15.6428C71.0899 16.5799 71.0101 17.5033 70.8639 18.3992C69.6141 25.7175 63.4315 31.2855 56.0125 31.2855C48.5934 31.2855 42.4109 25.7313 41.1611 18.3992C41.0148 17.5033 40.9351 16.5799 40.9351 15.6428C40.9351 7.00134 47.6893 0 56.0258 0C64.3622 0 71.0899 7.00134 71.0899 15.6428Z" stroke="white" stroke-width="8" stroke-miterlimit="10"/>
<path d="M105.979 89.7218C101.818 97.2055 92.5902 99.769 85.3706 95.4414C84.5861 94.9728 83.8549 94.4353 83.1768 93.8427C77.6989 89.0465 76.1433 80.7358 79.8528 74.079C83.5623 67.4084 91.2872 64.652 98.0415 67.1879C98.8659 67.5049 99.6769 67.8908 100.461 68.3594C107.668 72.687 110.141 82.2518 105.979 89.7218Z" stroke="white" stroke-width="8" stroke-miterlimit="10"/>
<path d="M28.8231 93.8562C28.1583 94.4489 27.4137 94.9726 26.6293 95.455C19.4096 99.7687 10.1824 97.2053 6.02078 89.7354C1.8592 82.2655 4.33222 72.7007 11.5385 68.3732C12.323 67.9046 13.134 67.5187 13.9584 67.2017C20.6993 64.6658 28.4242 67.436 32.147 74.0927C35.8565 80.7495 34.3009 89.0601 28.8231 93.8562Z" stroke="white" stroke-width="8" stroke-miterlimit="10"/>
</g>
</svg>
