<svg width="72" height="64" viewBox="0 0 72 64" fill="none" xmlns="http://www.w3.org/2000/svg">
<path d="M0 9.92807C0.10877 9.29538 0.203944 8.66269 0.328782 8.02999C1.69335 1.17441 7.0577 -3.8084 13.2749 -3.96728C15.0548 -4.01367 16.8359 -4.00805 18.6158 -3.96728C21.5958 -3.90963 23.9504 -1.24107 23.99 2.07846C24.018 3.69697 23.4829 5.26255 22.5012 6.43454C21.5194 7.60654 20.1706 8.2901 18.748 8.3365C17.1671 8.40117 15.5838 8.34634 14.0004 8.35899C11.9326 8.37587 10.835 9.63844 10.8338 11.9921C10.8338 25.302 10.8338 38.6163 10.8338 51.9347C10.8338 54.3333 11.9363 55.5902 14.0338 55.6057C15.6814 55.6156 17.334 55.5495 18.9779 55.6535C22.8368 55.8982 25.2087 60.7811 23.3609 64.6518C22.4425 66.5738 21.0124 67.8322 19.0644 67.9165C16.6975 68.0177 14.3057 68.0712 11.9536 67.8111C5.97247 67.1418 0.966571 61.501 0.139671 54.7354C0.110006 54.488 0.0469689 54.2517 0 54.0113C0 39.3169 0 24.6225 0 9.92807Z" fill="white" fill-opacity="0.1"/>
<path d="M53.0948 26.287C52.8321 25.9778 52.6801 25.7874 52.5167 25.6118C50.188 23.0881 47.8466 20.5765 45.5342 18.0365C43.668 15.9854 43.438 12.8418 44.9448 10.5773C46.5447 8.17239 49.4289 7.31223 51.8406 8.58559C52.4378 8.9093 52.9827 9.33424 53.4542 9.84409C59.0727 15.8593 64.679 21.8876 70.2732 27.929C72.5794 30.4177 72.5756 33.9825 70.2619 36.4752C64.7875 42.3734 59.3048 48.2636 53.8137 54.1456C51.5264 56.5951 48.1194 56.6113 45.8886 54.2252C43.7107 51.8946 43.7622 48.2419 46.0319 45.7803C48.186 43.4397 50.3518 41.1154 52.5293 38.8072C52.6993 38.6517 52.8809 38.5112 53.0722 38.3873L52.9691 38.1267H52.2352C44.7249 38.1267 37.2146 38.1267 29.7043 38.1267C27.0312 38.1267 24.7464 36.2551 24.1608 33.6247C23.3163 29.8357 25.8976 26.3181 29.5761 26.3005C34.4259 26.2762 39.2769 26.3005 44.1279 26.3005H53.0948V26.287Z" fill="white" fill-opacity="0.1"/>
</svg>
