<svg width="102" height="85" viewBox="0 0 102 85" fill="none" xmlns="http://www.w3.org/2000/svg">
<path d="M64.7853 0.0661776C35.5557 -1.3933 11.2782 21.4719 9.82877 50.4182H3.6688C0.769995 50.4182 -0.920975 53.5804 0.528428 56.0129L13.3315 77.0537C14.7809 79.3645 18.1628 79.3645 19.6122 77.0537L32.4153 56.0129C33.8647 53.5804 32.1737 50.4182 29.2749 50.4182H22.2695C23.5981 28.6476 41.8364 11.4988 63.9398 12.4717C84.5938 13.3231 101.745 30.7152 102.349 51.6344C116 81 84.7146 93.4728 62.1281 93.4728C52.9485 93.4728 44.1262 92.3379 37 86.5C37 88.5273 33.2608 86.527 32.4153 87.5L28.5502 90.4322C27.584 91.4052 27.7047 93.1079 28.7918 93.9593C38.2129 101.743 49.9289 106 62.2489 106C91.9616 106 115.998 81.0672 114.79 50.7831C113.582 23.7827 91.5993 1.40403 64.7853 0.0661776Z" fill="white" fill-opacity="0.15"/>
<path d="M64.9062 22.9313H59.471C58.3839 22.9313 57.5384 23.7827 57.5384 24.8773V29.7422L56.9345 29.8639C50.0499 31.445 45.4601 37.891 46.064 45.0668C46.7887 52.2425 53.1902 57.8372 60.558 57.8372H64.1815C65.5102 57.8372 66.718 58.4453 67.5635 59.4183C68.409 60.3913 68.8921 61.7291 68.7713 62.9454C68.5298 65.2562 66.3556 67.0806 63.8192 67.0806H58.9878C57.6592 67.0806 56.4514 66.1076 56.089 64.7697C55.8475 63.9184 55.1228 63.3102 54.1565 63.3102H48.6005C47.9965 63.3102 47.5134 63.5535 47.151 63.9184C46.7887 64.2832 46.6679 64.8913 46.6679 65.3778C47.2718 70.8509 51.3785 75.3509 56.8137 76.3239L57.2969 76.4455V81.1888C57.2969 82.2835 58.1424 83.1348 59.2294 83.1348H64.6647C65.7517 83.1348 66.5972 82.2835 66.5972 81.1888V76.0807L67.0803 75.9591C72.9987 74.4996 77.347 69.513 77.9509 63.6751C78.3132 59.6615 76.9846 55.7696 74.3274 52.729C71.6701 49.8101 67.9258 48.1073 63.94 48.1073H59.7125C58.3839 48.1073 57.1761 47.4992 56.3306 46.5262C55.4851 45.5532 55.002 44.2154 55.1228 42.8775C55.3643 40.5667 57.5384 38.7423 60.0749 38.7423H64.9062C66.2349 38.7423 67.4427 39.7153 67.805 41.0532C68.0466 41.9046 68.7713 42.6343 69.7376 42.6343H75.2936C75.8976 42.6343 76.3807 42.391 76.743 42.0262C77.1054 41.6613 77.347 41.0532 77.2262 40.5667C76.6223 35.0936 72.5156 30.5936 67.0803 29.6206L66.5972 29.499V24.7557C66.8388 23.7827 65.9933 22.9313 64.9062 22.9313Z" fill="white" fill-opacity="0.15"/>
</svg>
