<svg width="87" height="96" viewBox="0 0 87 96" fill="none" xmlns="http://www.w3.org/2000/svg">
<path d="M47.8186 123.633C46.6762 123.973 45.4791 124.078 44.2965 123.943C43.1139 123.808 41.9694 123.436 40.9292 122.847C39.8889 122.259 38.9737 121.466 38.2364 120.515C37.4991 119.565 36.9544 118.474 36.6338 117.308L34.285 108.73H21.5096C19.8776 108.73 18.2615 108.402 16.7538 107.767C15.246 107.131 13.876 106.199 12.722 105.024C11.568 103.849 10.6526 102.454 10.0281 100.919C9.40352 99.3845 9.08207 97.7393 9.08207 96.0778V83.2362L5.78878 82.1229C4.66901 81.7445 3.63947 81.1317 2.76642 80.3237C1.89338 79.5158 1.19619 78.5307 0.719732 77.4319C0.243273 76.3331 -0.00189437 75.1448 1.10215e-05 73.9437C0.00191642 72.7426 0.250853 71.5552 0.730795 70.4579L7.71505 54.4913C8.61779 52.4377 9.08366 50.2129 9.08207 47.963C9.09087 37.9513 12.1696 28.1922 17.8885 20.0475C23.6075 11.9028 31.6813 5.77888 40.9834 2.53035C41.4474 5.76921 41.8617 9.07555 42.2262 12.4494C35.2933 15.3077 29.354 20.204 25.1662 26.5135C20.9784 32.823 18.7319 40.2596 18.7134 47.8744C18.7191 51.4885 17.9737 55.0629 16.5261 58.3628L9.98928 73.2793L13.9785 74.6457C15.3464 75.1041 16.5371 75.9908 17.3807 77.179C18.2243 78.3673 18.6776 79.7964 18.6761 81.2626V96.1537C18.6761 96.5325 18.7494 96.9076 18.8918 97.2576C19.0342 97.6076 19.2429 97.9256 19.506 98.1935C19.7691 98.4613 20.0815 98.6738 20.4252 98.8188C20.769 98.9637 21.1375 99.0383 21.5096 99.0383H41.4805L45.7183 114.22L88.5062 101.784V77.4319L89.5 73.9437C93.3507 69.8757 90.0907 65.5132 91.8618 60.1592C93.6329 54.8051 94.2149 49.1176 93.5658 43.5069C92.9167 37.8961 92.4445 32.2887 89.5 27.5C86.5555 22.7113 92.782 17.0459 88.1083 14C87.81 10.0526 88.5556 10.8124 88.1083 7C94.7924 10.0325 88.0019 11.7847 92.6448 17.5432C97.2878 23.3016 100.548 30.0827 102.167 37.348C103.786 44.6134 103.719 52.1629 101.971 59.3972C100.223 66.6315 96.8424 73.3513 92.0977 79.0232L97.8517 99.5697C98.1832 100.733 98.2852 101.951 98.1519 103.154C98.0186 104.358 97.6525 105.522 97.0749 106.581C96.4972 107.639 95.7193 108.571 94.7862 109.322C93.853 110.073 92.783 110.628 91.6379 110.956L47.8186 123.633Z" fill="white" fill-opacity="0.15"/>
<path d="M40.2755 76.3663C38.9758 75.5696 37.4566 75.2254 35.9477 75.3857C34.4387 75.5461 33.0221 76.2023 31.9121 77.255C30.802 78.3078 30.0588 79.6999 29.7949 81.2209C29.5311 82.7419 29.7608 84.309 30.4495 85.6852C31.1382 87.0614 32.2483 88.1719 33.6119 88.8488C34.9756 89.5256 36.5187 89.7321 38.0078 89.4368C39.497 89.1416 40.8512 88.3607 41.8657 87.2123C42.8802 86.0639 43.4998 84.6105 43.6309 83.0718C49.3102 79.5407 53.9239 74.4847 56.9656 68.4589C60.5275 69.1277 64.2071 68.531 67.3886 66.7684C70.57 65.0059 73.0605 62.1846 74.4432 58.7765C75.826 55.3683 76.0172 51.5801 74.9848 48.0457C73.9524 44.5112 71.759 41.4449 68.7717 39.3598C68.7604 26.5695 67.1439 11.1803 65.5 -1.5C63.2856 -1.99558 61.7617 -0.338573 59.5 -0.5C58.3898 -0.584345 57.1185 -1 56 -1C53.7465 -1.00085 51.7314 -1.32096 49.5 -1C51.3019 11.6034 52.2122 25.8013 52.2556 38.5374C49.9583 39.8207 48.0108 41.6657 46.5884 43.9062C45.166 46.1466 44.3135 48.7121 44.1076 51.3715C43.9017 54.0309 44.349 56.7007 45.4091 59.1403C46.4691 61.58 48.1088 63.7128 50.1802 65.3466C47.9 69.8512 44.4809 73.6552 40.2755 76.3663Z" fill="white" fill-opacity="0.15"/>
</svg>
