<svg width="70" height="70" viewBox="0 0 70 70" fill="none" xmlns="http://www.w3.org/2000/svg">
<g filter="url(#filter0_d)">
<rect x="8.55566" y="4" width="53.3333" height="53.3333" rx="8" fill="white"/>
</g>
<g clip-path="url(#clip0)">
<path d="M36.9999 12.8889H33.4443C24.6078 12.8889 17.4443 20.0524 17.4443 28.8889V32.4445C17.4443 41.281 24.6078 48.4445 33.4443 48.4445H36.9999C45.8364 48.4445 52.9999 41.281 52.9999 32.4445V28.8889C52.9999 20.0524 45.8364 12.8889 36.9999 12.8889Z" fill="#50ABF1"/>
<path d="M22.1548 39.2453C24.5211 40.7461 27.3281 41.6146 30.337 41.6146C38.7903 41.6146 45.6427 34.7613 45.6427 26.3088C45.6427 26.0978 45.6383 25.8883 45.6302 25.6795C45.9359 25.4389 47.8269 23.9232 48.2905 22.9488C48.2905 22.9488 46.7548 23.587 45.2519 23.7373C45.2489 23.7373 45.2452 23.738 45.2423 23.738C45.2423 23.738 45.2452 23.7366 45.2504 23.7329C45.3889 23.6404 47.325 22.3224 47.5871 20.752C47.5871 20.752 46.5009 21.3318 44.9801 21.839C44.7284 21.9226 44.4648 22.0049 44.1931 22.0811C43.2128 21.0349 41.8193 20.3818 40.2726 20.3818C37.3058 20.3818 34.9017 22.7852 34.9017 25.7498C34.9017 26.1681 34.9499 26.5753 35.0409 26.9662C34.6263 26.9492 28.3128 26.5952 24.0177 21.3939C24.0177 21.3939 21.4508 24.8983 25.5474 28.5018C25.5474 28.5018 24.3021 28.4522 23.2277 27.8102C23.2277 27.8102 22.8331 32.0557 27.4725 33.1412C27.4725 33.1412 26.5596 33.487 25.1032 33.2404C25.1032 33.2404 25.9176 36.6707 30.0395 36.9913C30.0395 36.9913 26.7801 39.9358 22.1533 39.2449L22.1548 39.2453Z" fill="white"/>
</g>
<defs>
<filter id="filter0_d" x="0.555664" y="0" width="69.3333" height="69.3333" filterUnits="userSpaceOnUse" color-interpolation-filters="sRGB">
<feFlood flood-opacity="0" result="BackgroundImageFix"/>
<feColorMatrix in="SourceAlpha" type="matrix" values="0 0 0 0 0 0 0 0 0 0 0 0 0 0 0 0 0 0 127 0"/>
<feOffset dy="4"/>
<feGaussianBlur stdDeviation="4"/>
<feColorMatrix type="matrix" values="0 0 0 0 0 0 0 0 0 0 0 0 0 0 0 0 0 0 0.16 0"/>
<feBlend mode="normal" in2="BackgroundImageFix" result="effect1_dropShadow"/>
<feBlend mode="normal" in="SourceGraphic" in2="effect1_dropShadow" result="shape"/>
</filter>
<clipPath id="clip0">
<rect x="17.4443" y="12.8889" width="35.5556" height="35.5556" fill="white"/>
</clipPath>
</defs>
</svg>
