<svg width="134" height="48" viewBox="0 0 134 48" fill="none" xmlns="http://www.w3.org/2000/svg">
<rect width="134" height="48" rx="8" fill="#9C1941"/>
<path d="M28 20C28 18.8954 28.8954 18 30 18H38C39.1046 18 40 18.8954 40 20V28C40 29.1046 39.1046 30 38 30H30C28.8954 30 28 29.1046 28 28V20Z" fill="#7BCFF0"/>
<path d="M38.0963 27.2349C37.3008 26.536 36.3362 25.9321 35.229 25.4401C34.7557 25.2299 34.2018 25.4431 33.9916 25.9162C33.7814 26.3893 33.9945 26.9432 34.4677 27.1536C35.4013 27.5685 36.2059 28.0697 36.8586 28.6434C37.6634 29.3505 38.125 30.3745 38.125 31.4531V33.1875C38.125 33.7044 37.7044 34.125 37.1875 34.125H18.8125C18.2956 34.125 17.875 33.7044 17.875 33.1875V31.4531C17.875 30.3745 18.3366 29.3505 19.1414 28.6434C20.0886 27.811 22.8483 25.875 28 25.875C31.8253 25.875 34.9375 22.7628 34.9375 18.9375C34.9375 15.1122 31.8253 12 28 12C24.1747 12 21.0625 15.1122 21.0625 18.9375C21.0625 21.1738 22.1263 23.166 23.7743 24.4354C20.7589 25.0983 18.8832 26.3741 17.9037 27.2349C16.694 28.2979 16 29.8352 16 31.4531V33.1875C16 34.7384 17.2616 36 18.8125 36H37.1875C38.7384 36 40 34.7384 40 33.1875V31.4531C40 29.8352 39.306 28.2979 38.0963 27.2349ZM22.9375 18.9375C22.9375 16.1461 25.2086 13.875 28 13.875C30.7914 13.875 33.0625 16.1461 33.0625 18.9375C33.0625 21.7289 30.7914 24 28 24C25.2086 24 22.9375 21.7289 22.9375 18.9375Z" fill="white"/>
<path d="M61.296 19.044H61.344L63.056 23.956H59.568L61.296 19.044ZM55.888 28.5H57.952L59.024 25.476H63.584L64.656 28.5H66.8L62.4 17.076H60.272L55.888 28.5ZM75.0399 22.996C74.8639 20.964 73.2319 20.004 71.3119 20.004C68.5919 20.004 67.2319 21.956 67.2319 24.452C67.2319 26.884 68.6559 28.724 71.2479 28.724C73.3759 28.724 74.7039 27.54 75.0399 25.396H73.2159C73.0399 26.58 72.3039 27.284 71.2479 27.284C69.6639 27.284 69.0559 25.828 69.0559 24.452C69.0559 21.94 70.3839 21.444 71.3279 21.444C72.3359 21.444 73.0719 21.988 73.2159 22.996H75.0399ZM83.9305 22.996C83.7545 20.964 82.1225 20.004 80.2025 20.004C77.4825 20.004 76.1225 21.956 76.1225 24.452C76.1225 26.884 77.5465 28.724 80.1385 28.724C82.2665 28.724 83.5945 27.54 83.9305 25.396H82.1065C81.9305 26.58 81.1945 27.284 80.1385 27.284C78.5545 27.284 77.9465 25.828 77.9465 24.452C77.9465 21.94 79.2745 21.444 80.2185 21.444C81.2265 21.444 81.9625 21.988 82.1065 22.996H83.9305ZM89.2051 27.284C87.5731 27.284 86.8531 25.796 86.8531 24.356C86.8531 22.932 87.5731 21.444 89.2051 21.444C90.8371 21.444 91.5571 22.932 91.5571 24.356C91.5571 25.796 90.8371 27.284 89.2051 27.284ZM89.2051 28.724C91.8611 28.724 93.3811 26.9 93.3811 24.356C93.3811 21.828 91.8611 20.004 89.2051 20.004C86.5491 20.004 85.0291 21.828 85.0291 24.356C85.0291 26.9 86.5491 28.724 89.2051 28.724ZM102.161 20.228H100.338V25.028C100.338 26.308 99.8255 27.284 98.3055 27.284C97.3135 27.284 96.7215 26.756 96.7215 25.3V20.228H94.8975V25.476C94.8975 27.636 95.8255 28.724 97.9855 28.724C98.8975 28.724 99.8895 28.18 100.338 27.348H100.37V28.5H102.161V20.228ZM104.085 28.5H105.909V23.62C105.909 22.404 106.693 21.444 107.909 21.444C108.981 21.444 109.493 22.004 109.525 23.3V28.5H111.349V22.82C111.349 20.964 110.213 20.004 108.421 20.004C107.333 20.004 106.389 20.564 105.845 21.476L105.813 21.444V20.228H104.085V28.5ZM112.441 21.588H113.817V26.468C113.849 27.844 114.201 28.58 116.105 28.58C116.505 28.58 116.889 28.516 117.289 28.484V27.076C117.033 27.14 116.777 27.14 116.521 27.14C115.705 27.14 115.641 26.756 115.641 26.004V21.588H117.289V20.228H115.641V17.748H113.817V20.228H112.441V21.588Z" fill="white"/>
</svg>
