<svg width="116" height="48" viewBox="0 0 116 48" fill="none" xmlns="http://www.w3.org/2000/svg">
<rect width="116" height="48" rx="8" fill="#0C8AE3"/>
<g clip-path="url(#clip0)">
<path d="M33.3933 24.3934C28.0818 24.3934 25.4218 17.9716 29.1776 14.2157C31.5059 11.8874 35.2808 11.8874 37.609 14.2157C41.3649 17.9716 38.7048 24.3934 33.3933 24.3934Z" fill="white" fill-opacity="0.6"/>
<path d="M39.7276 23.0819L29.9593 13.2492C29.9468 13.2366 29.9338 13.2243 29.9206 13.2124C28.8539 12.2547 27.2421 12.2513 26.1714 13.2045C26.1581 13.2163 26.1452 13.2286 26.1325 13.2411L16.2752 23.079C15.9088 23.4448 15.9082 24.0384 16.2739 24.4049C16.6397 24.7713 17.2333 24.7719 17.5997 24.4062L18.3437 23.6636V31.7582C18.3437 33.8259 20.026 35.5082 22.0937 35.5082H25.4687C25.9865 35.5082 26.4062 35.0885 26.4062 34.5707V26.9301H29.6875V34.5707C29.6875 35.0885 30.1072 35.5082 30.625 35.5082H33.9062C35.974 35.5082 37.6562 33.8259 37.6562 31.7582C37.6562 31.2404 37.2365 30.8207 36.7187 30.8207C36.201 30.8207 35.7812 31.2404 35.7812 31.7582C35.7812 32.7921 34.9401 33.6332 33.9062 33.6332H31.5625V25.9926C31.5625 25.4748 31.1428 25.0551 30.625 25.0551H25.4687C24.951 25.0551 24.5312 25.4748 24.5312 25.9926V33.6332H22.0937C21.0599 33.6332 20.2187 32.7921 20.2187 31.7582V21.8207C20.2187 21.8113 20.2186 21.802 20.2183 21.7927L27.435 14.5903C27.7862 14.2921 28.3014 14.2932 28.6512 14.5929L35.7812 21.7699V27.0707C35.7812 27.5885 36.201 28.0082 36.7187 28.0082C37.2365 28.0082 37.6562 27.5885 37.6562 27.0707V23.6573L38.3974 24.4034C38.5807 24.5878 38.8215 24.6801 39.0625 24.6801C39.3014 24.6801 39.5404 24.5893 39.7232 24.4077C40.0906 24.0428 40.0925 23.4492 39.7276 23.0819Z" fill="white"/>
</g>
<path d="M57.168 31H59.168V25.848H64.368V31H66.368V19.576H64.368V24.12H59.168V19.576H57.168V31ZM72.2989 29.784C70.6669 29.784 69.9469 28.296 69.9469 26.856C69.9469 25.432 70.6669 23.944 72.2989 23.944C73.9309 23.944 74.6509 25.432 74.6509 26.856C74.6509 28.296 73.9309 29.784 72.2989 29.784ZM72.2989 31.224C74.9549 31.224 76.4749 29.4 76.4749 26.856C76.4749 24.328 74.9549 22.504 72.2989 22.504C69.6429 22.504 68.1229 24.328 68.1229 26.856C68.1229 29.4 69.6429 31.224 72.2989 31.224ZM77.9913 31H79.8153V26.088C79.8153 24.712 80.6793 23.944 81.6233 23.944C82.7273 23.944 83.0793 24.552 83.0793 25.688V31H84.9033V26.152C84.9033 24.76 85.4313 23.944 86.6633 23.944C88.0873 23.944 88.1673 24.856 88.1673 26.168V31H89.9913V25.288C89.9913 23.272 88.9673 22.504 87.2233 22.504C86.0233 22.504 85.2393 23.032 84.6313 23.88C84.2633 22.936 83.3193 22.504 82.3113 22.504C80.9993 22.504 80.3113 23.064 79.7673 23.88H79.7193V22.728H77.9913V31ZM99.4171 27.336C99.7211 24.856 98.1211 22.504 95.5131 22.504C93.0491 22.504 91.5131 24.52 91.5131 26.872C91.5131 29.416 92.9691 31.224 95.5611 31.224C97.3691 31.224 98.9051 30.216 99.3051 28.408H97.5771C97.2571 29.32 96.6171 29.784 95.5611 29.784C94.0411 29.784 93.3371 28.632 93.3371 27.336H99.4171ZM93.3371 26.136C93.3851 24.904 94.2491 23.944 95.5131 23.944C96.7451 23.944 97.5291 24.984 97.5931 26.136H93.3371Z" fill="white"/>
<defs>
<clipPath id="clip0">
<rect x="16" y="12" width="24" height="24" fill="white"/>
</clipPath>
</defs>
</svg>
