<svg id="Layer_1" data-name="Layer 1" xmlns="http://www.w3.org/2000/svg" width="35" height="35" viewBox="0 0 35 35">
  <defs>
    <style>
      .cls-1 {
        fill: 'none';
        <!-- stroke: #fff; -->
        stroke-width: 2px;
      }
    </style>
  </defs>
  <title>Jar0</title>
  <g id="Group_94" data-name="Group 94">
    <path id="Path_315-2" data-name="Path 315-2" class="cls-1" d="M26.44684,10.57819a5.13916,5.13916,0,0,0-1.342-1.619,1.26206,1.26206,0,0,1-.537-.772c-.05-.262-.07-.506-.03-.506s.242-.052.222-.113-.222-.1-.222-.1v-.751a.68888.68888,0,0,0,.2,0,.31209.31209,0,0,0,.161-.122s.02-.847,0-.96a.20592.20592,0,0,0-.115-.152c-.541-.432-5.387-.5-7.19-.5s-6.65.072-7.19.5a.206.206,0,0,0-.115.152c-.02.113,0,.96,0,.96a.31217.31217,0,0,0,.161.122.68888.68888,0,0,0,.2,0v.463s-.2.035-.222.1.181.114.222.114a2.464,2.464,0,0,1-.03.794,1.263,1.263,0,0,1-.536.772,5.13384,5.13384,0,0,0-1.343,1.619,9.336,9.336,0,0,0-.314,2.6c.042.873.257,4.977.188,6.093s.034,5.368,0,5.821-.139,2.985,1.357,4.313,5.767,1.209,7.622,1.209,6.125.118,7.621-1.209,1.392-3.861,1.357-4.313.069-4.705,0-5.821.145-5.22.188-6.093A9.35286,9.35286,0,0,0,26.44684,10.57819Z"/>
  </g>
</svg>
