<svg width="24" height="24" viewBox="0 0 24 24" fill="none" xmlns="http://www.w3.org/2000/svg">
<path d="M22.5588 6.30652C23.4356 7.1873 22.9378 8.78081 21.6627 9.17484L13.0558 11.8345C11.7808 12.2286 10.6848 11.1276 11.083 9.85279L13.0558 1.41574C13.4541 0.140927 15.1232 -0.380779 16 0.5L22.5588 6.30652Z" fill="#7BCFF0"/>
<path d="M23.6351 21.8602L17.7187 15.9194C19.2399 14.1735 20.0734 11.9768 20.0734 9.68999C20.0734 4.34701 15.5708 0 10.0367 0C4.50255 0 0 4.34701 0 9.68999C0 15.033 4.50255 19.38 10.0367 19.38C12.1143 19.38 14.0941 18.775 15.7868 17.6265L21.7482 23.6124C21.9974 23.8622 22.3325 24 22.6916 24C23.0316 24 23.3541 23.8749 23.5989 23.6474C24.119 23.1641 24.1356 22.3628 23.6351 21.8602ZM10.0367 2.52782C14.1273 2.52782 17.4551 5.74069 17.4551 9.68999C17.4551 13.6393 14.1273 16.8522 10.0367 16.8522C5.94608 16.8522 2.61827 13.6393 2.61827 9.68999C2.61827 5.74069 5.94608 2.52782 10.0367 2.52782Z" fill="white"/>
</svg>
