<svg width="124" height="48" viewBox="0 0 124 48" fill="none" xmlns="http://www.w3.org/2000/svg">
<rect width="124" height="48" rx="8" fill="#21AB6A"/>
<path d="M38.5588 18.3065C39.4356 19.1873 38.9378 20.7808 37.6627 21.1749L29.0558 23.8346C27.7808 24.2286 26.6848 23.1276 27.083 21.8528L29.0558 13.4158C29.4541 12.141 31.1232 11.6193 32 12.5L38.5588 18.3065Z" fill="#7BCFF0"/>
<path d="M39.6351 33.8602L33.7187 27.9194C35.2399 26.1735 36.0734 23.9768 36.0734 21.69C36.0734 16.347 31.5708 12 26.0367 12C20.5025 12 16 16.347 16 21.69C16 27.033 20.5025 31.38 26.0367 31.38C28.1143 31.38 30.0941 30.775 31.7868 29.6265L37.7482 35.6124C37.9974 35.8622 38.3325 36 38.6916 36C39.0316 36 39.3541 35.8749 39.5989 35.6474C40.119 35.1641 40.1356 34.3628 39.6351 33.8602ZM26.0367 14.5278C30.1273 14.5278 33.4551 17.7407 33.4551 21.69C33.4551 25.6393 30.1273 28.8522 26.0367 28.8522C21.9461 28.8522 18.6183 25.6393 18.6183 21.69C18.6183 17.7407 21.9461 14.5278 26.0367 14.5278Z" fill="white"/>
<path d="M56.528 24.692C56.576 27.524 58.688 28.772 61.296 28.772C63.568 28.772 65.84 27.748 65.84 25.188C65.84 24.004 65.12 22.724 63.616 22.276C63.024 22.1 60.496 21.444 60.32 21.396C59.504 21.172 58.96 20.724 58.96 19.924C58.96 18.772 60.128 18.436 61.056 18.436C62.432 18.436 63.424 18.98 63.52 20.452H65.52C65.52 18.068 63.52 16.804 61.136 16.804C59.072 16.804 56.96 17.876 56.96 20.164C56.96 21.348 57.536 22.532 59.488 23.06C61.056 23.492 62.096 23.7 62.896 24.004C63.36 24.18 63.84 24.532 63.84 25.412C63.84 26.276 63.184 27.14 61.424 27.14C59.824 27.14 58.528 26.452 58.528 24.692H56.528ZM74.839 24.836C75.143 22.356 73.543 20.004 70.935 20.004C68.471 20.004 66.935 22.02 66.935 24.372C66.935 26.916 68.391 28.724 70.983 28.724C72.791 28.724 74.327 27.716 74.727 25.908H72.999C72.679 26.82 72.039 27.284 70.983 27.284C69.463 27.284 68.759 26.132 68.759 24.836H74.839ZM68.759 23.636C68.807 22.404 69.671 21.444 70.935 21.444C72.167 21.444 72.951 22.484 73.015 23.636H68.759ZM81.3296 25.716C81.3296 26.868 80.0816 27.284 79.2816 27.284C78.6416 27.284 77.6016 27.044 77.6016 26.228C77.6016 25.268 78.3056 24.98 79.0896 24.852C79.8896 24.708 80.7696 24.724 81.3296 24.356V25.716ZM83.1536 22.404C83.1536 20.66 81.4576 20.004 79.8416 20.004C78.0176 20.004 76.2096 20.628 76.0816 22.756H77.9056C77.9856 21.86 78.7056 21.444 79.7296 21.444C80.4656 21.444 81.4416 21.62 81.4416 22.564C81.4416 23.636 80.2736 23.492 78.9616 23.732C77.4256 23.908 75.7776 24.244 75.7776 26.308C75.7776 27.924 77.1216 28.724 78.6096 28.724C79.5856 28.724 80.7536 28.42 81.4736 27.716C81.6176 28.468 82.1456 28.724 82.8816 28.724C83.1856 28.724 83.7616 28.612 84.0336 28.516V27.252C83.8416 27.284 83.6976 27.284 83.5856 27.284C83.2496 27.284 83.1536 27.108 83.1536 26.66V22.404ZM85.1163 28.5H86.9403V24.564C86.9403 22.74 87.9323 21.732 89.1803 21.732C89.4363 21.732 89.7083 21.78 89.9643 21.812V20.052C89.8043 20.036 89.6923 20.004 89.2763 20.004C88.1562 20.004 87.0683 20.948 86.8603 21.828H86.8283V20.228H85.1163V28.5ZM97.868 22.996C97.692 20.964 96.06 20.004 94.14 20.004C91.42 20.004 90.06 21.956 90.06 24.452C90.06 26.884 91.484 28.724 94.076 28.724C96.204 28.724 97.532 27.54 97.868 25.396H96.044C95.868 26.58 95.132 27.284 94.076 27.284C92.492 27.284 91.884 25.828 91.884 24.452C91.884 21.94 93.212 21.444 94.156 21.444C95.164 21.444 95.9 21.988 96.044 22.996H97.868ZM99.3506 28.5H101.175V23.62C101.175 22.404 101.959 21.444 103.175 21.444C104.247 21.444 104.759 22.004 104.791 23.3V28.5H106.615V22.82C106.615 20.964 105.479 20.004 103.687 20.004C102.599 20.004 101.655 20.564 101.207 21.316H101.175V17.076H99.3506V28.5Z" fill="white"/>
</svg>
