<svg width="166" height="96" viewBox="0 0 166 96" fill="none" xmlns="http://www.w3.org/2000/svg">
<mask id="mask0" mask-type="alpha" maskUnits="userSpaceOnUse" x="0" y="0" width="166" height="96">
<rect width="166" height="96" rx="16" fill="url(#paint0_linear)"/>
</mask>
<g mask="url(#mask0)">
<rect width="166" height="96" rx="16" fill="url(#paint1_linear)"/>
<path d="M19.984 23.584L21.472 19.392H21.504L22.944 23.584H19.984ZM20.224 16.576L15.904 28H18.432L19.328 25.456H23.6L24.464 28H27.072L22.8 16.576H20.224ZM33.8811 23.872C33.8811 24.2133 33.8438 24.544 33.7691 24.864C33.6945 25.184 33.5771 25.4667 33.4171 25.712C33.2571 25.9573 33.0545 26.1547 32.8091 26.304C32.5745 26.4427 32.2865 26.512 31.9451 26.512C31.6145 26.512 31.3265 26.4427 31.0811 26.304C30.8358 26.1547 30.6331 25.9573 30.4731 25.712C30.3131 25.4667 30.1958 25.184 30.1211 24.864C30.0465 24.544 30.0091 24.2133 30.0091 23.872C30.0091 23.52 30.0465 23.184 30.1211 22.864C30.1958 22.544 30.3131 22.2613 30.4731 22.016C30.6331 21.7707 30.8358 21.5787 31.0811 21.44C31.3265 21.2907 31.6145 21.216 31.9451 21.216C32.2865 21.216 32.5745 21.2907 32.8091 21.44C33.0545 21.5787 33.2571 21.7707 33.4171 22.016C33.5771 22.2613 33.6945 22.544 33.7691 22.864C33.8438 23.184 33.8811 23.52 33.8811 23.872ZM27.8171 16.576V28H29.9771V26.944H30.0091C30.2545 27.4027 30.6171 27.728 31.0971 27.92C31.5771 28.112 32.1211 28.208 32.7291 28.208C33.1451 28.208 33.5558 28.1227 33.9611 27.952C34.3665 27.7813 34.7291 27.52 35.0491 27.168C35.3798 26.816 35.6465 26.368 35.8491 25.824C36.0518 25.2693 36.1531 24.6133 36.1531 23.856C36.1531 23.0987 36.0518 22.448 35.8491 21.904C35.6465 21.3493 35.3798 20.896 35.0491 20.544C34.7291 20.192 34.3665 19.9307 33.9611 19.76C33.5558 19.5893 33.1451 19.504 32.7291 19.504C32.2171 19.504 31.7211 19.6053 31.2411 19.808C30.7718 20 30.3985 20.3093 30.1211 20.736H30.0891V16.576H27.8171ZM39.6144 23.872C39.6144 23.5413 39.6464 23.216 39.7104 22.896C39.7744 22.576 39.881 22.2933 40.0304 22.048C40.1904 21.8027 40.3984 21.6053 40.6544 21.456C40.9104 21.296 41.2304 21.216 41.6144 21.216C41.9984 21.216 42.3184 21.296 42.5744 21.456C42.841 21.6053 43.049 21.8027 43.1984 22.048C43.3584 22.2933 43.4704 22.576 43.5344 22.896C43.5984 23.216 43.6304 23.5413 43.6304 23.872C43.6304 24.2027 43.5984 24.528 43.5344 24.848C43.4704 25.1573 43.3584 25.44 43.1984 25.696C43.049 25.9413 42.841 26.1387 42.5744 26.288C42.3184 26.4373 41.9984 26.512 41.6144 26.512C41.2304 26.512 40.9104 26.4373 40.6544 26.288C40.3984 26.1387 40.1904 25.9413 40.0304 25.696C39.881 25.44 39.7744 25.1573 39.7104 24.848C39.6464 24.528 39.6144 24.2027 39.6144 23.872ZM37.3424 23.872C37.3424 24.5333 37.4437 25.1307 37.6464 25.664C37.849 26.1973 38.137 26.656 38.5104 27.04C38.8837 27.4133 39.3317 27.7013 39.8544 27.904C40.377 28.1067 40.9637 28.208 41.6144 28.208C42.265 28.208 42.8517 28.1067 43.3744 27.904C43.9077 27.7013 44.361 27.4133 44.7344 27.04C45.1077 26.656 45.3957 26.1973 45.5984 25.664C45.801 25.1307 45.9024 24.5333 45.9024 23.872C45.9024 23.2107 45.801 22.6133 45.5984 22.08C45.3957 21.536 45.1077 21.0773 44.7344 20.704C44.361 20.32 43.9077 20.0267 43.3744 19.824C42.8517 19.6107 42.265 19.504 41.6144 19.504C40.9637 19.504 40.377 19.6107 39.8544 19.824C39.3317 20.0267 38.8837 20.32 38.5104 20.704C38.137 21.0773 37.849 21.536 37.6464 22.08C37.4437 22.6133 37.3424 23.2107 37.3424 23.872ZM55.1396 28V19.728H52.8676V24.064C52.8676 24.9067 52.729 25.5147 52.4516 25.888C52.1743 26.2507 51.7263 26.432 51.1076 26.432C50.5636 26.432 50.185 26.2667 49.9716 25.936C49.7583 25.5947 49.6516 25.0827 49.6516 24.4V19.728H47.3796V24.816C47.3796 25.328 47.4223 25.7973 47.5076 26.224C47.6036 26.64 47.7636 26.9973 47.9876 27.296C48.2116 27.584 48.5156 27.808 48.8996 27.968C49.2943 28.128 49.7956 28.208 50.4036 28.208C50.8836 28.208 51.353 28.1013 51.8116 27.888C52.2703 27.6747 52.6436 27.328 52.9316 26.848H52.9796V28H55.1396ZM59.744 19.728V17.248H57.472V19.728H56.096V21.248H57.472V26.128C57.472 26.544 57.5413 26.88 57.68 27.136C57.8187 27.392 58.0053 27.5893 58.24 27.728C58.4853 27.8667 58.7627 27.9573 59.072 28C59.392 28.0533 59.728 28.08 60.08 28.08C60.304 28.08 60.5333 28.0747 60.768 28.064C61.0027 28.0533 61.216 28.032 61.408 28V26.24C61.3013 26.2613 61.1893 26.2773 61.072 26.288C60.9547 26.2987 60.832 26.304 60.704 26.304C60.32 26.304 60.064 26.24 59.936 26.112C59.808 25.984 59.744 25.728 59.744 25.344V21.248H61.408V19.728H59.744Z" fill="white"/>
<path d="M128 0C115.738 0 103.751 3.63624 93.5547 10.4489C83.3588 17.2615 75.4121 26.9446 70.7195 38.2736C66.0269 49.6026 64.7991 62.0688 67.1913 74.0956C69.5836 86.1224 75.4886 97.1698 84.1594 105.841C92.8303 114.511 103.878 120.416 115.904 122.809C127.931 125.201 140.397 123.973 151.726 119.281C163.055 114.588 172.738 106.641 179.551 96.4453C186.364 86.2495 190 74.2624 190 62C189.982 45.5622 183.444 29.803 171.82 18.1797C160.197 6.55643 144.438 0.0184013 128 0ZM128 112.978C117.918 112.978 108.062 109.988 99.6783 104.386C91.295 98.7849 84.7611 90.8233 80.9027 81.5083C77.0443 72.1934 76.0348 61.9434 78.0018 52.0547C79.9688 42.166 84.8239 33.0826 91.9533 25.9533C99.0827 18.8239 108.166 13.9687 118.055 12.0017C127.943 10.0348 138.193 11.0443 147.508 14.9027C156.823 18.7611 164.785 25.295 170.386 33.6783C175.988 42.0615 178.978 51.9175 178.978 62C178.963 75.5155 173.587 88.4732 164.03 98.0301C154.473 107.587 141.516 112.963 128 112.978Z" fill="white" fill-opacity="0.15"/>
<path d="M121.112 27.5556C121.112 26.1931 121.516 24.8612 122.272 23.7284C123.029 22.5955 124.105 21.7125 125.364 21.1911C126.623 20.6697 128.008 20.5333 129.344 20.7991C130.681 21.0649 131.908 21.721 132.872 22.6845C133.835 23.6479 134.491 24.8754 134.757 26.2117C135.023 27.548 134.886 28.9331 134.365 30.1919C133.843 31.4507 132.961 32.5266 131.828 33.2835C130.695 34.0405 129.363 34.4445 128 34.4445C126.173 34.4445 124.421 33.7187 123.129 32.4268C121.837 31.1349 121.112 29.3827 121.112 27.5556ZM143.156 90.9334V96.4445C143.156 97.1753 142.866 97.8762 142.349 98.393C141.832 98.9098 141.131 99.2001 140.4 99.2001H115.6C114.87 99.2001 114.169 98.9098 113.652 98.393C113.135 97.8762 112.845 97.1753 112.845 96.4445V90.9334C112.845 90.2026 113.135 89.5017 113.652 88.9849C114.169 88.4682 114.87 88.1779 115.6 88.1779H118.356C119.087 88.1779 119.788 87.8875 120.304 87.3708C120.821 86.854 121.112 86.1531 121.112 85.4223V59.2445C121.112 58.5137 120.821 57.8128 120.304 57.296C119.788 56.7793 119.087 56.489 118.356 56.489H115.6C114.87 56.489 114.169 56.1986 113.652 55.6819C113.135 55.1651 112.845 54.4642 112.845 53.7334V48.2223C112.845 47.4915 113.135 46.7906 113.652 46.2738C114.169 45.7571 114.87 45.4667 115.6 45.4667H132.134C132.865 45.4667 133.565 45.7571 134.082 46.2738C134.599 46.7906 134.889 47.4915 134.889 48.2223V85.4223C134.889 86.1531 135.18 86.854 135.696 87.3708C136.213 87.8875 136.914 88.1779 137.645 88.1779H140.4C141.131 88.1779 141.832 88.4682 142.349 88.9849C142.866 89.5017 143.156 90.2026 143.156 90.9334Z" fill="white" fill-opacity="0.15"/>
</g>
<defs>
<linearGradient id="paint0_linear" x1="0" y1="48" x2="166" y2="48" gradientUnits="userSpaceOnUse">
<stop stop-color="#1C8A63"/>
<stop offset="1" stop-color="#72D396"/>
</linearGradient>
<linearGradient id="paint1_linear" x1="2.01624e-07" y1="16" x2="160.254" y2="91.9608" gradientUnits="userSpaceOnUse">
<stop stop-color="#69BD88"/>
<stop offset="1" stop-color="#1E9269"/>
</linearGradient>
</defs>
</svg>
