<svg width="40" height="30" viewBox="0 0 40 30" fill="none" xmlns="http://www.w3.org/2000/svg">
<path d="M2.49997 0.624512H37.5C38.8801 0.624512 40 1.74446 40 3.12571V26.8757C40 28.2557 38.8801 29.3757 37.5 29.3757H2.49997C1.11871 29.3758 0 28.2557 0 26.8759V3.12571C0 1.74446 1.11995 0.624512 2.49997 0.624512Z" fill="#26A6D1"/>
<path d="M6.45004 10.6245L2.5 19.3658H7.22875L7.81498 17.9721H9.15496L9.74119 19.3658H14.9462V18.3021L15.41 19.3658H18.1025L18.5663 18.2796V19.3658H29.3913L30.7076 18.0083L31.9401 19.3658L37.5001 19.3771L33.5375 15.0196L37.5001 10.6245H32.0263L30.745 11.957L29.5513 10.6245H17.7751L16.7639 12.8807L15.7289 10.6245H11.01V11.6521L10.4851 10.6245C10.4851 10.6245 6.45004 10.6245 6.45004 10.6245ZM7.36503 11.8658H9.67004L12.2901 17.7933V11.8658H14.8152L16.8388 16.1158L18.7039 11.8658H21.2164V18.1383H19.6876L19.6751 13.2232L17.4463 18.1383H16.0788L13.8375 13.2232V18.1383H10.6925L10.0963 16.732H6.87504L6.28004 18.137H4.59498L7.36503 11.8658ZM22.615 11.8658H28.8313L30.7325 13.9195L32.6951 11.8658H34.5963L31.7076 15.0183L34.5963 18.1346H32.6088L30.7076 16.057L28.735 18.1346H22.615V11.8658ZM8.48634 12.9271L7.42507 15.4321H9.54638L8.48634 12.9271ZM24.1501 13.1645V14.3095H27.5413V15.5858H24.1501V16.8358H27.9538L29.7213 14.9946L28.0288 13.1634H24.1501V13.1645Z" fill="white"/>
</svg>
