<svg width="16" height="20" viewBox="0 0 16 20" fill="none" xmlns="http://www.w3.org/2000/svg">
<path d="M10.6878 3.09375C11.3441 2.25 11.8128 1.125 11.6722 0C10.6878 0.046875 9.51597 0.65625 8.81285 1.45312C8.20347 2.15625 7.64097 3.32812 7.7816 4.40625C8.9066 4.54688 9.98472 3.9375 10.6878 3.09375ZM11.6722 4.6875C10.0785 4.59375 8.7191 5.57812 7.9691 5.57812C7.2191 5.57812 6.04722 4.73438 4.7816 4.73438C3.14097 4.78125 1.64097 5.67188 0.797221 7.17188C-0.890279 10.125 0.328471 14.4844 2.01597 16.875C2.81285 18.0469 3.79722 19.3594 5.06285 19.3125C6.2816 19.2656 6.75035 18.5156 8.20347 18.5156C9.6566 18.5156 10.0785 19.3125 11.391 19.2656C12.7035 19.2188 13.5472 18.0938 14.3441 16.875C15.2816 15.5156 15.6566 14.2031 15.6566 14.1563C15.6097 14.1094 13.0785 13.1719 13.0785 10.2656C13.0316 7.82813 15.0472 6.65625 15.141 6.60938C14.0628 4.92188 12.2816 4.73438 11.6722 4.6875Z" fill="black"/>
</svg>
