<svg width="411" height="775" viewBox="0 0 411 775" fill="none" xmlns="http://www.w3.org/2000/svg">
<g opacity="0.6">
<g opacity="0.2">
<g clip-path="url(#clip0)">
<path d="M371 592.471L417.181 651.886L371 711.245L420.508 775L431.673 766.375L388.875 711.245L435 651.886L388.875 592.471L435 533.056L388.875 473.642L435 414.227L388.875 354.755L431.673 299.681L420.508 291L371 354.755L417.181 414.227L371 473.642L417.181 533.056L371 592.471Z" fill="#212146"/>
</g>
</g>
<g clip-path="url(#clip1)">
<path d="M279.52 581.331L266.492 594.359L153.814 481.681L166.842 468.653L279.52 581.331Z" fill="#212146"/>
<path d="M166.933 594.311L153.905 581.283L266.583 468.605L279.611 481.633L166.933 594.311Z" fill="#212146"/>
</g>
<path d="M171.147 311.89C171.147 320.287 173.637 328.496 178.302 335.478C182.967 342.46 189.598 347.901 197.356 351.115C205.113 354.328 213.65 355.169 221.886 353.531C230.122 351.892 237.687 347.849 243.624 341.911C249.562 335.974 253.605 328.409 255.244 320.173C256.882 311.937 256.041 303.401 252.828 295.643C249.614 287.885 244.172 281.254 237.19 276.589C230.209 271.924 222 269.434 213.603 269.434C202.348 269.451 191.559 273.93 183.601 281.888C175.642 289.846 171.164 300.635 171.147 311.89ZM242.996 311.89C242.996 317.703 241.272 323.386 238.042 328.22C234.812 333.054 230.222 336.821 224.851 339.046C219.48 341.27 213.57 341.852 207.869 340.718C202.167 339.584 196.93 336.785 192.819 332.674C188.708 328.563 185.909 323.326 184.775 317.624C183.641 311.923 184.223 306.013 186.447 300.642C188.672 295.271 192.44 290.681 197.273 287.451C202.107 284.221 207.79 282.497 213.603 282.497C221.393 282.515 228.859 285.617 234.368 291.125C239.876 296.634 242.979 304.1 242.996 311.89Z" fill="#212146"/>
<g clip-path="url(#clip2)">
<path d="M13.3375 37.319C18.0631 42.0446 18.095 49.6745 13.4087 54.3608C8.72238 59.0471 1.09252 59.0152 -3.6331 54.2896C-8.35871 49.564 -8.39058 41.9341 -3.70429 37.2478C0.982005 32.5615 8.61186 32.5934 13.3375 37.319Z" fill="#212146"/>
<path d="M53.8648 77.8464C58.5904 82.572 58.6223 90.2019 53.936 94.8882C49.2497 99.5745 41.6198 99.5426 36.8942 94.817C32.1686 90.0914 32.1368 82.4615 36.8231 77.7752C41.5093 73.089 49.1392 73.1208 53.8648 77.8464Z" fill="#212146"/>
</g>
<g clip-path="url(#clip3)">
<path d="M86.2872 703.867L93.6797 711.264L86.2541 718.694L78.8616 711.297L86.2872 703.867Z" fill="#212146" fill-opacity="0.7"/>
<path d="M86.3175 675.904L93.7101 683.301L86.2845 690.731L78.892 683.334L86.3175 675.904Z" fill="#212146" fill-opacity="0.7"/>
<path d="M86.3713 647.941L93.7638 655.338L86.3383 662.768L78.9457 655.371L86.3713 647.941Z" fill="#212146" fill-opacity="0.7"/>
<path d="M86.4181 619.962L93.8107 627.359L86.3851 634.789L78.9926 627.392L86.4181 619.962Z" fill="#212146" fill-opacity="0.7"/>
<path d="M86.4882 592.016L93.8807 599.413L86.4552 606.843L79.0627 599.446L86.4882 592.016Z" fill="#212146" fill-opacity="0.7"/>
<path d="M86.5419 564.029L93.9344 571.426L86.5089 578.856L79.1164 571.459L86.5419 564.029Z" fill="#212146" fill-opacity="0.7"/>
<path d="M86.5723 536.066L93.9648 543.463L86.5393 550.894L79.1468 543.496L86.5723 536.066Z" fill="#212146" fill-opacity="0.7"/>
<path d="M86.6424 508.087L94.0349 515.484L86.6094 522.914L79.2168 515.517L86.6424 508.087Z" fill="#212146" fill-opacity="0.7"/>
<path d="M86.6892 480.141L94.0818 487.538L86.6562 494.968L79.2637 487.571L86.6892 480.141Z" fill="#212146" fill-opacity="0.7"/>
<path d="M86.743 452.155L94.1355 459.552L86.71 466.982L79.3174 459.585L86.743 452.155Z" fill="#212146" fill-opacity="0.7"/>
<path d="M86.7967 424.192L94.1892 431.589L86.7637 439.019L79.3711 431.622L86.7967 424.192Z" fill="#212146" fill-opacity="0.7"/>
<path d="M86.8436 396.213L94.2361 403.61L86.8105 411.04L79.418 403.643L86.8436 396.213Z" fill="#212146" fill-opacity="0.7"/>
<path d="M86.9137 368.266L94.3063 375.663L86.8807 383.093L79.4882 375.696L86.9137 368.266Z" fill="#212146" fill-opacity="0.7"/>
<path d="M86.944 340.304L94.3365 347.701L86.911 355.131L79.5185 347.734L86.944 340.304Z" fill="#212146" fill-opacity="0.7"/>
<path d="M86.9977 312.317L94.3903 319.714L86.9647 327.144L79.5722 319.747L86.9977 312.317Z" fill="#212146" fill-opacity="0.7"/>
<path d="M58.3141 703.926L65.7067 711.323L58.2811 718.753L50.8886 711.356L58.3141 703.926Z" fill="#212146" fill-opacity="0.7"/>
<path d="M58.3678 675.963L65.7604 683.36L58.3348 690.79L50.9423 683.393L58.3678 675.963Z" fill="#212146" fill-opacity="0.7"/>
<path d="M58.4146 647.984L65.8071 655.381L58.3816 662.811L50.9891 655.414L58.4146 647.984Z" fill="#212146" fill-opacity="0.7"/>
<path d="M58.4848 620.014L65.8773 627.411L58.4518 634.841L51.0592 627.444L58.4848 620.014Z" fill="#212146" fill-opacity="0.7"/>
<path d="M58.5385 592.051L65.931 599.448L58.5055 606.878L51.113 599.481L58.5385 592.051Z" fill="#212146" fill-opacity="0.7"/>
<path d="M58.5689 564.088L65.9614 571.485L58.5359 578.916L51.1433 571.518L58.5689 564.088Z" fill="#212146" fill-opacity="0.7"/>
<path d="M58.6391 536.109L66.0316 543.506L58.6061 550.936L51.2136 543.539L58.6391 536.109Z" fill="#212146" fill-opacity="0.7"/>
<path d="M58.6858 508.163L66.0784 515.56L58.6528 522.99L51.2603 515.593L58.6858 508.163Z" fill="#212146" fill-opacity="0.7"/>
<path d="M58.7395 480.177L66.1321 487.574L58.7065 495.004L51.314 487.607L58.7395 480.177Z" fill="#212146" fill-opacity="0.7"/>
<path d="M58.7933 452.214L66.1858 459.611L58.7603 467.041L51.3677 459.644L58.7933 452.214Z" fill="#212146" fill-opacity="0.7"/>
<path d="M58.84 424.235L66.2325 431.632L58.807 439.062L51.4145 431.665L58.84 424.235Z" fill="#212146" fill-opacity="0.7"/>
<path d="M58.9102 396.288L66.3027 403.685L58.8772 411.115L51.4847 403.718L58.9102 396.288Z" fill="#212146" fill-opacity="0.7"/>
<path d="M58.9406 368.325L66.3331 375.722L58.9076 383.152L51.515 375.755L58.9406 368.325Z" fill="#212146" fill-opacity="0.7"/>
<path d="M58.9943 340.339L66.3868 347.736L58.9613 355.166L51.5688 347.769L58.9943 340.339Z" fill="#212146" fill-opacity="0.7"/>
<path d="M59.0645 312.36L66.457 319.757L59.0315 327.187L51.639 319.79L59.0645 312.36Z" fill="#212146" fill-opacity="0.7"/>
<path d="M30.3643 703.985L37.7568 711.382L30.3313 718.812L22.9388 711.415L30.3643 703.985Z" fill="#212146" fill-opacity="0.7"/>
<path d="M30.4112 676.005L37.8037 683.402L30.3782 690.832L22.9856 683.435L30.4112 676.005Z" fill="#212146" fill-opacity="0.7"/>
<path d="M30.4814 648.036L37.8739 655.433L30.4484 662.863L23.0558 655.466L30.4814 648.036Z" fill="#212146" fill-opacity="0.7"/>
<path d="M30.5351 620.073L37.9276 627.47L30.5021 634.9L23.1095 627.503L30.5351 620.073Z" fill="#212146" fill-opacity="0.7"/>
<path d="M30.5654 592.11L37.9579 599.507L30.5323 606.937L23.1398 599.54L30.5654 592.11Z" fill="#212146" fill-opacity="0.7"/>
<path d="M30.6355 564.131L38.0281 571.528L30.6025 578.958L23.21 571.561L30.6355 564.131Z" fill="#212146" fill-opacity="0.7"/>
<path d="M30.6824 536.185L38.075 543.582L30.6494 551.012L23.2569 543.615L30.6824 536.185Z" fill="#212146" fill-opacity="0.7"/>
<path d="M30.7361 508.199L38.1287 515.596L30.7031 523.026L23.3106 515.629L30.7361 508.199Z" fill="#212146" fill-opacity="0.7"/>
<path d="M30.7898 480.236L38.1824 487.633L30.7568 495.063L23.3643 487.666L30.7898 480.236Z" fill="#212146" fill-opacity="0.7"/>
<path d="M30.8366 452.256L38.2291 459.653L30.8036 467.083L23.4111 459.686L30.8366 452.256Z" fill="#212146" fill-opacity="0.7"/>
<path d="M30.9068 424.31L38.2993 431.707L30.8738 439.137L23.4812 431.74L30.9068 424.31Z" fill="#212146" fill-opacity="0.7"/>
<path d="M30.9372 396.347L38.3297 403.744L30.9042 411.174L23.5116 403.777L30.9372 396.347Z" fill="#212146" fill-opacity="0.7"/>
<path d="M30.9908 368.361L38.3833 375.758L30.9578 383.188L23.5652 375.791L30.9908 368.361Z" fill="#212146" fill-opacity="0.7"/>
<path d="M31.061 340.382L38.4535 347.779L31.028 355.209L23.6354 347.812L31.061 340.382Z" fill="#212146" fill-opacity="0.7"/>
<path d="M31.1078 312.435L38.5004 319.832L31.0748 327.262L23.6823 319.865L31.1078 312.435Z" fill="#212146" fill-opacity="0.7"/>
<path d="M2.40776 704.027L9.80029 711.424L2.37476 718.854L-5.01778 711.457L2.40776 704.027Z" fill="#212146" fill-opacity="0.7"/>
<path d="M2.47783 676.058L9.87036 683.455L2.44483 690.885L-4.94771 683.488L2.47783 676.058Z" fill="#212146" fill-opacity="0.7"/>
<path d="M2.53154 648.095L9.92407 655.492L2.49853 662.922L-4.89401 655.525L2.53154 648.095Z" fill="#212146" fill-opacity="0.7"/>
<path d="M2.56193 620.132L9.95447 627.529L2.52893 634.959L-4.86361 627.562L2.56193 620.132Z" fill="#212146" fill-opacity="0.7"/>
<path d="M2.63213 592.153L10.0247 599.55L2.59913 606.98L-4.7934 599.583L2.63213 592.153Z" fill="#212146" fill-opacity="0.7"/>
<path d="M2.67888 564.206L10.0714 571.604L2.64588 579.034L-4.74665 571.637L2.67888 564.206Z" fill="#212146" fill-opacity="0.7"/>
<path d="M2.73259 536.22L10.1251 543.617L2.69959 551.047L-4.69295 543.65L2.73259 536.22Z" fill="#212146" fill-opacity="0.7"/>
<path d="M2.7863 508.258L10.1788 515.655L2.75329 523.085L-4.63924 515.688L2.7863 508.258Z" fill="#212146" fill-opacity="0.7"/>
<path d="M2.83316 480.278L10.2257 487.675L2.80017 495.105L-4.59238 487.708L2.83316 480.278Z" fill="#212146" fill-opacity="0.7"/>
<path d="M2.90336 452.332L10.2959 459.729L2.87037 467.159L-4.52217 459.762L2.90336 452.332Z" fill="#212146" fill-opacity="0.7"/>
<path d="M2.93365 424.346L10.3262 431.743L2.90064 439.173L-4.49189 431.776L2.93365 424.346Z" fill="#212146" fill-opacity="0.7"/>
<path d="M2.98735 396.383L10.3799 403.78L2.95434 411.21L-4.43819 403.813L2.98735 396.383Z" fill="#212146" fill-opacity="0.7"/>
<path d="M3.05755 368.403L10.4501 375.8L3.02454 383.23L-4.36799 375.833L3.05755 368.403Z" fill="#212146" fill-opacity="0.7"/>
<path d="M3.1043 340.457L10.4968 347.854L3.07129 355.284L-4.32124 347.887L3.1043 340.457Z" fill="#212146" fill-opacity="0.7"/>
<path d="M3.15813 312.494L10.5507 319.891L3.12512 327.321L-4.2674 319.924L3.15813 312.494Z" fill="#212146" fill-opacity="0.7"/>
</g>
<path d="M198.351 57.74C197.881 59.0018 197.314 60.2256 196.655 61.4003L186.394 71.6551C185.221 72.3133 184 72.8804 182.74 73.3513L198.351 57.74Z" fill="#212146" fill-opacity="0.7"/>
<path d="M200 48.9553C200 49.6576 199.953 50.354 199.887 51.0384L176.039 74.8869C175.354 74.9524 174.658 75 173.956 75L200 48.9553Z" fill="#212146" fill-opacity="0.7"/>
<path d="M199.327 42.5037C199.452 43.0453 199.56 43.5928 199.655 44.1404L169.14 74.6548C168.593 74.5596 168.045 74.4524 167.504 74.3274L199.327 42.5037Z" fill="#212146" fill-opacity="0.7"/>
<path d="M197.5 37.2067C197.708 37.653 197.905 38.1113 198.095 38.5756L163.575 73.0955C163.111 72.905 162.653 72.7086 162.207 72.5003L197.5 37.2067Z" fill="#212146" fill-opacity="0.7"/>
<path d="M194.834 32.7429C195.114 33.1238 195.381 33.5106 195.643 33.9332L158.897 70.6433C158.505 70.3815 158.118 70.1136 157.707 69.8339L194.834 32.7429Z" fill="#212146" fill-opacity="0.7"/>
<path d="M192.459 29.9515L154.963 67.4473C154.63 67.1259 154.309 66.7926 153.993 66.4534L191.489 28.9576C191.805 29.2968 192.138 29.6182 192.459 29.9515Z" fill="#212146" fill-opacity="0.7"/>
<path d="M187.418 25.9043C187.817 26.1543 188.216 26.4162 188.608 26.684L151.708 63.5846C151.44 63.1977 151.178 62.799 150.928 62.3943L187.418 25.9043Z" fill="#212146" fill-opacity="0.7"/>
<path d="M182.627 23.5713C183.097 23.7439 183.561 23.9343 184.026 24.1307L149.131 59.0256C148.934 58.5614 148.744 58.0971 148.571 57.627L182.627 23.5713Z" fill="#212146" fill-opacity="0.7"/>
<path d="M176.889 22.1786C177.461 22.25 178.026 22.3393 178.586 22.4464L147.446 53.5739C147.339 53.0144 147.25 52.449 147.179 51.8776L176.889 22.1786Z" fill="#212146" fill-opacity="0.7"/>
<path d="M169.718 22.2202C170.438 22.119 171.164 22.0417 171.902 22L147 46.9019C147.042 46.1639 147.119 45.4378 147.22 44.7177L169.718 22.2202Z" fill="#212146" fill-opacity="0.7"/>
<path d="M157.523 27.2911C159.038 26.147 160.672 25.1693 162.397 24.3748L149.375 37.3971C150.167 35.6713 151.145 34.0369 152.291 32.5226L157.523 27.2911Z" fill="#212146" fill-opacity="0.7"/>
<path d="M254.713 122L242.437 112.619L230.173 122L217 111.944L218.782 109.676L230.173 118.369L242.437 109L254.713 118.369L266.988 109L279.264 118.369L291.54 109L303.827 118.369L315.206 109.676L317 111.944L303.827 122L291.54 112.619L279.264 122L266.988 112.619L254.713 122Z" fill="#212146" fill-opacity="0.7"/>
</g>
<defs>
<clipPath id="clip0">
<rect width="484" height="64" transform="matrix(0 -1 -1 0 435 775)" fill="white"/>
</clipPath>
<clipPath id="clip1">
<rect width="125.736" height="125.736" transform="matrix(4.37114e-08 -1 -1 -4.37114e-08 279.555 594.347)" fill="white"/>
</clipPath>
<clipPath id="clip2">
<rect width="138.783" height="24" transform="matrix(0.707107 0.707107 0.707107 -0.707107 -52.6835 5.23923)" fill="white"/>
</clipPath>
<clipPath id="clip3">
<rect width="406.601" height="127.369" transform="matrix(4.37114e-08 -1 -1 -4.37114e-08 94.3987 718.91)" fill="white"/>
</clipPath>
</defs>
</svg>
