<svg width="33" height="33" viewBox="0 0 33 33" fill="none" xmlns="http://www.w3.org/2000/svg">
<g clip-path="url(#clip0)">
<path d="M31.0362 22.3673L32.9708 10.015C33.1719 8.76151 32.319 7.58209 31.0655 7.38035L4.96127 3.19052C3.70779 2.98936 2.52842 3.84227 2.32727 5.09575L1.39966 10.8725V22.2955L31.0362 22.3673Z" fill="#146AA8"/>
<path d="M31.0654 7.38035L23.6513 6.19067C18.6717 13.81 10.6218 19.0873 4.44849 22.303L31.0361 22.3673L32.9707 10.015C33.1718 8.76145 32.3189 7.58209 31.0654 7.38035Z" fill="#126099"/>
<path d="M2.29897 10.2976H28.7371C30.0067 10.2976 31.0361 11.327 31.0361 12.5966V27.5399C31.0361 28.8095 30.0067 29.8389 28.7371 29.8389H2.29897C1.02938 29.8388 0 28.8095 0 27.5399V12.5966C0 11.327 1.02938 10.2976 2.29897 10.2976Z" fill="#4398D1"/>
<path d="M28.7372 10.2976H28.2774C22.8518 19.9297 12.714 26.5369 6.52515 29.8388H28.7372C30.0068 29.8388 31.0362 28.8094 31.0362 27.5398V12.5966C31.0362 11.327 30.0068 10.2976 28.7372 10.2976Z" fill="#3E8CC7"/>
<path d="M8.62118 13.1714H2.87378V17.7693H8.62118V13.1714Z" fill="#FDB62F"/>
<path d="M4.59803 14.8958H2.87378V16.0452H4.59803V14.8958Z" fill="#FD7B2F"/>
<path d="M8.62146 14.8958H6.89722V16.0452H8.62146V14.8958Z" fill="#FD7B2F"/>
<path d="M25.2887 26.9652C26.8758 26.9652 28.1624 25.6786 28.1624 24.0915C28.1624 22.5044 26.8758 21.2178 25.2887 21.2178C23.7016 21.2178 22.415 22.5044 22.415 24.0915C22.415 25.6786 23.7016 26.9652 25.2887 26.9652Z" fill="#FDB62F"/>
<path d="M21.8403 26.9652C23.4274 26.9652 24.714 25.6786 24.714 24.0915C24.714 22.5044 23.4274 21.2178 21.8403 21.2178C20.2532 21.2178 18.9666 22.5044 18.9666 24.0915C18.9666 25.6786 20.2532 26.9652 21.8403 26.9652Z" fill="#DE4C3C"/>
<path d="M5.7475 21.7925H2.29907V22.9419H5.7475V21.7925Z" fill="#87CED9"/>
<path d="M11.4951 21.7925H8.04663V22.9419H11.4951V21.7925Z" fill="#87CED9"/>
<path d="M17.2426 21.7925H13.7942V22.9419H17.2426V21.7925Z" fill="#87CED9"/>
<path d="M17.2424 25.241H2.29907V26.3904H17.2424V25.241Z" fill="#87CED9"/>
<path d="M21.2654 13.1714H20.116V15.4704H21.2654V13.1714Z" fill="#87CED9"/>
<path d="M23.5645 13.1714H22.415V15.4704H23.5645V13.1714Z" fill="#87CED9"/>
<path d="M25.8633 13.1714H24.7139V15.4704H25.8633V13.1714Z" fill="#87CED9"/>
<path d="M28.1624 13.1714H27.0129V15.4704H28.1624V13.1714Z" fill="#87CED9"/>
</g>
<defs>
<clipPath id="clip0">
<rect width="33" height="33" fill="white"/>
</clipPath>
</defs>
</svg>
