<svg width="15" height="10" viewBox="0 0 15 10" fill="none" xmlns="http://www.w3.org/2000/svg">
<path d="M7.5 0C4.09091 0 1.17955 2.07333 0 5C1.17955 7.92667 4.09091 10 7.5 10C10.9091 10 13.8205 7.92667 15 5C13.8205 2.07333 10.9091 0 7.5 0ZM7.5 8.33333C5.61818 8.33333 4.09091 6.84 4.09091 5C4.09091 3.16 5.61818 1.66667 7.5 1.66667C9.38182 1.66667 10.9091 3.16 10.9091 5C10.9091 6.84 9.38182 8.33333 7.5 8.33333ZM7.5 3C6.36818 3 5.45455 3.89333 5.45455 5C5.45455 6.10667 6.36818 7 7.5 7C8.63182 7 9.54545 6.10667 9.54545 5C9.54545 3.89333 8.63182 3 7.5 3Z" fill="white" fill-opacity="0.2"/>
</svg>
