<svg width="37" height="37" viewBox="0 0 37 37" fill="none" xmlns="http://www.w3.org/2000/svg">
<g clip-path="url(#clip0)">
<path d="M34.4821 0.888916H2.85015C1.76698 0.889459 0.888889 1.76809 0.88916 2.85154V34.4835C0.889703 35.5666 1.76834 36.4447 2.85178 36.4445H34.4821C35.5658 36.4447 36.4444 35.5664 36.4447 34.4827C36.4447 34.4824 36.4447 34.4821 36.4447 34.4818V2.84991C36.4442 1.76674 35.5655 0.888645 34.4821 0.888916Z" fill="#4267B2"/>
<path d="M20.9934 36.4445V22.6945H25.6288L26.3233 17.3125H20.9934V13.8848C20.9934 12.3302 21.425 11.2709 23.6543 11.2709H26.4795V6.47026C25.988 6.40488 24.3015 6.25867 22.3392 6.25867C18.242 6.25867 15.4379 8.75867 15.4379 13.3518V17.3125H10.8198V22.6945H15.4379V36.4445H20.9934Z" fill="white"/>
</g>
<defs>
<clipPath id="clip0">
<rect x="0.88916" y="0.888916" width="35.5556" height="35.5556" rx="16" fill="white"/>
</clipPath>
</defs>
</svg>
