<svg width="53" height="53" viewBox="0 0 53 53" fill="none" xmlns="http://www.w3.org/2000/svg">
<g clip-path="url(#clip0)">
<path d="M26.5506 26.5H0.697148C0.283894 26.9618 0.0691799 27.5756 0.107998 28.1939C0.630833 36.4719 5.01407 43.9853 11.8635 48.5549C12.3592 48.8857 12.9908 49.0244 13.6216 48.8921C13.6216 48.8925 13.6216 48.8929 13.622 48.8934L26.5506 26.5Z" fill="#FFA000"/>
<path d="M13.6216 4.10669C13.6216 4.10709 13.6216 4.10709 13.6212 4.1075C13.0155 3.98053 12.3778 4.10184 11.8635 4.44514C5.02014 9.01115 0.631237 16.5213 0.107998 24.8062C0.0691799 25.4244 0.283894 26.0383 0.697148 26.5H26.5506L13.6216 4.10669Z" fill="#FFA000"/>
<path d="M39.4795 4.10665C39.2875 3.51912 38.8661 3.02701 38.3138 2.75286C30.9213 -0.916285 22.1864 -0.919116 14.7878 2.75286C14.2351 3.02701 13.8141 3.51912 13.6221 4.10665L26.5506 26.5L39.4795 4.10665Z" fill="#FFA000"/>
<path d="M13.6221 48.8933C13.8141 49.4809 14.2351 49.973 14.7878 50.2471C22.1799 53.9159 30.9152 53.9191 38.3138 50.2471C39.5119 49.6527 39.9526 48.1606 39.2842 47.0022L27.8951 27.2764L26.5506 26.5L13.6221 48.8933Z" fill="#FFA000"/>
<path d="M52.9931 24.8062C52.4707 16.5278 48.087 9.01478 41.238 4.44514C40.7237 4.10184 40.086 3.98053 39.4799 4.1075C39.4799 4.10709 39.4795 4.10669 39.4795 4.10669L26.5505 26.5L27.895 27.2764H50.6681C52.0093 27.2764 53.0776 26.1426 52.9931 24.8062Z" fill="#FFA000"/>
<path d="M21.2154 26.5L9.50562 46.7822C10.2585 47.4166 11.0458 48.0094 11.8634 48.5549C12.3592 48.8857 12.9908 49.0244 13.6212 48.8921C13.6216 48.8925 13.6216 48.8929 13.6216 48.8934L26.5505 26.5H21.2154Z" fill="#F57C00"/>
<path d="M13.6216 4.10669C13.6216 4.10709 13.6216 4.10709 13.6212 4.1075C13.0155 3.98053 12.3778 4.10184 11.8635 4.44514C11.6245 4.60445 11.3892 4.76862 11.1559 4.93603L22.4108 24.4301H0.137516C0.127812 24.5555 0.116085 24.6808 0.107998 24.8062C0.0691799 25.4244 0.283894 26.0383 0.697148 26.5H26.5506L13.6216 4.10669Z" fill="#F57C00"/>
<path d="M38.3138 2.75288C37.2321 2.21629 36.1258 1.75937 34.9985 1.37927C35.1448 1.57781 35.2621 1.79859 35.3397 2.03635L23.8831 21.8798L26.5506 26.5L39.4795 4.10667C39.2875 3.51913 38.8661 3.02703 38.3138 2.75288Z" fill="#F57C00"/>
<path d="M39.2843 47.0026L27.8951 27.2764L26.5506 26.5L25.5264 28.2739L35.1445 44.9323C35.8129 46.0903 35.3717 47.5824 34.174 48.1772C27.6384 51.421 20.2956 51.687 13.9634 49.5508C14.1785 49.8424 14.4591 50.0842 14.7879 50.2471C18.4627 52.0712 22.4205 52.996 26.551 52.996C30.6816 52.996 34.639 52.0712 38.3138 50.2471C39.5119 49.6527 39.9527 48.1606 39.2843 47.0026V47.0026Z" fill="#F57C00"/>
<path d="M52.9931 24.8062C52.4707 16.5278 48.087 9.01478 41.238 4.44514C40.7237 4.10184 40.086 3.98053 39.4799 4.1075C39.4799 4.10709 39.4795 4.10669 39.4795 4.10669L39.4556 4.14793C45.0596 8.87002 48.4012 15.5767 48.8533 22.7363C48.9374 24.0723 47.8695 25.2061 46.5278 25.2061H27.2978L26.5505 26.5L27.895 27.2764H50.6681C52.0093 27.2764 53.0776 26.1426 52.9931 24.8062Z" fill="#F57C00"/>
<path d="M5.09656 26.5C5.09656 27.783 4.79733 29.0762 5.01164 30.2981C5.23161 31.5545 5.95824 32.6677 6.38484 33.8395C6.81912 35.0328 6.98167 36.351 7.60924 37.4355C8.24286 38.5305 9.30673 39.3279 10.1154 40.2906C10.9266 41.2558 11.5287 42.4414 12.4939 43.2521C13.4567 44.0609 14.7271 44.4494 15.8217 45.0827L26.5506 26.5H5.09656Z" fill="#FFE082"/>
<path d="M21.2154 26.5L11.8901 42.6525C12.0774 42.8668 12.2763 43.0694 12.4938 43.2521C13.4566 44.0609 14.7271 44.4494 15.8217 45.0827L26.5505 26.5H21.2154Z" fill="#FFCA28"/>
<path d="M15.8218 45.0827C16.9026 45.707 17.8751 46.62 19.0696 47.0547C20.2418 47.4813 21.5673 47.4114 22.824 47.6313C24.046 47.8456 25.2676 48.3681 26.5506 48.3681C27.834 48.3681 29.0556 47.8456 30.2776 47.6313C31.5339 47.4114 32.8598 47.4813 34.032 47.0547C34.6212 46.84 35.1562 46.5097 35.677 46.1542C36.5746 45.5424 36.8532 44.3459 36.3102 43.405C33.6713 38.8341 26.5506 26.5 26.5506 26.5L15.8218 45.0827Z" fill="#FFE082"/>
<path d="M26.5507 26.5L25.0784 29.0503L33.1397 43.0128C31.779 43.8502 31.0015 44.5809 29.8923 44.9848C28.7201 45.4114 27.3942 45.3415 26.1374 45.5614C24.9155 45.7753 23.6939 46.2982 22.4109 46.2982C21.1279 46.2982 19.9063 45.7753 18.6843 45.5614C17.8428 45.4142 16.9702 45.3965 16.134 45.2727C17.0964 45.8825 17.9921 46.6625 19.0697 47.0547C20.2419 47.4813 21.5678 47.4114 22.8245 47.6317C24.0461 47.8456 25.2677 48.3681 26.5511 48.3681C27.8341 48.3681 29.0557 47.8456 30.2777 47.6317C31.534 47.4114 32.8599 47.4813 34.0321 47.0547C34.6213 46.8404 35.1562 46.5097 35.6771 46.1546C36.5747 45.5424 36.8537 44.3459 36.3107 43.4054C33.6714 38.8341 26.5507 26.5 26.5507 26.5V26.5Z" fill="#FFCA28"/>
<path d="M15.8217 7.9173C14.7271 8.55052 13.4567 8.93911 12.4939 9.74783C11.5283 10.5586 10.9262 11.7441 10.1154 12.7097C9.30673 13.6725 8.24246 14.4699 7.60924 15.5645C6.98167 16.649 6.81912 17.9676 6.38484 19.1605C5.95824 20.3327 5.23161 21.4455 5.01164 22.7018C4.79733 23.9238 5.09656 25.2169 5.09656 26.5H26.5506L15.8217 7.9173Z" fill="#FFE082"/>
<path d="M15.8216 7.9173C15.0901 8.34026 14.2802 8.65485 13.5358 9.05799L20.6181 21.325C21.4147 22.7051 20.4187 24.4301 18.8252 24.4301H4.96338C5.01028 25.1142 5.09641 25.8085 5.09641 26.5H26.5504L15.8216 7.9173Z" fill="#FFCA28"/>
<path d="M34.0321 5.94525C32.8599 5.51865 31.534 5.58861 30.2777 5.36864C29.0557 5.15433 27.8341 4.6319 26.5507 4.6319C25.2677 4.6319 24.0461 5.15433 22.8241 5.36864C21.5678 5.58861 20.2419 5.51865 19.0697 5.94525C17.8768 6.37953 16.9072 7.28934 15.8227 7.9169C15.8223 7.9169 15.8223 7.9173 15.8223 7.9173L26.5507 26.5L37.2795 7.9173L37.2791 7.9169C36.1946 7.28934 35.225 6.37953 34.0321 5.94525V5.94525Z" fill="#FFE082"/>
<path d="M37.279 7.91693C36.1945 7.28937 35.2249 6.37956 34.032 5.94528C33.7656 5.84824 33.4906 5.77828 33.2108 5.72369L23.8831 21.8798L26.5506 26.5L37.2794 7.91734L37.279 7.91693Z" fill="#FFCA28"/>
<path d="M46.4373 26.5C47.301 26.5 48.0211 25.8388 48.0947 24.9776C48.161 24.2052 48.2193 23.4406 48.0899 22.7018C47.8699 21.4455 47.1429 20.3323 46.7163 19.1605C46.282 17.9672 46.1198 16.649 45.4923 15.5641C44.8587 14.4695 43.7948 13.6721 42.9861 12.7093C42.1749 11.7437 41.5728 10.5586 40.6072 9.74783C39.6449 8.93911 38.3744 8.55052 37.2794 7.9173L26.5505 26.5H37.004V31.6814C37.0036 32.7408 37.8624 33.5993 38.9219 33.5993C40.1471 33.5993 40.9578 32.6579 40.9578 31.6224V30.9103C40.9578 30.2302 41.5094 29.679 42.1895 29.679C42.8696 29.679 43.4212 30.2302 43.4212 30.9103V36.4431C43.4212 37.2761 44.0964 37.9514 44.929 37.9514C45.762 37.9514 46.4373 37.2761 46.4373 36.4431V26.5Z" fill="#FFE082"/>
<path d="M48.0899 22.7018C47.8699 21.4455 47.1429 20.3323 46.7163 19.1605C46.282 17.9672 46.1198 16.649 45.4923 15.5641C44.8587 14.4695 43.7948 13.6721 42.9861 12.7093C42.1749 11.7437 41.5728 10.5586 40.6072 9.74783C39.6449 8.93911 38.3744 8.55052 37.2794 7.9173L37.0715 8.27758C37.7149 9.01311 38.2179 9.89178 38.8458 10.6394C39.6546 11.6022 40.7188 12.3996 41.3521 13.4942C41.9796 14.5787 42.1422 15.8973 42.5765 17.0902C43.0031 18.2624 43.7301 19.3752 43.9501 20.6319C43.9521 20.6441 43.9541 20.6562 43.9561 20.6687C44.2853 22.6424 42.7309 24.4301 40.7302 24.4301H27.7458L26.5505 26.5H42.2974V29.6843C42.927 29.7389 43.4212 30.2666 43.4212 30.9103V36.4435C43.4212 37.2765 44.0964 37.9514 44.929 37.9514C45.762 37.9514 46.4373 37.2761 46.4373 36.4435V26.5C47.3006 26.5 48.0211 25.8388 48.0947 24.9776C48.161 24.2052 48.2193 23.4406 48.0899 22.7018V22.7018Z" fill="#FFCA28"/>
<path d="M27.3185 41.4172C27.3185 43.1167 25.9408 44.4939 24.2417 44.4939C22.5422 44.4939 21.1646 43.1167 21.1646 41.4172C21.1646 39.7176 22.5422 38.3404 24.2417 38.3404C25.9408 38.3404 27.3185 39.7176 27.3185 41.4172V41.4172Z" fill="#EF5350"/>
<path d="M17.7251 36.5378C17.7251 38.2373 16.3478 39.615 14.6483 39.615C12.9488 39.615 11.5715 38.2373 11.5715 36.5378C11.5715 34.8387 12.9488 33.4611 14.6483 33.4611C16.3478 33.4611 17.7251 34.8387 17.7251 36.5378Z" fill="#EF5350"/>
<path d="M20.2572 20.6889C20.2572 22.3885 18.8795 23.7661 17.18 23.7661C15.4809 23.7661 14.1033 22.3885 14.1033 20.6889C14.1033 18.9898 15.4809 17.6122 17.18 17.6122C18.8795 17.6122 20.2572 18.9898 20.2572 20.6889Z" fill="#EF5350"/>
<path d="M26.7176 10.2626C26.7176 11.9621 25.34 13.3398 23.6405 13.3398C21.941 13.3398 20.5637 11.9621 20.5637 10.2626C20.5637 8.5635 21.941 7.18585 23.6405 7.18585C25.34 7.18585 26.7176 8.5635 26.7176 10.2626Z" fill="#EF5350"/>
<path d="M40.2337 14.0712C40.2337 14.9207 39.5446 15.6098 38.6951 15.6098C37.8455 15.6098 37.1565 14.9207 37.1565 14.0712C37.1565 13.2212 37.8455 12.5326 38.6951 12.5326C39.5446 12.5326 40.2337 13.2212 40.2337 14.0712Z" fill="#FF6F00"/>
<path d="M35.2821 22.0613C35.2821 22.9108 34.5935 23.5999 33.7435 23.5999C32.8939 23.5999 32.2053 22.9108 32.2053 22.0613C32.2053 21.2117 32.8939 20.5227 33.7435 20.5227C34.5935 20.5227 35.2821 21.2117 35.2821 22.0613Z" fill="#FF6F00"/>
<path d="M33.4771 9.45547C33.4771 10.3054 32.7885 10.9941 31.9386 10.9941C31.089 10.9941 30.4004 10.3054 30.4004 9.45547C30.4004 8.60592 31.089 7.9173 31.9386 7.9173C32.7885 7.9173 33.4771 8.60592 33.4771 9.45547Z" fill="#FF6F00"/>
<path d="M28.089 17.968C28.089 18.8176 27.4003 19.5062 26.5504 19.5062C25.7008 19.5062 25.0122 18.8176 25.0122 17.968C25.0122 17.1181 25.7008 16.4294 26.5504 16.4294C27.4003 16.4294 28.089 17.1181 28.089 17.968Z" fill="#FF6F00"/>
<path d="M10.8492 22.6824C10.8492 23.5319 10.1606 24.2206 9.31064 24.2206C8.46108 24.2206 7.77246 23.5319 7.77246 22.6824C7.77246 21.8324 8.46108 21.1438 9.31064 21.1438C10.1606 21.1438 10.8492 21.8324 10.8492 22.6824Z" fill="#FF6F00"/>
<path d="M19.6853 29.9803C19.6853 30.8303 18.9963 31.5189 18.1467 31.5189C17.2968 31.5189 16.6082 30.8303 16.6082 29.9803C16.6082 29.1308 17.2968 28.4421 18.1467 28.4421C18.9963 28.4421 19.6853 29.1308 19.6853 29.9803V29.9803Z" fill="#FF6F00"/>
<path d="M16.1237 12.9079C15.8855 12.0923 15.0311 11.6244 14.2155 11.863C13.3999 12.1012 12.9321 12.9556 13.1703 13.7712C13.4088 14.5868 14.2632 15.0546 15.0788 14.816C15.8944 14.5779 16.3623 13.7234 16.1237 12.9079Z" fill="#FF6F00"/>
<path d="M11.4032 31.1153C11.4032 31.9653 10.7146 32.6539 9.865 32.6539C9.01504 32.6539 8.32642 31.9653 8.32642 31.1153C8.32642 30.2657 9.01504 29.5767 9.865 29.5767C10.7146 29.5767 11.4032 30.2657 11.4032 31.1153V31.1153Z" fill="#FF6F00"/>
<path d="M33.0718 42.9557C33.0718 43.8053 32.3828 44.4943 31.5332 44.4943C30.6837 44.4943 29.9946 43.8053 29.9946 42.9557C29.9946 42.1057 30.6837 41.4171 31.5332 41.4171C32.3828 41.4171 33.0718 42.1057 33.0718 42.9557V42.9557Z" fill="#FF6F00"/>
<path d="M28.089 34.1925C28.089 35.0421 27.4003 35.7311 26.5504 35.7311C25.7008 35.7311 25.0122 35.0421 25.0122 34.1925C25.0122 33.3426 25.7008 32.6539 26.5504 32.6539C27.4003 32.6539 28.089 33.3426 28.089 34.1925Z" fill="#FF6F00"/>
<path d="M44.3868 20.896C44.3868 22.5955 43.0092 23.9731 41.3101 23.9731C39.6106 23.9731 38.2329 22.5955 38.2329 20.896C38.2329 19.1969 39.6106 17.8192 41.3101 17.8192C43.0092 17.8192 44.3868 19.1969 44.3868 20.896Z" fill="#EF5350"/>
<path d="M24.8822 38.4075C25.1159 38.841 25.2485 39.3372 25.2485 39.8648C25.2485 41.8171 23.4503 43.2809 21.5312 42.8745C22.0508 43.8385 23.0694 44.4939 24.2417 44.4939C25.9412 44.4939 27.3184 43.1167 27.3184 41.4172C27.3184 39.9376 26.274 38.7023 24.8822 38.4075Z" fill="#D32F2F"/>
<path d="M15.2889 33.5281C15.5226 33.962 15.6553 34.4582 15.6553 34.9854C15.6553 36.6846 14.2776 38.0622 12.5785 38.0622C12.3589 38.0622 12.1446 38.0387 11.938 37.9951C12.4576 38.9595 13.4762 39.6149 14.6484 39.6149C16.3479 39.6149 17.7252 38.2373 17.7252 36.5378C17.7252 35.0582 16.6807 33.8229 15.2889 33.5281V33.5281Z" fill="#D32F2F"/>
<path d="M17.8204 17.6793C18.0541 18.1132 18.1871 18.6093 18.1871 19.1366C18.1871 20.8361 16.8095 22.2134 15.11 22.2134C14.8904 22.2134 14.6761 22.1899 14.4695 22.1463C14.9891 23.1107 16.0081 23.7661 17.1799 23.7661C18.8794 23.7661 20.2571 22.3885 20.2571 20.689C20.2571 19.2094 19.2122 17.9741 17.8204 17.6793Z" fill="#D32F2F"/>
<path d="M24.2808 7.25299C24.5146 7.68687 24.6476 8.18301 24.6476 8.7103C24.6476 10.4094 23.27 11.7871 21.5704 11.7871C21.3509 11.7871 21.1366 11.7636 20.9299 11.7199C21.4495 12.6843 22.4685 13.3398 23.6403 13.3398C25.3399 13.3398 26.7175 11.9621 26.7175 10.2626C26.7175 8.78308 25.6726 7.54777 24.2808 7.25299Z" fill="#D32F2F"/>
<path d="M41.95 17.8864C42.1838 18.3202 42.3168 18.8164 42.3168 19.3437C42.3168 21.0428 40.9391 22.4204 39.2396 22.4204C39.0201 22.4204 38.8062 22.397 38.5991 22.3533C39.1187 23.3177 40.1377 23.9732 41.3099 23.9732C43.009 23.9732 44.3867 22.5955 44.3867 20.896C44.3867 19.4164 43.3422 18.1811 41.95 17.8864V17.8864Z" fill="#D32F2F"/>
</g>
<defs>
<clipPath id="clip0">
<rect width="53" height="53" fill="white"/>
</clipPath>
</defs>
</svg>
