<svg width="20" height="20" viewBox="0 0 20 20" fill="none" xmlns="http://www.w3.org/2000/svg">
<path d="M19.5652 10.2082C19.566 9.52801 19.5085 8.84904 19.3933 8.17871H9.98071V12.0228H15.3718C15.2615 12.6367 15.028 13.222 14.6854 13.7432C14.3428 14.2645 13.8982 14.711 13.3784 15.0559V17.5511H16.5959C18.4798 15.8141 19.5652 13.2454 19.5652 10.2082Z" fill="#4285F4"/>
<path d="M9.98092 19.9618C12.6744 19.9618 14.9423 19.0774 16.5961 17.5525L13.3786 15.0573C12.4831 15.6645 11.3297 16.011 9.98092 16.011C7.37756 16.011 5.16789 14.256 4.37774 11.8911H1.06323V14.4626C1.89396 16.1157 3.16779 17.5053 4.74251 18.4764C6.31723 19.4474 8.13086 19.9617 9.98092 19.9618Z" fill="#34A853"/>
<path d="M4.37754 11.891C3.95981 10.6517 3.95981 9.30974 4.37754 8.0705V5.49902H1.06304C0.364199 6.88964 0.000244141 8.42441 0.000244141 9.98074C0.000244141 11.5371 0.364199 13.0718 1.06304 14.4625L4.37754 11.891Z" fill="#FBBC04"/>
<path d="M9.98092 3.95071C11.4043 3.92746 12.7797 4.46525 13.8097 5.44785L16.6584 2.59912C14.8521 0.902471 12.459 -0.029021 9.98092 -7.75792e-05C8.13086 6.73917e-06 6.31723 0.514294 4.74251 1.48537C3.16779 2.45644 1.89396 3.84608 1.06323 5.49914L4.37774 8.07062C5.16789 5.70569 7.37756 3.95071 9.98092 3.95071Z" fill="#EA4335"/>
</svg>
