<svg width="36" height="37" viewBox="0 0 36 37" fill="none" xmlns="http://www.w3.org/2000/svg">
<g clip-path="url(#clip0)">
<path d="M2.22245 3.30839C-0.571629 6.21061 0.000222847 9.29357 0.000222847 18.6595C0.000222847 26.4373 -1.35681 34.2343 5.74541 36.0699C7.96319 36.6402 27.6136 36.6402 29.8284 36.0669C32.7854 35.3039 35.1913 32.9054 35.5202 28.7232C35.5661 28.1395 35.5661 9.18987 35.5187 8.59431C35.1691 4.1395 32.4269 1.57209 28.8136 1.05209C27.9854 0.932092 27.8195 0.896537 23.5706 0.889129C8.49948 0.896537 5.19578 0.225426 2.22245 3.30839Z" fill="url(#paint0_linear)"/>
<path d="M17.7749 5.53916C12.3957 5.53916 7.28753 5.06064 5.33642 10.068C4.53049 12.1362 4.64753 14.8221 4.64753 18.6681C4.64753 22.0429 4.53938 25.2147 5.33642 27.2666C7.28309 32.2769 12.4327 31.7969 17.772 31.7969C22.9231 31.7969 28.2342 32.3332 30.209 27.2666C31.0164 25.1777 30.8979 22.5318 30.8979 18.6681C30.8979 13.5392 31.1809 10.228 28.6935 7.74212C26.1749 5.2236 22.769 5.53916 17.769 5.53916H17.7749ZM16.5986 7.90509C27.8194 7.88731 29.2475 6.6399 28.4594 23.9688C28.1794 30.0977 23.5127 29.4251 17.7764 29.4251C7.31716 29.4251 7.01642 29.1258 7.01642 18.6621C7.01642 8.07694 7.84605 7.91101 16.5986 7.90212V7.90509ZM24.7823 10.0843C23.9127 10.0843 23.2075 10.7895 23.2075 11.6592C23.2075 12.5288 23.9127 13.234 24.7823 13.234C25.652 13.234 26.3572 12.5288 26.3572 11.6592C26.3572 10.7895 25.652 10.0843 24.7823 10.0843ZM17.7749 11.9258C14.052 11.9258 11.0342 14.9451 11.0342 18.6681C11.0342 22.391 14.052 25.4088 17.7749 25.4088C21.4979 25.4088 24.5142 22.391 24.5142 18.6681C24.5142 14.9451 21.4979 11.9258 17.7749 11.9258ZM17.7749 14.2918C23.5601 14.2918 23.5675 23.0443 17.7749 23.0443C11.9912 23.0443 11.9823 14.2918 17.7749 14.2918Z" fill="white"/>
</g>
<defs>
<linearGradient id="paint0_linear" x1="2.29062" y1="34.1737" x2="35.3357" y2="5.57354" gradientUnits="userSpaceOnUse">
<stop stop-color="#FFDD55"/>
<stop offset="0.5" stop-color="#FF543E"/>
<stop offset="1" stop-color="#C837AB"/>
</linearGradient>
<clipPath id="clip0">
<rect y="0.888916" width="35.5556" height="35.5556" fill="white"/>
</clipPath>
</defs>
</svg>
