<svg width="240" height="160" viewBox="0 0 240 160" fill="none" xmlns="http://www.w3.org/2000/svg">
<path d="M0.749968 158.422C0.547497 158.432 0.356848 158.52 0.217315 158.667C0.0777823 158.814 0 159.009 0 159.211C0 159.414 0.0777823 159.608 0.217315 159.755C0.356848 159.902 0.547497 159.99 0.749968 160.001H239.218C239.425 160.001 239.623 159.919 239.77 159.773C239.916 159.627 239.999 159.429 240 159.222C240 159.217 240 159.212 240 159.207C240 159.104 239.98 159.002 239.941 158.907C239.901 158.812 239.844 158.725 239.771 158.652C239.698 158.579 239.612 158.521 239.517 158.482C239.422 158.442 239.32 158.422 239.217 158.422H0.749968Z" fill="#184655"/>
<path d="M125.803 75.4494L124.503 73.5749H122.216C122.158 73.575 122.1 73.5588 122.05 73.528C122.001 73.4971 121.96 73.453 121.934 73.4005C121.908 73.3481 121.898 73.2894 121.903 73.2311C121.909 73.1728 121.931 73.1174 121.967 73.0709L123.353 71.2559L122.641 69.0859C122.623 69.0302 122.621 68.9706 122.635 68.9138C122.649 68.8569 122.679 68.8052 122.721 68.7642C122.763 68.7233 122.815 68.6949 122.872 68.6822C122.93 68.6694 122.989 68.6729 123.045 68.6922L125.201 69.4486L127.049 68.1023C127.096 68.068 127.152 68.0476 127.211 68.0434C127.269 68.0392 127.327 68.0514 127.379 68.0785C127.431 68.1057 127.474 68.1468 127.504 68.1971C127.534 68.2475 127.549 68.3051 127.548 68.3636L127.495 70.6461L129.347 71.9837C129.393 72.0181 129.43 72.0648 129.451 72.1186C129.473 72.1723 129.479 72.2311 129.47 72.2882C129.46 72.3454 129.435 72.3987 129.396 72.4423C129.358 72.4859 129.308 72.518 129.253 72.535L127.063 73.19L126.361 75.3623C126.344 75.4186 126.311 75.4689 126.266 75.5074C126.222 75.546 126.167 75.5712 126.109 75.5803C126.051 75.5894 125.991 75.582 125.937 75.5588C125.883 75.5357 125.837 75.4977 125.803 75.4494Z" fill="#F47458"/>
<path d="M186.141 34.0736L187.347 31.286L185.73 28.7146C185.689 28.6486 185.667 28.5724 185.667 28.4946C185.666 28.4168 185.688 28.3405 185.729 28.2743C185.77 28.208 185.828 28.1545 185.898 28.1197C185.967 28.0849 186.045 28.0702 186.123 28.0772L189.15 28.3606L191.1 26.024C191.15 25.9644 191.216 25.9199 191.29 25.8956C191.364 25.8713 191.444 25.8682 191.519 25.8865C191.595 25.9049 191.664 25.944 191.719 25.9994C191.774 26.0549 191.812 26.1245 191.829 26.2005L192.491 29.1634L195.313 30.2947C195.385 30.3239 195.448 30.3726 195.494 30.4354C195.54 30.4982 195.567 30.5726 195.573 30.6502C195.579 30.7278 195.564 30.8055 195.528 30.8746C195.492 30.9437 195.437 31.0014 195.37 31.0412L192.754 32.585L192.55 35.6174C192.545 35.6951 192.518 35.7698 192.473 35.8331C192.427 35.8963 192.365 35.9456 192.293 35.9754C192.221 36.0051 192.142 36.0141 192.065 36.0013C191.988 35.9885 191.916 35.9544 191.858 35.903L189.575 33.8972L186.627 34.6371C186.552 34.6551 186.473 34.6522 186.4 34.6286C186.327 34.605 186.262 34.5617 186.211 34.5035C186.161 34.4453 186.128 34.3743 186.115 34.2985C186.103 34.2226 186.112 34.1448 186.141 34.0736Z" fill="#F7CC7F"/>
<path d="M28.7011 110.676L27.1551 107.72L23.8422 107.318C23.7578 107.307 23.678 107.274 23.6117 107.22C23.5454 107.167 23.4953 107.096 23.467 107.016C23.4387 106.936 23.4333 106.85 23.4514 106.767C23.4695 106.684 23.5104 106.607 23.5695 106.546L25.9061 104.164L25.2657 100.892C25.2491 100.808 25.2563 100.721 25.2866 100.641C25.3169 100.561 25.3691 100.491 25.4371 100.439C25.5052 100.387 25.5864 100.355 25.6717 100.347C25.7569 100.339 25.8427 100.355 25.9194 100.393L28.9109 101.876L31.8295 100.256C31.9044 100.215 31.9893 100.195 32.0748 100.2C32.1603 100.204 32.2428 100.232 32.3132 100.281C32.3836 100.329 32.4389 100.396 32.4731 100.475C32.5072 100.553 32.5188 100.639 32.5064 100.724L32.0183 104.022L34.4621 106.294C34.5251 106.352 34.5704 106.426 34.593 106.509C34.6155 106.592 34.6145 106.679 34.5898 106.761C34.5652 106.843 34.5181 106.916 34.4537 106.973C34.3894 107.029 34.3104 107.067 34.2258 107.081L30.9339 107.632L29.526 110.656C29.49 110.734 29.4329 110.8 29.3611 110.847C29.2893 110.894 29.2057 110.921 29.1197 110.923C29.0338 110.925 28.949 110.903 28.875 110.859C28.801 110.815 28.7407 110.752 28.7011 110.676Z" fill="#9BC1F9"/>
<path d="M205.443 39.6785L205.482 41.2928L202.887 41.6423L202.652 44.0098L200.752 44.5887L201.046 45.548L203.586 44.7751L203.809 42.5311L206.509 42.1672L206.451 39.738L205.443 39.6785Z" fill="#466EB6"/>
<path d="M61.7424 23.1472C61.818 22.6332 62.0925 22.1693 62.5069 21.8551C62.9213 21.5409 63.4425 21.4015 63.9587 21.4667C65.063 21.62 65.6979 22.5099 65.593 23.6313C65.4671 24.7494 64.619 25.5058 63.4551 25.3746C62.2912 25.2434 61.59 24.2896 61.7424 23.1472ZM62.7881 20.245L63.3071 11.7367C63.3172 11.5698 63.3611 11.4068 63.4363 11.2574C63.5115 11.1081 63.6163 10.9756 63.7444 10.868C63.8725 10.7604 64.0212 10.6799 64.1815 10.6316C64.3417 10.5832 64.5101 10.5679 64.6765 10.5866L65.5245 10.6814C65.6907 10.6999 65.8513 10.7519 65.9967 10.8343C66.1421 10.9166 66.2692 11.0277 66.3704 11.1606C66.4715 11.2935 66.5445 11.4456 66.5849 11.6076C66.6254 11.7695 66.6324 11.938 66.6056 12.1028L65.2441 20.5184L62.7881 20.245Z" fill="#F48C7F"/>
<path d="M56.3393 65.9675C56.3967 68.078 56.9422 72.6068 61.7337 73.3555C64.7086 73.8197 68.5195 71.1501 68.2732 69.1918C68.027 67.2334 67.4837 62.2449 64.3773 61.0981C61.7823 60.1431 56.2057 61.2591 56.3393 65.9675Z" fill="#184655"/>
<path d="M96.3257 134.179C97.0037 137.021 97.5404 141.126 97.7347 141.347C97.8297 141.457 98.0274 142.174 98.1235 142.289C101.215 143.413 103.937 142.253 106.093 140.977C104.403 140.678 102.128 140.367 101.811 140.144C100.635 139.316 100.916 136.364 100.706 133.715C99.8671 133.866 97.8374 133.338 96.3257 134.179Z" fill="#F7A491"/>
<path d="M97.6704 141.188C97.6903 142.31 98.4136 144.707 98.6367 144.703C98.9039 144.703 108.205 143.895 109.082 142.47C109.609 141.614 108.177 141.391 106.093 140.979C103.937 142.255 97.9288 141.891 97.6704 141.188Z" fill="#466EB6"/>
<path d="M52.1574 140.52C50.0052 142.203 47.8297 143.549 47.5559 143.678C47.4245 143.741 46.6802 143.738 46.5421 143.799C44.6284 146.475 45.0193 149.402 45.6731 151.818C46.414 150.274 47.2875 148.114 47.6243 147.922C48.1621 147.615 50.1001 146.465 53.5786 145.055C52.4004 143.776 52.5616 142.198 52.1574 140.52Z" fill="#F7A491"/>
<path d="M57.0577 81.147L50.41 93.2224C50.41 93.2224 45.9652 98.8075 43.6738 101.674C44.1663 102.479 44.6434 103.305 45.0685 104.153C47.3456 102.22 52.1901 98.1172 53.9183 95.8512C56.4736 92.5013 61.0961 84.5498 61.0961 84.5498L57.0577 81.147Z" fill="#F7A491"/>
<path d="M74.7326 102.163L67.6221 112.638C67.6221 112.638 67.2146 111.937 69.76 112.867C72.3054 113.796 88.7271 116.86 89.6989 118.017C90.3869 118.837 95.4798 134.921 96.4604 136.983C97.938 137.581 100.086 136.917 101.602 136.699C101.699 128.95 97.5901 114.845 96.4936 113.192C94.0432 109.497 82.3775 105.503 77.1256 103.263C76.2731 102.901 75.6127 102.574 75.203 102.381C74.8993 102.231 74.7326 102.163 74.7326 102.163Z" fill="#3C8F7C"/>
<path d="M47.4412 143.705C46.3535 143.424 44.135 143.432 44.0776 143.648C44.0091 143.906 42.2942 153.069 43.4338 154.294C44.1195 155.031 44.7181 153.712 45.6733 151.818C45.0195 149.402 46.6936 143.766 47.4412 143.705Z" fill="#466EB6"/>
<path d="M72.8661 109.535C72.928 108.749 74.612 104.158 75.2083 102.368C75.2282 102.312 74.7865 101.279 74.3105 99.791L73.6281 99.9013L63.5195 100.359C63.5195 100.359 59.4491 107.225 59.9228 110.379C60.5854 114.783 66.9604 130.436 65.9964 131.173C64.2461 132.504 55.6735 137.464 51.2686 140.414C51.5501 142.117 52.3386 144.494 53.4197 145.854C57.0042 144.61 72.4962 138.374 74.0897 133.59C75.491 129.365 72.7612 110.873 72.8661 109.535Z" fill="#50BFA5"/>
<path d="M72.7043 70.9473C72.7043 70.9473 69.9193 75.315 68.2783 75.4683L74.0846 80.8317C74.0846 80.8317 78.0391 74.9103 78.4521 73.8948C78.4521 73.8992 74.8521 70.697 72.7043 70.9473Z" fill="#F7CC7F"/>
<path d="M74.7358 97.3388C74.4763 99.7438 75.2184 102.374 75.2184 102.374C72.8839 102.874 64.6084 103.928 62.5843 101.467C62.5114 101.379 65.4554 96.2042 65.0457 94.0914C64.4483 90.9741 61.8565 85.689 61.6423 85.4056C61.2812 84.9303 59.9561 87.3904 59.9561 87.3904C58.4035 87.3981 54.8477 83.7957 54.8477 83.7957C54.8477 83.7957 58.5249 77.4001 59.5364 76.7969C60.548 76.1938 68.9096 75.2863 68.9151 75.2863C69.5302 75.2422 71.2109 76.6988 71.6758 77.1608C76.9576 82.4217 75.5309 89.9663 74.7358 97.3388Z" fill="#FAE0B2"/>
<path d="M64.2021 72.6013C64.2021 72.6013 65.1132 75.6072 65.1198 76.8301C65.1264 78.053 65.6145 79.7158 68.1809 79.4644C70.7472 79.213 68.6425 76.6327 68.2781 75.4727C67.9136 74.3127 67.4763 70.6462 67.4763 70.6462L64.2021 72.6013Z" fill="#F7A491"/>
<path d="M67.7204 72.4822C67.5768 71.4821 67.4763 70.6462 67.4763 70.6462L64.2021 72.6013C64.2021 72.6013 64.3888 73.2188 64.5986 74.0029C66.1302 74.1495 67.1638 73.4802 67.7204 72.4822Z" fill="#F47458"/>
<path d="M61.5322 63.525C60.6611 64.1998 60.0596 65.1629 59.8361 66.2409C59.4904 68.014 60.545 72.3917 64.357 73.0776C68.169 73.7634 69.408 70.0871 68.3611 67.4175C67.3143 64.7479 65.2967 61.4432 61.5322 63.525Z" fill="#F7A491"/>
<path d="M68.7145 66.3083C68.7145 67.0536 68.3688 67.6601 67.9338 67.6623C67.4987 67.6645 67.1387 67.0614 67.1387 66.316C67.1387 65.5706 67.4843 64.9652 67.9183 64.963C68.3523 64.9608 68.7101 65.5629 68.7145 66.3083Z" fill="#F7A491"/>
<path d="M61.4922 70.0209C61.9936 70.6208 62.0709 71.3816 61.6645 71.7202C61.2581 72.0587 60.5227 71.847 60.0213 71.2471C59.52 70.6472 59.4427 69.8853 59.8491 69.5468C60.2554 69.2082 60.9909 69.4222 61.4922 70.0209Z" fill="#F7A491"/>
<path d="M57.6278 61.8545C57.7768 59.8102 59.2257 52.2061 54.5678 51.4893C49.9099 50.7726 48.9183 55.846 46.332 49.0061C43.9391 42.6701 36.8275 45.1236 36.5304 49.9346C35.8395 49.8755 35.1445 49.9849 34.5052 50.2532C32.2259 51.2126 31.2011 53.9395 32.216 56.3455C32.3772 56.7282 32.2855 57.1064 32.523 57.4229C31.9763 59.5179 32.3529 61.9152 33.974 64.3477C38.3989 70.9946 42.8381 63.9981 45.8296 64.3708C48.8211 64.7435 46.872 67.0801 49.4638 68.9029C52.0556 70.7256 54.1427 70.2492 58.3621 65.275L59.409 63.9044C59.409 63.9044 57.4776 63.8989 57.6278 61.8545Z" fill="#184655"/>
<path d="M188.56 119.766C190.895 118.835 192.985 117.57 193.232 117.439C193.422 117.339 194.214 116.757 194.327 116.675C196.385 117.898 197.137 118.937 198.759 120.572C197.559 120.637 197.05 119.654 196.59 119.756C196.038 119.88 194.289 121.05 191.557 123.159C191.084 121.634 189.714 120.864 188.56 119.766Z" fill="#F8A492"/>
<path d="M155.514 143.657C155.894 145.335 156.436 146.972 157.132 148.545C157.188 148.666 157.55 148.766 157.612 148.884C156.066 150.707 155.393 153.735 153.509 155.066C153.643 153.873 154.445 151.635 154.421 151.165C154.391 150.598 153.526 148.683 151.896 145.643C153.481 145.431 154.24 144.605 155.514 143.657Z" fill="#F8A492"/>
<path d="M156.495 149.048C156.705 148.517 157.403 148.15 157.899 148.464C158.395 148.779 159.064 149.126 159.556 149.469C160.108 149.855 160.153 150.289 160.139 150.388C160.098 150.672 153.5 158.376 152.655 158.489C151.81 158.601 153.373 152.085 154.299 151.414C155.13 150.819 155.544 151.433 156.495 149.048Z" fill="#3C8F7C"/>
<path d="M194.131 117.445C193.647 117.142 193.409 116.391 193.808 115.96C194.207 115.529 194.668 114.934 195.096 114.507C195.576 114.028 196.011 114.066 196.105 114.098C196.378 114.19 202.788 122.051 202.747 122.901C202.706 123.751 196.563 121.05 196.072 120.019C195.632 119.102 196.311 118.806 194.131 117.445Z" fill="#3C8F7C"/>
<path d="M158.04 114.936C158.04 114.936 171.052 132.448 173.319 132.609C175.437 132.76 191.85 123.622 191.85 123.622L189.714 118.903L176.573 123.622L167.419 106.327L158.04 114.936Z" fill="#B75742"/>
<path d="M165.53 100.138C165.53 100.138 167.913 100.705 169.275 104.329C170.636 107.952 168.359 110.966 162.649 116.219C157.093 121.334 151.606 126.143 151.606 126.143L156.11 144.668L152.367 147.839C152.367 147.839 143.694 129.014 143.444 124.528C143.348 122.816 156.685 102.97 156.685 102.97L165.53 100.138Z" fill="#F47458"/>
<path d="M155.462 77.464L148.207 81.5164L142.458 84.2731C142.458 84.2731 141.055 79.5084 141.526 77.1729C141.593 76.8421 141.923 76.4441 142.043 76.2665C142.99 74.8474 140.965 72.642 140.965 72.642C140.965 72.642 139.75 72.2947 138.914 74.306C138.078 76.3173 139.617 77.1729 139.617 77.1729C139.617 77.1729 137.87 83.2619 138.601 87.6991C138.985 90.0235 144.804 88.3166 149.442 86.3141C151.788 85.3024 154.051 84.1109 156.212 82.7503L155.462 77.464Z" fill="#F7A491"/>
<path d="M157.094 76.7694C156.941 76.6261 156.689 76.5412 156.277 76.6945C155.378 77.0253 146.67 81.8054 146.67 81.8054C146.67 81.8054 147.452 85.9845 149.494 87.268L153.882 85.9316L157.238 77.4597C157.286 77.3435 157.297 77.2157 157.272 77.0927C157.246 76.9697 157.184 76.8572 157.094 76.7694Z" fill="#3C8F7C"/>
<path d="M177.146 58.9037C173.84 56.8814 169.718 57.2718 167.265 59.9888C165.245 59.2312 162.93 59.2897 161.056 60.1641C157.36 61.8876 154.089 66.3887 156.874 69.6559C156.282 73.9939 158.881 76.5168 162.119 76.8057C163.879 80.3342 170.121 80.6948 173.714 77.7893C176.68 78.9338 180.203 78.4409 182.397 76.304C182.923 75.7912 183.695 74.9697 183.87 74.8947C183.658 75.005 192.136 73.8792 191.748 66.4174C191.351 58.8034 182.226 55.8813 177.146 58.9037Z" fill="#FE875E"/>
<path d="M162.124 76.196L167.504 76.4915L166.612 83.9997C166.612 83.9997 164.015 91.2255 165.074 94.6957C166.133 98.1658 167.154 100.7 167.154 100.7C167.154 100.7 164.09 104.212 155.505 103.494C155.505 103.494 155.616 97.2627 155.505 95.3749C155.395 93.4871 153.2 85.6316 153.501 83.8574C153.803 82.0832 155.695 77.173 156.187 76.7584C156.678 76.3438 158.626 76.1343 158.626 76.1343L162.124 76.196Z" fill="#50BFA5"/>
<path d="M162.377 72.0687C162.377 72.0687 162.285 72.6752 162.196 73.4547C162.086 74.4284 161.984 75.6689 162.076 76.3338C162.243 77.5302 161.115 80.6839 158.569 80.7986C156.022 80.9132 158.516 77.3152 158.708 76.1287C158.9 74.9423 158.899 70.6154 158.899 70.6154L162.377 72.0687Z" fill="#F7A491"/>
<path d="M158.919 72.4469C158.919 71.4479 158.898 70.6165 158.898 70.6165L162.377 72.0676C162.377 72.0676 162.281 72.6951 162.193 73.4934C160.709 73.854 159.604 73.3457 158.919 72.4469Z" fill="#F47458"/>
<path d="M162.64 63.1502C163.607 63.5479 164.399 64.2767 164.875 65.2056C165.64 66.7405 165.78 71.0068 162.469 72.5936C159.159 74.1803 157.098 71.1314 157.381 68.4276C157.663 65.7238 158.674 62.1919 162.64 63.1502Z" fill="#F7A491"/>
<path d="M156.778 67.5025C156.962 68.1839 157.44 68.6503 157.832 68.5434C158.224 68.4364 158.403 67.7958 158.22 67.1099C158.037 66.424 157.557 65.9609 157.164 66.069C156.771 66.177 156.593 66.8232 156.778 67.5025Z" fill="#F7A491"/>
<path d="M164.476 68.9624C164.169 69.6372 164.291 70.3529 164.747 70.5591C165.203 70.7653 165.823 70.387 166.13 69.7122C166.437 69.0374 166.316 68.3228 165.859 68.1155C165.402 67.9082 164.783 68.2875 164.476 68.9624Z" fill="#F7A491"/>
<path d="M92.7379 101.794L70.7329 37.7852C69.3547 33.7781 64.9464 31.6246 60.886 32.9754L30.1604 43.1928C26.1 44.5425 23.9245 48.8859 25.3016 52.8964L47.3066 116.904C48.6837 120.911 53.0931 123.065 57.1535 121.715L87.878 111.497C91.9406 110.144 94.115 105.801 92.7379 101.794ZM85.2752 103.409L54.2349 113.731C53.1131 114.107 51.888 114.027 50.8251 113.508C49.7621 112.989 48.9467 112.072 48.5556 110.957L28.2036 51.7562C28.0156 51.2053 27.9391 50.6225 27.9785 50.0418C28.0179 49.4611 28.1724 48.894 28.433 48.3734C28.6936 47.8528 29.0552 47.3891 29.4968 47.0091C29.9383 46.6292 30.451 46.3406 31.0052 46.1601L62.0455 35.8379C63.1673 35.4618 64.3923 35.5421 65.4553 36.0613C66.5183 36.5806 67.3336 37.497 67.7248 38.6123C72.6676 52.9879 87.6328 96.5206 88.0779 97.8086C88.2663 98.3599 88.3432 98.9431 88.304 99.5243C88.2649 100.105 88.1104 100.673 87.8496 101.194C87.5889 101.715 87.227 102.179 86.785 102.56C86.3431 102.94 85.8298 103.229 85.2752 103.409Z" fill="#355389"/>
<path d="M77.3178 110.35C77.7904 111.729 75.6172 113.695 72.4589 114.744C69.3007 115.794 66.3633 115.527 65.8895 114.149C65.4158 112.771 67.589 110.805 70.7484 109.756C73.9078 108.707 76.8441 108.973 77.3178 110.35Z" fill="#184655"/>
<path d="M76.477 110.462C76.9187 111.755 75.122 113.523 72.4574 114.409C69.7928 115.296 67.2673 114.961 66.8255 113.671C66.3838 112.38 68.1805 110.61 70.8451 109.723C73.5098 108.836 76.032 109.166 76.477 110.462Z" fill="#355389"/>
<path d="M189.603 41.8729L155.072 34.0736C150.51 33.0437 146.011 35.7409 145.023 40.0976L129.269 109.691C128.283 114.048 131.182 118.415 135.745 119.445L170.272 127.239C174.835 128.27 179.334 125.573 180.321 121.216L196.076 51.6261C197.062 47.2694 194.162 42.9028 189.603 41.8729ZM178.229 115.071C177.659 117.584 175.065 119.14 172.433 118.546L137.552 110.671C134.92 110.077 133.245 107.558 133.817 105.048L148.394 40.6842C148.964 38.1712 151.559 36.6164 154.19 37.2096L189.071 45.0839C191.703 45.6782 193.378 48.1967 192.806 50.7075L178.229 115.071Z" fill="#86B1F2"/>
<path d="M161.046 120.381C160.707 121.879 157.558 122.445 154.014 121.644C150.469 120.843 147.87 118.981 148.209 117.484C148.548 115.986 151.697 115.42 155.242 116.221C158.786 117.022 161.385 118.884 161.046 120.381Z" fill="#466EB6"/>
<path d="M160.197 120.018C159.879 121.425 157.193 122.017 154.199 121.341C151.205 120.665 149.034 118.976 149.353 117.569C149.673 116.162 152.357 115.569 155.352 116.245C158.347 116.921 160.517 118.611 160.197 120.018Z" fill="#86B1F2"/>
<path d="M167.288 78.4355C167.288 78.4355 178.635 75.6844 181.163 75.2212C183.692 74.7581 192.475 71.5967 192.806 71.4622C193.137 71.3277 194.393 66.8199 194.889 67.1353C195.384 67.4507 194.129 69.4079 194.748 69.6615C195.368 69.9152 200.654 67.5521 200.69 67.98C200.759 68.7794 197.511 69.5491 197.614 69.9163C197.717 70.2834 200.927 68.8026 201.323 69.3528C201.72 69.903 198.151 70.4731 198.085 70.7863C198.02 71.0994 201.509 70.6936 201.321 71.3541C201.218 71.7136 198.209 71.6386 198.339 72.0554C198.47 72.4723 200.758 72.8836 200.599 73.286C200.44 73.6885 198.721 72.6862 197.541 72.9872C196.361 73.2882 195.346 72.9001 193.602 73.9223C191.858 74.9445 186.136 79.257 182.067 80.1469C177.997 81.0367 169.01 83.0326 169.01 83.0326L167.288 78.4355Z" fill="#F7A491"/>
<path d="M164.536 76.6911C164.92 76.5081 166.099 76.4783 167.5 76.4882C168.016 76.4882 168.742 76.4971 169.293 76.4805C171.343 76.4221 173.29 76.5191 173.29 76.5191C173.29 76.5191 174.32 81.4911 173.463 82.7614C173.463 82.7614 165.445 83.9049 165.638 84.4617L164.536 76.6911Z" fill="#50BFA5"/>
<path d="M136.736 76.7198L137.426 75.8476C137.426 75.8476 137.856 75.186 138.502 75.1187C139.148 75.0514 139.128 74.2443 138.444 74.359C138.065 74.4189 137.693 74.5123 137.33 74.6379C137.33 74.6379 138.689 73.9399 138.714 73.8495C138.848 73.3412 138.098 73.1438 137.093 73.8881C136.088 74.6324 136.736 76.7198 136.736 76.7198Z" fill="#F7A491"/>
<path d="M44.0878 102.901C43.7798 103.065 43.4846 103.252 43.2044 103.46L43.2254 103.416C43.37 103.265 43.867 102.734 43.8703 102.731C44.524 102.234 44.1806 101.702 43.5699 102.032C43.2308 102.211 42.9082 102.419 42.6059 102.655C42.6059 102.655 43.6649 101.624 43.6605 101.462C43.645 100.937 42.8499 100.993 42.1388 102.022C41.5182 102.924 42.4347 104.5 42.7008 104.872C42.8661 105.203 43.1244 105.479 43.444 105.665L43.6063 104.637C43.6063 104.637 43.7974 103.866 44.3871 103.6C44.9768 103.334 44.6985 102.57 44.0878 102.901Z" fill="#F7A491"/>
<path d="M139.241 73.5606C139.241 73.5606 140.854 72.2672 141.11 72.8174C141.366 73.3677 141.255 74.5585 141.014 74.4714C140.773 74.3843 140.806 73.5397 140.113 73.7613C139.919 73.8253 138.961 74.1274 139.241 73.5606Z" fill="#F7A491"/>
<path d="M167.487 29.4324L109.582 17.1034C108.808 16.9388 108.074 16.6237 107.422 16.1759C106.77 15.7281 106.213 15.1565 105.782 14.4937C105.352 13.8309 105.056 13.0899 104.912 12.313C104.768 11.5361 104.779 10.7385 104.944 9.9657L106.055 4.76326C106.219 3.99049 106.535 3.2577 106.983 2.60673C107.432 1.95576 108.004 1.39936 108.668 0.969307C109.332 0.539251 110.074 0.24396 110.852 0.100294C111.63 -0.0433713 112.429 -0.0325971 113.203 0.132001L171.111 12.4611C171.885 12.6254 172.619 12.9403 173.271 13.388C173.924 13.8357 174.481 14.4073 174.912 15.0702C175.342 15.7331 175.638 16.4742 175.782 17.2512C175.925 18.0282 175.914 18.8259 175.749 19.5987L174.638 24.8012C174.474 25.5744 174.158 26.3077 173.71 26.9591C173.261 27.6104 172.688 28.1671 172.024 28.5972C171.36 29.0274 170.617 29.3226 169.839 29.4659C169.06 29.6092 168.261 29.5978 167.487 29.4324Z" fill="#96D9C9"/>
<path d="M157.159 25.1484L162.491 32.4217L164.2 27.0406L157.159 25.1484Z" fill="#96D9C9"/>
<path d="M123.66 8.809C123.382 10.1146 121.964 10.9184 120.493 10.6053C119.022 10.2921 118.056 8.97991 118.334 7.67434C118.612 6.36877 120.033 5.56491 121.502 5.87807C122.971 6.19123 123.939 7.49901 123.66 8.809Z" fill="white"/>
<path d="M120.041 10.3613L121.002 10.566C121.89 10.7551 122.666 11.2887 123.16 12.0493C123.654 12.81 123.825 13.7355 123.636 14.6221L123.261 16.3767L115.605 14.7461L115.98 12.9915C116.169 12.1051 116.703 11.33 117.465 10.8368C118.226 10.3435 119.153 10.1725 120.041 10.3613Z" fill="white"/>
<path d="M146.586 15.3501C146.046 17.8796 141.948 19.151 137.434 18.1895C132.919 17.2279 129.704 14.3985 130.238 11.87C130.773 9.34157 134.876 8.06908 139.389 9.03061C143.903 9.99215 147.126 12.8216 146.586 15.3501Z" fill="white"/>
<path d="M139.129 17.3151L136.517 19.7707L142.707 18.3086L142.475 14.3213L139.129 17.3151Z" fill="white"/>
<path d="M158.118 16.9534L159.055 16.4892C159.195 16.4198 159.306 16.3043 159.37 16.1621C159.434 16.0199 159.447 15.86 159.406 15.7096C159.242 15.1009 158.892 14.0986 158.233 13.3134C158.136 13.1984 158.003 13.1191 157.856 13.0882C157.708 13.0572 157.555 13.0763 157.419 13.1425L155.783 13.9409C155.681 13.9904 155.593 14.0646 155.528 14.1567C155.462 14.2487 155.421 14.3558 155.407 14.4679C155.297 15.4317 155.169 18.0892 156.848 20.332C158.762 22.8891 160.729 24.1837 162.109 24.8089C162.219 24.8588 162.341 24.8784 162.461 24.8656C162.581 24.8528 162.696 24.8081 162.793 24.7361L164.301 23.6169C164.429 23.5216 164.519 23.3843 164.556 23.2291C164.592 23.074 164.572 22.911 164.5 22.7689C164.016 21.8244 163.259 21.0469 162.328 20.5371C162.206 20.4702 162.066 20.4426 161.927 20.4582C161.789 20.4738 161.659 20.5318 161.555 20.6242L160.991 21.1248C160.878 21.2242 160.736 21.2835 160.587 21.2935C160.437 21.3034 160.289 21.2635 160.165 21.18C159.612 20.8117 158.676 19.9185 157.796 17.8179C157.73 17.6598 157.726 17.4826 157.786 17.322C157.846 17.1615 157.965 17.0297 158.118 16.9534Z" fill="white"/>
<path d="M101.207 75.9016L92.4762 70.6032C92.2653 70.4755 92.0818 70.3075 91.936 70.1089C91.7902 69.9103 91.685 69.685 91.6264 69.4458C91.5679 69.2066 91.5571 68.9582 91.5947 68.7148C91.6323 68.4714 91.7176 68.2378 91.8456 68.0274L97.1462 59.3085C97.2742 59.0979 97.4425 58.9146 97.6416 58.769C97.8406 58.6235 98.0664 58.5185 98.3061 58.4601C98.5457 58.4018 98.7946 58.3911 99.0384 58.4289C99.2822 58.4666 99.5161 58.5519 99.7269 58.68L108.457 63.9784C108.668 64.1062 108.852 64.2742 108.997 64.4729C109.143 64.6715 109.248 64.8969 109.306 65.1361C109.365 65.3753 109.376 65.6236 109.338 65.867C109.3 66.1103 109.215 66.3438 109.087 66.5542L103.786 75.2731C103.658 75.4835 103.49 75.6667 103.291 75.8122C103.092 75.9577 102.866 76.0626 102.627 76.1209C102.387 76.1793 102.139 76.19 101.895 76.1523C101.651 76.1147 101.417 76.0295 101.207 75.9016Z" fill="#96D9C9"/>
<path d="M105.806 68.7728C106.13 68.442 106.027 67.8123 105.546 67.3911C103.454 65.5431 101.059 64.0703 98.465 63.0377C97.872 62.8017 97.2613 62.9991 97.1144 63.4468C95.8997 67.0184 96.3216 65.6775 95.7981 67.7473C95.7405 67.9831 95.7706 68.2317 95.8827 68.4471C95.9948 68.6625 96.1813 68.8299 96.4077 68.9183C96.6441 69.0131 96.9076 69.0157 97.1459 68.9257C97.3842 68.8356 97.5799 68.6594 97.6942 68.432C97.8179 68.1696 97.9404 67.9072 98.0641 67.6458C98.2033 67.3448 98.5964 67.229 98.9343 67.401C99.8236 67.8528 100.679 68.3687 101.493 68.9448C101.802 69.1653 101.883 69.5623 101.682 69.8269C101.507 70.0552 101.333 70.2823 101.159 70.5106C101.012 70.7152 100.948 70.9681 100.981 71.2179C101.014 71.4677 101.14 71.6958 101.335 71.8559C101.517 72.0117 101.749 72.0981 101.989 72.0997C102.229 72.1014 102.462 72.0181 102.647 71.8647C103.028 71.5207 105.139 69.4697 105.806 68.7728Z" fill="white"/>
<path d="M99.0518 64.4282C99.1614 64.4936 99.2508 64.5878 99.3102 64.7006L99.604 64.2198L98.9767 63.8459L98.6841 64.3267C98.8136 64.3267 98.9407 64.3617 99.0518 64.4282Z" fill="#96D9C9"/>
<path d="M98.0664 64.6663C98.1324 64.5574 98.2266 64.4683 98.3391 64.4083L97.8576 64.115L97.48 64.7358L97.9626 65.0279C97.9636 64.9002 97.9995 64.7752 98.0664 64.6663Z" fill="#96D9C9"/>
<path d="M98.3046 65.6455C98.1958 65.5792 98.1066 65.4852 98.0462 65.3732L97.7524 65.8539L98.3742 66.2311L98.6668 65.7492C98.5389 65.7482 98.4136 65.7123 98.3046 65.6455Z" fill="#96D9C9"/>
<path d="M99.3899 65.0457C99.3878 65.1732 99.352 65.298 99.2861 65.4073C99.2196 65.5163 99.125 65.6054 99.0122 65.6653L99.4937 65.9586L99.8713 65.3379L99.3899 65.0457Z" fill="#96D9C9"/>
<path d="M99.0522 65.2629C99.0074 65.3362 98.9418 65.3946 98.8638 65.4308C98.7858 65.4669 98.6988 65.4792 98.6138 65.466C98.5288 65.4527 98.4496 65.4147 98.3863 65.3566C98.323 65.2985 98.2783 65.2229 98.258 65.1395C98.2376 65.056 98.2425 64.9684 98.272 64.8877C98.3014 64.807 98.3542 64.7369 98.4236 64.6861C98.493 64.6354 98.5759 64.6063 98.6618 64.6026C98.7478 64.5989 98.8329 64.6206 98.9064 64.6652C99.005 64.7253 99.0757 64.8219 99.103 64.9339C99.1303 65.046 99.112 65.1643 99.0522 65.2629Z" fill="#96D9C9"/>
<path d="M104.557 68.6724C104.462 68.8299 104.321 68.9556 104.155 69.0336C103.988 69.1116 103.801 69.1384 103.619 69.1106C103.437 69.0828 103.267 69.0016 103.131 68.8774C102.995 68.7532 102.899 68.5915 102.855 68.4128C102.811 68.234 102.821 68.0463 102.883 67.8732C102.946 67.7002 103.059 67.5496 103.208 67.4406C103.356 67.3316 103.534 67.269 103.718 67.2608C103.902 67.2526 104.085 67.2991 104.242 67.3944C104.453 67.5224 104.605 67.7289 104.664 67.9684C104.723 68.208 104.685 68.4612 104.557 68.6724Z" fill="#96D9C9"/>
<path d="M109.432 35.5291C109.57 34.9454 109.84 34.4007 110.221 33.9366C110.601 33.4725 111.083 33.1011 111.629 32.8507C113.304 32.0788 115.111 32.9434 115.87 34.5775C116.754 36.4686 116.215 39.437 113.031 43.2755C108.04 43.2236 105.426 41.7141 104.547 39.823C103.788 38.1877 104.291 36.2503 105.967 35.4729C106.511 35.2185 107.106 35.0913 107.706 35.101C108.307 35.1108 108.897 35.2572 109.432 35.5291Z" fill="#F48C7F"/>
<path d="M48.8808 27.4167L37.7883 32.6953C37.4772 32.8434 37.1398 32.9289 36.7956 32.9469C36.4514 32.9648 36.107 32.9149 35.7821 32.7999C35.4573 32.6849 35.1583 32.5071 34.9022 32.2767C34.6462 32.0462 34.4381 31.7677 34.2899 31.4569L31.3083 25.2191C31.1598 24.908 31.0741 24.5708 31.0562 24.2266C31.0384 23.8825 31.0887 23.5382 31.2043 23.2135C31.3199 22.8888 31.4985 22.5901 31.73 22.3344C31.9614 22.0787 32.241 21.8712 32.5529 21.7236L43.6465 16.445C43.958 16.2961 44.2959 16.21 44.6408 16.1918C44.9857 16.1735 45.3309 16.2235 45.6564 16.3387C45.982 16.454 46.2815 16.6323 46.5379 16.8634C46.7942 17.0945 47.0024 17.3739 47.1504 17.6856L50.1319 23.9234C50.2798 24.2348 50.3647 24.5722 50.3819 24.9163C50.399 25.2605 50.348 25.6047 50.2318 25.9291C50.1156 26.2536 49.9364 26.552 49.7046 26.8072C49.4728 27.0625 49.1929 27.2696 48.8808 27.4167Z" fill="#FAE0B2"/>
<path d="M33.2601 28.0541L30.8848 35.1222L36.1621 31.2254L33.2601 28.0541Z" fill="#FAE0B2"/>
<path d="M37.1767 25.3205L38.5803 24.6082C38.5803 24.6082 39.7166 22.4127 39.5421 21.9165C39.3676 21.4203 38.5924 20.5668 38.8078 20.3077C39.0231 20.0486 39.562 19.6649 40.2345 20.1081C40.7237 20.4301 41.3023 22.1878 41.5221 22.2176C41.6601 22.2363 42.4784 21.8493 43.0681 21.556C43.2593 21.4619 43.4727 21.4219 43.6851 21.4404C43.8975 21.4588 44.1008 21.535 44.2729 21.6607C44.3881 21.7447 44.4709 21.8657 44.5075 22.0034C44.544 22.1411 44.5322 22.2871 44.4738 22.4171L44.2861 22.834L44.6947 23.0424C44.841 23.1171 44.9516 23.2467 45.0025 23.4027C45.0535 23.5587 45.0404 23.7284 44.9664 23.8749L44.8095 24.1858L45.0746 24.2961C45.1552 24.3299 45.2278 24.3803 45.2876 24.444C45.3474 24.5077 45.393 24.5833 45.4216 24.6658C45.4501 24.7483 45.4609 24.8359 45.4533 24.9229C45.4456 25.0099 45.4197 25.0943 45.3772 25.1705L45.2314 25.433L45.2943 25.4782C45.4208 25.5687 45.5087 25.7033 45.5408 25.8553C45.5729 26.0073 45.5468 26.1659 45.4677 26.2997L45.3164 26.5544L41.5828 28.4499C41.2326 28.6277 40.8497 28.732 40.4576 28.7564L39.033 29.2063C38.9589 29.2298 38.8787 29.226 38.8072 29.1954C38.7356 29.1648 38.6774 29.1096 38.6432 29.0398L37.0321 25.7483C36.9958 25.6722 36.9905 25.585 37.0175 25.5051C37.0446 25.4253 37.1017 25.359 37.1767 25.3205Z" fill="white"/>
<path d="M128.955 42.6469C137.34 40.7458 145.085 43.3735 146.256 48.5164C146.84 51.089 145.67 53.8016 143.306 56.1106L148.433 62.9219L139.93 58.6512C137.833 59.8638 135.561 60.7477 133.194 61.2723C124.809 63.1744 117.063 60.5467 115.894 55.4027C114.724 50.2587 120.57 44.549 128.955 42.6469Z" fill="#FAE0B2"/>
<path d="M137.031 51.5776C136.987 52.6483 136.627 53.6822 135.995 54.5484C135.363 55.4146 134.488 56.0743 133.481 56.444C132.473 56.8137 131.379 56.8769 130.336 56.6255C129.292 56.3741 128.347 55.8195 127.62 55.0317C126.892 54.244 126.415 53.2585 126.248 52.1999C126.081 51.1412 126.233 50.057 126.683 49.0843C127.133 48.1116 127.862 47.294 128.778 46.7351C129.694 46.1761 130.755 45.9008 131.827 45.944C132.539 45.9726 133.239 46.1411 133.886 46.4398C134.533 46.7384 135.114 47.1614 135.598 47.6845C136.081 48.2077 136.456 48.8207 136.702 49.4887C136.948 50.1567 137.059 50.8665 137.031 51.5776Z" fill="#F7CC7F"/>
<path d="M128.676 52.098C128.661 52.4781 128.72 52.8576 128.852 53.2146C128.983 53.5717 129.184 53.8995 129.442 54.1791C129.7 54.4588 130.011 54.685 130.357 54.8447C130.703 55.0044 131.077 55.0945 131.457 55.11C131.838 55.1254 132.218 55.0658 132.576 54.9346C132.933 54.8033 133.261 54.6031 133.542 54.3452C133.822 54.0873 134.048 53.7769 134.208 53.4316C134.368 53.0864 134.458 52.713 134.474 52.3329L128.676 52.098Z" fill="#EFEFEF"/>
<path d="M23.4733 66.6027L20.7071 67.154L21.0505 69.7563L18.3494 70.4201L18.3704 72.9475L16.4302 73.7734L16.8487 74.7548L19.4438 73.6499L19.4239 71.2538L22.2343 70.5646L21.8964 68.0042L24.4031 67.5047L23.4733 66.6027Z" fill="#F48C7F"/>
<path d="M207.76 88.0112L206.989 85.3019L204.418 85.8533L203.539 83.2167L201.018 83.4406L200.037 81.5759L199.092 82.071L200.403 84.5653L202.792 84.3536L203.707 87.096L206.235 86.5535L206.934 89.0092L207.76 88.0112Z" fill="#F7CC7F"/>
<path d="M23.9313 37.7014L22.3853 38.1744L21.3462 35.775L18.9996 36.1885L17.9284 34.519L17.0825 35.0605L18.5148 37.2934L20.7388 36.9008L21.8188 39.3984L24.1466 38.685L23.9313 37.7014Z" fill="#50BFA5"/>
<path d="M81.2568 47.4083C80.7168 46.9672 79.4568 46.5989 78.8274 46.5427C78.1979 46.4864 75.4604 46.4875 75.1059 47.1458C74.7514 47.8041 77.627 49.6666 77.7794 50.4418C77.9318 51.2169 76.1163 63.2406 75.5918 65.629C75.3323 66.8066 74.3384 69.0252 73.3965 70.9714C74.7503 71.192 76.4046 72.2947 77.4437 73.082C78.7755 70.1731 80.1381 66.907 80.3082 65.3632C80.6505 62.2636 81.7968 47.8571 81.2568 47.4083Z" fill="#F7A491"/>
<path d="M89.2007 26.6636C88.2675 26.5853 83.3844 30.3024 83.3844 30.3024L83.1636 30.5935C83.1636 30.5935 89.755 31.7061 90.0642 31.4988C90.9034 30.942 89.9681 26.7275 89.2007 26.6636ZM83.401 30.4127C84.9923 29.2571 88.2697 27.8412 88.9754 27.5457C89.3387 28.2139 89.67 29.9716 89.5728 30.7005C88.7954 30.6443 85.3291 30.7236 83.401 30.4171V30.4127Z" fill="#466EB6"/>
<path d="M82.0702 23.5815C81.2254 21.3243 80.3994 21.4291 79.8152 21.5052C79.2311 21.5813 76.5995 23.4415 76.8458 24.8706C77.0921 26.2996 82.3529 30.4755 82.3529 30.4755L82.7018 30.073C82.7018 30.073 82.9138 25.8387 82.0702 23.5815ZM77.6464 24.7316C77.5238 24.0182 79.3481 22.4987 79.9477 22.3057C80.0641 22.2837 80.1836 22.2837 80.3 22.3057C80.4104 22.3377 80.8124 22.5439 81.3082 23.8682C81.8504 25.3171 82.4125 28.6682 82.4125 30.0057C80.311 28.2514 77.7833 25.3447 77.6464 24.7316Z" fill="#466EB6"/>
<path d="M82.2724 29.8581L82.0316 30.7C81.9505 30.9834 82.1149 31.2788 82.3987 31.3597L82.6865 31.4418C82.9703 31.5227 83.2661 31.3586 83.3472 31.0752L83.588 30.2333C83.6691 29.9499 83.5047 29.6545 83.2208 29.5736L82.9331 29.4915C82.6492 29.4105 82.3534 29.5747 82.2724 29.8581Z" fill="#466EB6"/>
<path d="M87.7468 49.7801L69.5913 44.6031C69.1184 44.4683 68.7145 44.1589 68.4616 43.7376C68.2088 43.3164 68.1259 42.8149 68.2297 42.3348L71.4454 27.5005L95.0892 34.2434L89.761 49.1296C89.5347 49.7504 88.649 50.0371 87.7468 49.7801Z" fill="#F47458"/>
<path d="M95.1545 37.6993L69.4722 30.4348L69.6709 28.7091C69.6987 28.4658 69.7793 28.2314 69.9071 28.0224C70.035 27.8134 70.2069 27.6347 70.411 27.4989C70.615 27.363 70.8463 27.2732 71.0887 27.2358C71.3311 27.1984 71.5787 27.2142 71.8144 27.2822L95.0231 33.9634C95.848 34.2015 96.3483 34.8929 96.1075 35.4619L95.1545 37.6993Z" fill="#FAE0B2"/>
<path d="M82.7847 30.4269L81.7861 33.9203L82.2739 34.0593L83.2725 30.5659L82.7847 30.4269Z" fill="#466EB6"/>
<path d="M82.283 34.0433L78.5293 47.1755L79.1399 47.3496L82.8936 34.2173L82.283 34.0433Z" fill="#466EB6"/>
<path d="M76.5777 47.3874L76.6429 46.6155C76.0623 46.4489 75.4909 46.2516 74.9313 46.0245L74.8308 45.4356C74.505 44.6285 74.1428 45.2041 74.0368 45.3882C74.0368 45.3882 74.0103 46.4236 74.1262 46.5449C74.1262 46.5449 75.3509 47.8351 75.8732 48.3235C76.1316 48.565 76.9576 49.2354 76.9576 49.2354L77.6202 48.3257L76.5777 47.3874Z" fill="#F7A491"/>
</svg>
