<svg width="166" height="192" viewBox="0 0 166 192" fill="none" xmlns="http://www.w3.org/2000/svg">
<mask id="mask0" mask-type="alpha" maskUnits="userSpaceOnUse" x="0" y="0" width="166" height="192">
<rect width="166" height="192" rx="16" fill="url(#paint0_linear)"/>
</mask>
<g mask="url(#mask0)">
<rect width="166" height="192" rx="16" fill="url(#paint1_linear)"/>
<path d="M23.104 16.576V28H31.184V25.888H25.616V16.576H23.104ZM37.9164 22.976H34.2204C34.231 22.816 34.263 22.6347 34.3164 22.432C34.3804 22.2293 34.4817 22.0373 34.6204 21.856C34.7697 21.6747 34.9617 21.5253 35.1964 21.408C35.4417 21.28 35.7457 21.216 36.1084 21.216C36.663 21.216 37.0737 21.3653 37.3404 21.664C37.6177 21.9627 37.8097 22.4 37.9164 22.976ZM34.2204 24.416H40.1884C40.231 23.776 40.1777 23.1627 40.0284 22.576C39.879 21.9893 39.6337 21.4667 39.2924 21.008C38.9617 20.5493 38.535 20.1867 38.0124 19.92C37.4897 19.6427 36.8764 19.504 36.1724 19.504C35.543 19.504 34.967 19.616 34.4444 19.84C33.9324 20.064 33.4897 20.3733 33.1164 20.768C32.743 21.152 32.455 21.6107 32.2524 22.144C32.0497 22.6773 31.9484 23.2533 31.9484 23.872C31.9484 24.512 32.0444 25.0987 32.2364 25.632C32.439 26.1653 32.7217 26.624 33.0844 27.008C33.447 27.392 33.8897 27.6907 34.4124 27.904C34.935 28.1067 35.5217 28.208 36.1724 28.208C37.111 28.208 37.911 27.9947 38.5724 27.568C39.2337 27.1413 39.7244 26.432 40.0444 25.44H38.0444C37.9697 25.696 37.767 25.9413 37.4364 26.176C37.1057 26.4 36.711 26.512 36.2524 26.512C35.6124 26.512 35.1217 26.3467 34.7804 26.016C34.439 25.6853 34.2524 25.152 34.2204 24.416ZM41.4399 22.272H43.7119C43.7545 21.824 43.9039 21.504 44.1599 21.312C44.4159 21.12 44.7679 21.024 45.2159 21.024C45.4185 21.024 45.6052 21.04 45.7759 21.072C45.9572 21.0933 46.1119 21.1467 46.2399 21.232C46.3785 21.3067 46.4852 21.4187 46.5599 21.568C46.6452 21.7067 46.6879 21.8987 46.6879 22.144C46.6985 22.3787 46.6292 22.56 46.4799 22.688C46.3305 22.8053 46.1279 22.896 45.8719 22.96C45.6159 23.024 45.3225 23.072 44.9919 23.104C44.6612 23.136 44.3252 23.1787 43.9839 23.232C43.6425 23.2853 43.3012 23.36 42.9599 23.456C42.6292 23.5413 42.3305 23.6747 42.0639 23.856C41.8079 24.0373 41.5945 24.2827 41.4239 24.592C41.2639 24.8907 41.1839 25.2747 41.1839 25.744C41.1839 26.1707 41.2532 26.5387 41.3919 26.848C41.5412 27.1573 41.7439 27.4133 41.9999 27.616C42.2559 27.8187 42.5545 27.968 42.8959 28.064C43.2372 28.16 43.6052 28.208 43.9999 28.208C44.5119 28.208 45.0132 28.1333 45.5039 27.984C45.9945 27.8347 46.4212 27.5733 46.7839 27.2C46.7945 27.3387 46.8105 27.4773 46.8319 27.616C46.8639 27.744 46.9012 27.872 46.9439 28H49.2479C49.1412 27.8293 49.0665 27.5733 49.0239 27.232C48.9812 26.8907 48.9599 26.5333 48.9599 26.16V21.856C48.9599 21.3547 48.8479 20.9547 48.6239 20.656C48.3999 20.3467 48.1119 20.1067 47.7599 19.936C47.4079 19.7653 47.0185 19.6533 46.5919 19.6C46.1652 19.536 45.7439 19.504 45.3279 19.504C44.8692 19.504 44.4105 19.552 43.9519 19.648C43.5039 19.7333 43.0985 19.8827 42.7359 20.096C42.3732 20.3093 42.0745 20.592 41.8399 20.944C41.6052 21.296 41.4719 21.7387 41.4399 22.272ZM46.6879 23.952V24.8C46.6879 24.928 46.6719 25.0987 46.6399 25.312C46.6185 25.5253 46.5492 25.7387 46.4319 25.952C46.3145 26.1547 46.1332 26.3307 45.8879 26.48C45.6425 26.6293 45.2959 26.704 44.8479 26.704C44.6665 26.704 44.4905 26.688 44.3199 26.656C44.1492 26.624 43.9999 26.5707 43.8719 26.496C43.7439 26.4107 43.6425 26.2987 43.5679 26.16C43.4932 26.0213 43.4559 25.8507 43.4559 25.648C43.4559 25.4347 43.4932 25.2587 43.5679 25.12C43.6425 24.9813 43.7385 24.8693 43.8559 24.784C43.9839 24.688 44.1279 24.6133 44.2879 24.56C44.4585 24.5067 44.6292 24.464 44.7999 24.432C44.9812 24.4 45.1625 24.3733 45.3439 24.352C45.5252 24.3307 45.6959 24.304 45.8559 24.272C46.0265 24.24 46.1812 24.2027 46.3199 24.16C46.4692 24.1067 46.5919 24.0373 46.6879 23.952ZM50.7234 19.728V28H52.9954V24.272C52.9954 23.8987 53.0327 23.552 53.1074 23.232C53.182 22.912 53.3047 22.6347 53.4754 22.4C53.6567 22.1547 53.8914 21.9627 54.1794 21.824C54.4674 21.6853 54.8194 21.616 55.2354 21.616C55.374 21.616 55.518 21.6267 55.6674 21.648C55.8167 21.6587 55.9447 21.6747 56.0514 21.696V19.584C55.87 19.5307 55.7047 19.504 55.5554 19.504C55.2674 19.504 54.99 19.5467 54.7234 19.632C54.4567 19.7173 54.206 19.84 53.9714 20C53.7367 20.1493 53.5287 20.336 53.3474 20.56C53.166 20.7733 53.022 21.008 52.9154 21.264H52.8834V19.728H50.7234ZM57.2234 19.728V28H59.4954V23.664C59.4954 22.8213 59.634 22.2187 59.9114 21.856C60.1887 21.4827 60.6367 21.296 61.2554 21.296C61.7994 21.296 62.178 21.4667 62.3914 21.808C62.6047 22.1387 62.7114 22.6453 62.7114 23.328V28H64.9834V22.912C64.9834 22.4 64.9354 21.936 64.8394 21.52C64.754 21.0933 64.5994 20.736 64.3754 20.448C64.1514 20.1493 63.842 19.92 63.4474 19.76C63.0634 19.5893 62.5674 19.504 61.9594 19.504C61.4794 19.504 61.01 19.616 60.5514 19.84C60.0927 20.0533 59.7194 20.4 59.4314 20.88H59.3834V19.728H57.2234ZM69.0438 18.448V16.576H66.7718V18.448H69.0438ZM66.7718 19.728V28H69.0438V19.728H66.7718ZM70.8328 19.728V28H73.1048V23.664C73.1048 22.8213 73.2434 22.2187 73.5208 21.856C73.7981 21.4827 74.2461 21.296 74.8648 21.296C75.4088 21.296 75.7874 21.4667 76.0008 21.808C76.2141 22.1387 76.3208 22.6453 76.3208 23.328V28H78.5928V22.912C78.5928 22.4 78.5448 21.936 78.4488 21.52C78.3634 21.0933 78.2088 20.736 77.9848 20.448C77.7608 20.1493 77.4514 19.92 77.0568 19.76C76.6728 19.5893 76.1768 19.504 75.5688 19.504C75.0888 19.504 74.6194 19.616 74.1608 19.84C73.7021 20.0533 73.3288 20.4 73.0408 20.88H72.9928V19.728H70.8328ZM84.1731 26.048C83.8211 26.048 83.5278 25.9733 83.2931 25.824C83.0585 25.6747 82.8665 25.4827 82.7171 25.248C82.5785 25.0133 82.4771 24.752 82.4131 24.464C82.3598 24.1653 82.3331 23.8667 82.3331 23.568C82.3331 23.2587 82.3651 22.9653 82.4291 22.688C82.5038 22.4 82.6158 22.1493 82.7651 21.936C82.9251 21.712 83.1171 21.536 83.3411 21.408C83.5758 21.28 83.8531 21.216 84.1731 21.216C84.5465 21.216 84.8558 21.2853 85.1011 21.424C85.3465 21.5627 85.5438 21.7493 85.6931 21.984C85.8425 22.2187 85.9491 22.4907 86.0131 22.8C86.0771 23.0987 86.1091 23.4187 86.1091 23.76C86.1091 24.0587 86.0665 24.3467 85.9811 24.624C85.9065 24.8907 85.7891 25.1307 85.6291 25.344C85.4691 25.5573 85.2665 25.728 85.0211 25.856C84.7758 25.984 84.4931 26.048 84.1731 26.048ZM88.2691 27.472V19.728H86.1091V20.832H86.0771C85.7998 20.352 85.4531 20.0107 85.0371 19.808C84.6318 19.6053 84.1571 19.504 83.6131 19.504C83.0371 19.504 82.5251 19.616 82.0771 19.84C81.6398 20.064 81.2718 20.368 80.9731 20.752C80.6745 21.1253 80.4451 21.5627 80.2851 22.064C80.1358 22.5547 80.0611 23.0667 80.0611 23.6C80.0611 24.1653 80.1251 24.704 80.2531 25.216C80.3918 25.7173 80.6051 26.16 80.8931 26.544C81.1811 26.9173 81.5491 27.216 81.9971 27.44C82.4451 27.6533 82.9785 27.76 83.5971 27.76C84.0985 27.76 84.5731 27.6587 85.0211 27.456C85.4798 27.2427 85.8318 26.9173 86.0771 26.48H86.1091V27.568C86.1198 28.1547 85.9758 28.64 85.6771 29.024C85.3891 29.408 84.9251 29.6 84.2851 29.6C83.8798 29.6 83.5225 29.5147 83.2131 29.344C82.9038 29.184 82.6958 28.8907 82.5891 28.464H80.3331C80.3651 28.9333 80.4931 29.3333 80.7171 29.664C80.9518 30.0053 81.2398 30.2827 81.5811 30.496C81.9331 30.7093 82.3171 30.864 82.7331 30.96C83.1598 31.0667 83.5758 31.12 83.9811 31.12C84.9305 31.12 85.6878 30.992 86.2531 30.736C86.8185 30.48 87.2505 30.1653 87.5491 29.792C87.8478 29.4293 88.0398 29.0347 88.1251 28.608C88.2211 28.1813 88.2691 27.8027 88.2691 27.472ZM91.8584 25.312H89.6984C89.7197 25.8667 89.8424 26.3307 90.0664 26.704C90.301 27.0667 90.5944 27.36 90.9464 27.584C91.309 27.808 91.7197 27.968 92.1784 28.064C92.637 28.16 93.1064 28.208 93.5864 28.208C94.0557 28.208 94.5144 28.16 94.9624 28.064C95.421 27.9787 95.8264 27.824 96.1784 27.6C96.5304 27.376 96.813 27.0827 97.0264 26.72C97.2504 26.3467 97.3624 25.888 97.3624 25.344C97.3624 24.96 97.2877 24.64 97.1384 24.384C96.989 24.1173 96.7917 23.8987 96.5464 23.728C96.301 23.5467 96.0184 23.4027 95.6984 23.296C95.389 23.1893 95.069 23.0987 94.7384 23.024C94.4184 22.9493 94.1037 22.88 93.7944 22.816C93.485 22.752 93.2077 22.6827 92.9624 22.608C92.7277 22.5227 92.5357 22.416 92.3864 22.288C92.237 22.16 92.1624 21.9947 92.1624 21.792C92.1624 21.6213 92.205 21.488 92.2904 21.392C92.3757 21.2853 92.477 21.2053 92.5944 21.152C92.7224 21.0987 92.861 21.0667 93.0104 21.056C93.1597 21.0347 93.2984 21.024 93.4264 21.024C93.8317 21.024 94.1837 21.104 94.4824 21.264C94.781 21.4133 94.9464 21.7067 94.9784 22.144H97.1384C97.0957 21.632 96.9624 21.2107 96.7384 20.88C96.525 20.5387 96.253 20.2667 95.9224 20.064C95.5917 19.8613 95.213 19.7173 94.7864 19.632C94.3704 19.5467 93.9384 19.504 93.4904 19.504C93.0424 19.504 92.605 19.5467 92.1784 19.632C91.7517 19.7067 91.3677 19.8453 91.0264 20.048C90.685 20.24 90.4077 20.5067 90.1944 20.848C89.9917 21.1893 89.8904 21.6267 89.8904 22.16C89.8904 22.5227 89.965 22.832 90.1144 23.088C90.2637 23.3333 90.461 23.5413 90.7064 23.712C90.9517 23.872 91.229 24.0053 91.5384 24.112C91.8584 24.208 92.1837 24.2933 92.5144 24.368C93.325 24.5387 93.9544 24.7093 94.4024 24.88C94.861 25.0507 95.0904 25.3067 95.0904 25.648C95.0904 25.8507 95.0424 26.0213 94.9464 26.16C94.8504 26.288 94.7277 26.3947 94.5784 26.48C94.4397 26.5547 94.2797 26.6133 94.0984 26.656C93.9277 26.688 93.7624 26.704 93.6024 26.704C93.3784 26.704 93.1597 26.6773 92.9464 26.624C92.7437 26.5707 92.5624 26.4907 92.4024 26.384C92.2424 26.2667 92.109 26.1227 92.0024 25.952C91.9064 25.7707 91.8584 25.5573 91.8584 25.312Z" fill="white"/>
<path d="M123 107.804C100.454 107.804 82.1116 126.147 82.1116 148.692C82.1116 156.654 84.4026 164.371 88.7366 171.011C92.5113 176.794 97.6518 181.504 103.7 184.745V203.071L110.542 216H135.457L142.299 203.071V184.745C148.347 181.504 153.488 176.795 157.263 171.012C161.597 164.372 163.888 156.654 163.888 148.693C163.888 126.147 145.545 107.804 123 107.804ZM111.2 186.176H134.799V193.833H111.2V186.176ZM116.877 167.69H129.123L126.054 178.676H119.946L116.877 167.69ZM115.058 208.5L111.266 201.333H134.733L130.941 208.5H115.058ZM137.691 178.676H133.841L141.011 153.009L133.788 150.991L131.218 160.19H114.781L112.211 150.991L104.988 153.009L112.158 178.676H108.308C96.9253 173.086 89.6113 161.407 89.6113 148.692C89.6113 130.282 104.589 115.304 122.999 115.304C141.41 115.304 156.387 130.282 156.387 148.692C156.388 161.407 149.074 173.086 137.691 178.676Z" fill="white" fill-opacity="0.2"/>
<path d="M119.252 88H126.752V100.5H119.252V88Z" fill="white" fill-opacity="0.2"/>
<path d="M144.473 105.401L150.91 94.6761L157.345 98.5386L150.908 109.264L144.473 105.401Z" fill="white" fill-opacity="0.2"/>
<path d="M88.7285 98.5731L95.1635 94.7106L101.601 105.436L95.166 109.298L88.7285 98.5731Z" fill="white" fill-opacity="0.2"/>
<path d="M67.9609 123.393L71.4934 116.778L82.5184 122.665L78.9859 129.28L67.9609 123.393Z" fill="white" fill-opacity="0.2"/>
<path d="M62.5815 147.827L75.069 147.189L75.4515 154.682L62.964 155.319L62.5815 147.827Z" fill="white" fill-opacity="0.2"/>
<path d="M70.845 179.014L81.22 172.052L85.3975 178.277L75.0225 185.239L70.845 179.014Z" fill="white" fill-opacity="0.2"/>
</g>
<defs>
<linearGradient id="paint0_linear" x1="-2.50113e-06" y1="39.5" x2="152.142" y2="190.597" gradientUnits="userSpaceOnUse">
<stop stop-color="#02AAB0"/>
<stop offset="1" stop-color="#00CDAC"/>
</linearGradient>
<linearGradient id="paint1_linear" x1="-2.50113e-06" y1="39.5" x2="152.142" y2="190.597" gradientUnits="userSpaceOnUse">
<stop stop-color="#02C7A7"/>
<stop offset="1" stop-color="#02AAB0"/>
<stop offset="1" stop-color="#02AAB0"/>
</linearGradient>
</defs>
</svg>
