<svg width="37" height="36" viewBox="0 0 37 36" fill="none" xmlns="http://www.w3.org/2000/svg">
<path d="M29.981 12.3281V25.2881C29.981 26.9574 28.628 28.3103 26.9593 28.3103H14.0423L7.91199 35.0536V28.3103H3.57727C1.90861 28.3103 0.555664 26.9574 0.555664 25.2887V12.3287C0.555664 10.6595 1.90861 9.30652 3.57727 9.30652H26.9587C28.628 9.30652 29.981 10.6595 29.981 12.3281Z" fill="#0391FD"/>
<path d="M33.0897 0.724121H9.70764C8.03899 0.724121 6.68604 2.07707 6.68604 3.74634V9.3065H26.9594C28.6281 9.3065 29.981 10.6594 29.981 12.3287V19.728H33.0897C34.7584 19.728 36.1113 18.375 36.1113 16.7057V3.74634C36.1113 2.07707 34.7584 0.724121 33.0897 0.724121Z" fill="#0F71D3"/>
<path d="M15.8814 16.0589H7.29906C6.96006 16.0589 6.68604 15.7843 6.68604 15.4459C6.68604 15.1075 6.96006 14.8329 7.29906 14.8329H15.8814C16.2204 14.8329 16.4945 15.1075 16.4945 15.4459C16.4945 15.7843 16.2204 16.0589 15.8814 16.0589Z" fill="white"/>
<path d="M23.8508 19.7372H7.29906C6.96006 19.7372 6.68604 19.4625 6.68604 19.1241C6.68604 18.7857 6.96006 18.5111 7.29906 18.5111H23.8508C24.1898 18.5111 24.4638 18.7857 24.4638 19.1241C24.4638 19.4625 24.1898 19.7372 23.8508 19.7372Z" fill="white"/>
<path d="M23.8508 23.4153H7.29906C6.96006 23.4153 6.68604 23.1406 6.68604 22.8022C6.68604 22.4638 6.96006 22.1892 7.29906 22.1892H23.8508C24.1898 22.1892 24.4638 22.4638 24.4638 22.8022C24.4638 23.1406 24.1898 23.4153 23.8508 23.4153Z" fill="white"/>
</svg>
