<svg width="48" height="48" viewBox="0 0 48 48" fill="none" xmlns="http://www.w3.org/2000/svg">
<path d="M24 0C10.7656 0 0 10.7666 0 24C0 37.2334 10.7656 48 24 48C37.2344 48 48 37.2334 48 24C48 10.7666 37.2344 0 24 0ZM24 46C11.8691 46 1.99997 36.1309 1.99997 24C1.99997 11.8691 11.8691 1.99997 24 1.99997C36.1309 1.99997 46 11.8691 46 24C46 36.1309 36.1309 46 24 46Z" fill="white"/>
<path d="M33.5411 23.1594L19.5411 14.1594C19.2344 13.9592 18.8379 13.9484 18.5215 14.1223C18.1992 14.298 18 14.634 18 15.0002V33.0003C18 33.3664 18.1992 33.7024 18.5215 33.8782C18.6699 33.9593 18.836 34.0003 19 34.0003C19.1875 34.0003 19.377 33.9475 19.5411 33.8411L33.5411 24.8411C33.8263 24.6575 34.0001 24.3401 34.0001 24.0002C34.0001 23.6604 33.8263 23.3431 33.5411 23.1594Z" fill="white"/>
</svg>
