<svg width="166" height="96" viewBox="0 0 166 96" fill="none" xmlns="http://www.w3.org/2000/svg">
<mask id="mask0" mask-type="alpha" maskUnits="userSpaceOnUse" x="0" y="0" width="166" height="96">
<rect width="166" height="96" rx="16" fill="#EEEEFF"/>
<rect width="166" height="96" rx="16" fill="url(#paint0_linear)"/>
</mask>
<g mask="url(#mask0)">
<rect width="166" height="96" rx="16" fill="#EEEEFF"/>
<rect width="166" height="96" rx="16" fill="url(#paint1_linear)"/>
<path d="M25.616 21.744V18.528H28.368C28.944 18.528 29.376 18.656 29.664 18.912C29.952 19.1573 30.096 19.5573 30.096 20.112C30.096 20.688 29.952 21.104 29.664 21.36C29.376 21.616 28.944 21.744 28.368 21.744H25.616ZM23.104 16.576V28H25.616V23.536H28.128C28.7573 23.536 29.2107 23.6747 29.488 23.952C29.7653 24.2293 29.9467 24.6667 30.032 25.264C30.096 25.7227 30.144 26.2027 30.176 26.704C30.208 27.2053 30.2933 27.6373 30.432 28H32.944C32.8267 27.84 32.736 27.648 32.672 27.424C32.6187 27.1893 32.576 26.944 32.544 26.688C32.5227 26.432 32.5067 26.1813 32.496 25.936C32.4853 25.6907 32.4747 25.4773 32.464 25.296C32.4427 25.008 32.4 24.72 32.336 24.432C32.2827 24.144 32.192 23.8827 32.064 23.648C31.936 23.4027 31.7707 23.1947 31.568 23.024C31.3653 22.8427 31.1093 22.7093 30.8 22.624V22.592C31.44 22.336 31.8987 21.9627 32.176 21.472C32.464 20.9813 32.608 20.4 32.608 19.728C32.608 19.2907 32.528 18.8853 32.368 18.512C32.2187 18.128 31.9947 17.792 31.696 17.504C31.408 17.216 31.056 16.992 30.64 16.832C30.2347 16.6613 29.776 16.576 29.264 16.576H23.104ZM34.3149 22.272H36.5869C36.6295 21.824 36.7789 21.504 37.0349 21.312C37.2909 21.12 37.6429 21.024 38.0909 21.024C38.2935 21.024 38.4802 21.04 38.6509 21.072C38.8322 21.0933 38.9869 21.1467 39.1149 21.232C39.2535 21.3067 39.3602 21.4187 39.4349 21.568C39.5202 21.7067 39.5629 21.8987 39.5629 22.144C39.5735 22.3787 39.5042 22.56 39.3549 22.688C39.2055 22.8053 39.0029 22.896 38.7469 22.96C38.4909 23.024 38.1975 23.072 37.8669 23.104C37.5362 23.136 37.2002 23.1787 36.8589 23.232C36.5175 23.2853 36.1762 23.36 35.8349 23.456C35.5042 23.5413 35.2055 23.6747 34.9389 23.856C34.6829 24.0373 34.4695 24.2827 34.2989 24.592C34.1389 24.8907 34.0589 25.2747 34.0589 25.744C34.0589 26.1707 34.1282 26.5387 34.2669 26.848C34.4162 27.1573 34.6189 27.4133 34.8749 27.616C35.1309 27.8187 35.4295 27.968 35.7709 28.064C36.1122 28.16 36.4802 28.208 36.8749 28.208C37.3869 28.208 37.8882 28.1333 38.3789 27.984C38.8695 27.8347 39.2962 27.5733 39.6589 27.2C39.6695 27.3387 39.6855 27.4773 39.7069 27.616C39.7389 27.744 39.7762 27.872 39.8189 28H42.1229C42.0162 27.8293 41.9415 27.5733 41.8989 27.232C41.8562 26.8907 41.8349 26.5333 41.8349 26.16V21.856C41.8349 21.3547 41.7229 20.9547 41.4989 20.656C41.2749 20.3467 40.9869 20.1067 40.6349 19.936C40.2829 19.7653 39.8935 19.6533 39.4669 19.6C39.0402 19.536 38.6189 19.504 38.2029 19.504C37.7442 19.504 37.2855 19.552 36.8269 19.648C36.3789 19.7333 35.9735 19.8827 35.6109 20.096C35.2482 20.3093 34.9495 20.592 34.7149 20.944C34.4802 21.296 34.3469 21.7387 34.3149 22.272ZM39.5629 23.952V24.8C39.5629 24.928 39.5469 25.0987 39.5149 25.312C39.4935 25.5253 39.4242 25.7387 39.3069 25.952C39.1895 26.1547 39.0082 26.3307 38.7629 26.48C38.5175 26.6293 38.1709 26.704 37.7229 26.704C37.5415 26.704 37.3655 26.688 37.1949 26.656C37.0242 26.624 36.8749 26.5707 36.7469 26.496C36.6189 26.4107 36.5175 26.2987 36.4429 26.16C36.3682 26.0213 36.3309 25.8507 36.3309 25.648C36.3309 25.4347 36.3682 25.2587 36.4429 25.12C36.5175 24.9813 36.6135 24.8693 36.7309 24.784C36.8589 24.688 37.0029 24.6133 37.1629 24.56C37.3335 24.5067 37.5042 24.464 37.6749 24.432C37.8562 24.4 38.0375 24.3733 38.2189 24.352C38.4002 24.3307 38.5709 24.304 38.7309 24.272C38.9015 24.24 39.0562 24.2027 39.1949 24.16C39.3442 24.1067 39.4669 24.0373 39.5629 23.952ZM46.4784 19.728V17.248H44.2064V19.728H42.8304V21.248H44.2064V26.128C44.2064 26.544 44.2757 26.88 44.4144 27.136C44.553 27.392 44.7397 27.5893 44.9744 27.728C45.2197 27.8667 45.497 27.9573 45.8064 28C46.1264 28.0533 46.4624 28.08 46.8144 28.08C47.0384 28.08 47.2677 28.0747 47.5024 28.064C47.737 28.0533 47.9504 28.032 48.1424 28V26.24C48.0357 26.2613 47.9237 26.2773 47.8064 26.288C47.689 26.2987 47.5664 26.304 47.4384 26.304C47.0544 26.304 46.7984 26.24 46.6704 26.112C46.5424 25.984 46.4784 25.728 46.4784 25.344V21.248H48.1424V19.728H46.4784ZM54.7914 22.976H51.0954C51.106 22.816 51.138 22.6347 51.1914 22.432C51.2554 22.2293 51.3567 22.0373 51.4954 21.856C51.6447 21.6747 51.8367 21.5253 52.0714 21.408C52.3167 21.28 52.6207 21.216 52.9834 21.216C53.538 21.216 53.9487 21.3653 54.2154 21.664C54.4927 21.9627 54.6847 22.4 54.7914 22.976ZM51.0954 24.416H57.0634C57.106 23.776 57.0527 23.1627 56.9034 22.576C56.754 21.9893 56.5087 21.4667 56.1674 21.008C55.8367 20.5493 55.41 20.1867 54.8874 19.92C54.3647 19.6427 53.7514 19.504 53.0474 19.504C52.418 19.504 51.842 19.616 51.3194 19.84C50.8074 20.064 50.3647 20.3733 49.9914 20.768C49.618 21.152 49.33 21.6107 49.1274 22.144C48.9247 22.6773 48.8234 23.2533 48.8234 23.872C48.8234 24.512 48.9194 25.0987 49.1114 25.632C49.314 26.1653 49.5967 26.624 49.9594 27.008C50.322 27.392 50.7647 27.6907 51.2874 27.904C51.81 28.1067 52.3967 28.208 53.0474 28.208C53.986 28.208 54.786 27.9947 55.4474 27.568C56.1087 27.1413 56.5994 26.432 56.9194 25.44H54.9194C54.8447 25.696 54.642 25.9413 54.3114 26.176C53.9807 26.4 53.586 26.512 53.1274 26.512C52.4874 26.512 51.9967 26.3467 51.6554 26.016C51.314 25.6853 51.1274 25.152 51.0954 24.416ZM65.744 19.728V17.248H63.472V19.728H62.096V21.248H63.472V26.128C63.472 26.544 63.5413 26.88 63.68 27.136C63.8187 27.392 64.0053 27.5893 64.24 27.728C64.4853 27.8667 64.7627 27.9573 65.072 28C65.392 28.0533 65.728 28.08 66.08 28.08C66.304 28.08 66.5333 28.0747 66.768 28.064C67.0027 28.0533 67.216 28.032 67.408 28V26.24C67.3013 26.2613 67.1893 26.2773 67.072 26.288C66.9547 26.2987 66.832 26.304 66.704 26.304C66.32 26.304 66.064 26.24 65.936 26.112C65.808 25.984 65.744 25.728 65.744 25.344V21.248H67.408V19.728H65.744ZM68.489 16.576V28H70.761V23.664C70.761 22.8213 70.8997 22.2187 71.177 21.856C71.4543 21.4827 71.9023 21.296 72.521 21.296C73.065 21.296 73.4437 21.4667 73.657 21.808C73.8703 22.1387 73.977 22.6453 73.977 23.328V28H76.249V22.912C76.249 22.4 76.201 21.936 76.105 21.52C76.0197 21.0933 75.865 20.736 75.641 20.448C75.417 20.1493 75.1077 19.92 74.713 19.76C74.329 19.5893 73.833 19.504 73.225 19.504C72.7983 19.504 72.361 19.616 71.913 19.84C71.465 20.0533 71.097 20.4 70.809 20.88H70.761V16.576H68.489ZM83.5414 22.976H79.8454C79.856 22.816 79.888 22.6347 79.9414 22.432C80.0054 22.2293 80.1067 22.0373 80.2454 21.856C80.3947 21.6747 80.5867 21.5253 80.8214 21.408C81.0667 21.28 81.3707 21.216 81.7334 21.216C82.288 21.216 82.6987 21.3653 82.9654 21.664C83.2427 21.9627 83.4347 22.4 83.5414 22.976ZM79.8454 24.416H85.8134C85.856 23.776 85.8027 23.1627 85.6534 22.576C85.504 21.9893 85.2587 21.4667 84.9174 21.008C84.5867 20.5493 84.16 20.1867 83.6374 19.92C83.1147 19.6427 82.5014 19.504 81.7974 19.504C81.168 19.504 80.592 19.616 80.0694 19.84C79.5574 20.064 79.1147 20.3733 78.7414 20.768C78.368 21.152 78.08 21.6107 77.8774 22.144C77.6747 22.6773 77.5734 23.2533 77.5734 23.872C77.5734 24.512 77.6694 25.0987 77.8614 25.632C78.064 26.1653 78.3467 26.624 78.7094 27.008C79.072 27.392 79.5147 27.6907 80.0374 27.904C80.56 28.1067 81.1467 28.208 81.7974 28.208C82.736 28.208 83.536 27.9947 84.1974 27.568C84.8587 27.1413 85.3494 26.432 85.6694 25.44H83.6694C83.5947 25.696 83.392 25.9413 83.0614 26.176C82.7307 26.4 82.336 26.512 81.8774 26.512C81.2374 26.512 80.7467 26.3467 80.4054 26.016C80.064 25.6853 79.8774 25.152 79.8454 24.416ZM91.518 22.272H93.79C93.8327 21.824 93.982 21.504 94.238 21.312C94.494 21.12 94.846 21.024 95.294 21.024C95.4967 21.024 95.6833 21.04 95.854 21.072C96.0353 21.0933 96.19 21.1467 96.318 21.232C96.4567 21.3067 96.5633 21.4187 96.638 21.568C96.7233 21.7067 96.766 21.8987 96.766 22.144C96.7767 22.3787 96.7073 22.56 96.558 22.688C96.4087 22.8053 96.206 22.896 95.95 22.96C95.694 23.024 95.4007 23.072 95.07 23.104C94.7393 23.136 94.4033 23.1787 94.062 23.232C93.7207 23.2853 93.3793 23.36 93.038 23.456C92.7073 23.5413 92.4087 23.6747 92.142 23.856C91.886 24.0373 91.6727 24.2827 91.502 24.592C91.342 24.8907 91.262 25.2747 91.262 25.744C91.262 26.1707 91.3313 26.5387 91.47 26.848C91.6193 27.1573 91.822 27.4133 92.078 27.616C92.334 27.8187 92.6327 27.968 92.974 28.064C93.3153 28.16 93.6833 28.208 94.078 28.208C94.59 28.208 95.0913 28.1333 95.582 27.984C96.0727 27.8347 96.4993 27.5733 96.862 27.2C96.8727 27.3387 96.8887 27.4773 96.91 27.616C96.942 27.744 96.9793 27.872 97.022 28H99.326C99.2193 27.8293 99.1447 27.5733 99.102 27.232C99.0593 26.8907 99.038 26.5333 99.038 26.16V21.856C99.038 21.3547 98.926 20.9547 98.702 20.656C98.478 20.3467 98.19 20.1067 97.838 19.936C97.486 19.7653 97.0967 19.6533 96.67 19.6C96.2433 19.536 95.822 19.504 95.406 19.504C94.9473 19.504 94.4887 19.552 94.03 19.648C93.582 19.7333 93.1767 19.8827 92.814 20.096C92.4513 20.3093 92.1527 20.592 91.918 20.944C91.6833 21.296 91.55 21.7387 91.518 22.272ZM96.766 23.952V24.8C96.766 24.928 96.75 25.0987 96.718 25.312C96.6967 25.5253 96.6273 25.7387 96.51 25.952C96.3927 26.1547 96.2113 26.3307 95.966 26.48C95.7207 26.6293 95.374 26.704 94.926 26.704C94.7447 26.704 94.5687 26.688 94.398 26.656C94.2273 26.624 94.078 26.5707 93.95 26.496C93.822 26.4107 93.7207 26.2987 93.646 26.16C93.5713 26.0213 93.534 25.8507 93.534 25.648C93.534 25.4347 93.5713 25.2587 93.646 25.12C93.7207 24.9813 93.8167 24.8693 93.934 24.784C94.062 24.688 94.206 24.6133 94.366 24.56C94.5367 24.5067 94.7073 24.464 94.878 24.432C95.0593 24.4 95.2407 24.3733 95.422 24.352C95.6033 24.3307 95.774 24.304 95.934 24.272C96.1047 24.24 96.2593 24.2027 96.398 24.16C96.5473 24.1067 96.67 24.0373 96.766 23.952ZM104.978 26.512C104.615 26.512 104.306 26.4373 104.049 26.288C103.794 26.1387 103.586 25.9467 103.426 25.712C103.276 25.4667 103.164 25.184 103.09 24.864C103.026 24.544 102.994 24.2187 102.994 23.888C102.994 23.5467 103.026 23.216 103.09 22.896C103.154 22.576 103.26 22.2933 103.41 22.048C103.57 21.8027 103.772 21.6053 104.018 21.456C104.274 21.296 104.588 21.216 104.962 21.216C105.324 21.216 105.628 21.296 105.874 21.456C106.13 21.6053 106.338 21.808 106.498 22.064C106.658 22.3093 106.77 22.592 106.834 22.912C106.908 23.232 106.946 23.5573 106.946 23.888C106.946 24.2187 106.914 24.544 106.85 24.864C106.786 25.184 106.674 25.4667 106.514 25.712C106.364 25.9467 106.162 26.1387 105.906 26.288C105.66 26.4373 105.351 26.512 104.978 26.512ZM100.802 19.728V30.896H103.074V26.976H103.106C103.383 27.3813 103.735 27.6907 104.161 27.904C104.599 28.1067 105.074 28.208 105.586 28.208C106.194 28.208 106.722 28.0907 107.17 27.856C107.628 27.6213 108.007 27.3067 108.306 26.912C108.615 26.5173 108.844 26.064 108.994 25.552C109.143 25.04 109.218 24.5067 109.218 23.952C109.218 23.3653 109.143 22.8053 108.994 22.272C108.844 21.728 108.615 21.2533 108.306 20.848C107.996 20.4427 107.607 20.1173 107.138 19.872C106.668 19.6267 106.108 19.504 105.458 19.504C104.946 19.504 104.476 19.6053 104.049 19.808C103.623 20.0107 103.271 20.336 102.994 20.784H102.962V19.728H100.802ZM114.759 26.512C114.396 26.512 114.087 26.4373 113.831 26.288C113.575 26.1387 113.367 25.9467 113.207 25.712C113.057 25.4667 112.945 25.184 112.871 24.864C112.807 24.544 112.775 24.2187 112.775 23.888C112.775 23.5467 112.807 23.216 112.871 22.896C112.935 22.576 113.041 22.2933 113.191 22.048C113.351 21.8027 113.553 21.6053 113.799 21.456C114.055 21.296 114.369 21.216 114.743 21.216C115.105 21.216 115.409 21.296 115.655 21.456C115.911 21.6053 116.119 21.808 116.279 22.064C116.439 22.3093 116.551 22.592 116.615 22.912C116.689 23.232 116.727 23.5573 116.727 23.888C116.727 24.2187 116.695 24.544 116.631 24.864C116.567 25.184 116.455 25.4667 116.295 25.712C116.145 25.9467 115.943 26.1387 115.687 26.288C115.441 26.4373 115.132 26.512 114.759 26.512ZM110.583 19.728V30.896H112.855V26.976H112.887C113.164 27.3813 113.516 27.6907 113.943 27.904C114.38 28.1067 114.855 28.208 115.367 28.208C115.975 28.208 116.503 28.0907 116.951 27.856C117.409 27.6213 117.788 27.3067 118.087 26.912C118.396 26.5173 118.625 26.064 118.775 25.552C118.924 25.04 118.999 24.5067 118.999 23.952C118.999 23.3653 118.924 22.8053 118.775 22.272C118.625 21.728 118.396 21.2533 118.087 20.848C117.777 20.4427 117.388 20.1173 116.919 19.872C116.449 19.6267 115.889 19.504 115.239 19.504C114.727 19.504 114.257 19.6053 113.831 19.808C113.404 20.0107 113.052 20.336 112.775 20.784H112.743V19.728H110.583Z" fill="white"/>
<path d="M122.5 -22C92.9905 -22 69 -0.670315 69 25.4644C69 37.5356 73.9558 48.7864 83.0789 57.5761C81.0516 62.3812 78.3484 68.0066 74.9695 71.874C72.9421 74.218 72.3789 77.6167 73.7305 80.5466C74.9695 83.3593 77.6726 85 80.6011 85C80.7137 85 80.9389 85 81.0516 85C95.5811 84.2968 105.831 77.9682 112.363 72.1084C146.265 78.0854 176 54.6462 176 25.4644C176 -0.670315 152.009 -22 122.5 -22ZM122.5 63.3187C119.008 63.3187 115.404 62.9671 111.8 62.1468C110.336 61.7952 108.759 62.264 107.633 63.4359C103.127 67.8894 95.5811 73.2804 84.6558 75.0383C88.3726 69.6473 91.1884 63.0843 92.9905 58.1621C93.7789 56.1698 93.1032 53.943 91.5263 52.6539C82.9663 45.5049 78.2358 35.8949 78.2358 25.6988C78.2358 4.8379 98.0589 -12.0383 122.387 -12.0383C146.716 -12.0383 173 0.5 167.5 24C167.5 44.7437 146.828 63.3187 122.5 63.3187Z" fill="white" fill-opacity="0.2"/>
<path d="M105.381 20.3077L101.101 19.9561C100.425 19.9561 99.9743 19.4874 99.6364 18.9014L97.9469 14.7995C97.3838 13.3932 95.469 13.3932 94.7932 14.7995L93.1038 18.9014C92.8785 19.4874 92.3153 19.9561 91.6395 19.9561L87.3595 20.3077C85.8953 20.4249 85.2195 22.4173 86.3459 23.3548L89.6122 26.2847C90.0627 26.7535 90.288 27.3395 90.1753 28.0427L89.1617 32.3789C88.8238 33.9025 90.4006 35.0744 91.6395 34.2541L95.2438 31.9101C95.8069 31.5586 96.4827 31.5586 97.0459 31.9101L100.65 34.2541C101.889 35.0744 103.466 33.9025 103.128 32.3789L102.565 28.0427C102.452 27.4567 102.677 26.7535 103.128 26.2847L106.394 23.3548C107.521 22.4173 106.845 20.4249 105.381 20.3077Z" fill="white" fill-opacity="0.2"/>
<path d="M131.397 20.3077L127.117 19.9561C126.441 19.9561 125.991 19.4874 125.653 18.9014L123.963 14.7995C123.4 13.3932 121.485 13.3932 120.81 14.7995L119.12 18.9014C118.895 19.4874 118.332 19.9561 117.656 19.9561L113.376 20.3077C111.912 20.4249 111.236 22.4173 112.362 23.3548L115.629 26.2847C116.079 26.7535 116.304 27.3395 116.192 28.0427L115.178 32.3789C115.065 33.9025 116.642 35.0744 117.994 34.2541L121.598 31.9101C122.161 31.5586 122.837 31.5586 123.4 31.9101L127.004 34.2541C128.243 35.0744 129.82 33.9025 129.482 32.3789L128.581 28.0427C128.469 27.4567 128.694 26.7535 129.144 26.2847L132.411 23.3548C133.424 22.4173 132.861 20.4249 131.397 20.3077Z" fill="white" fill-opacity="0.2"/>
<path d="M157.304 20.3077L153.024 19.9561C152.349 19.9561 151.898 19.4874 151.56 18.9014L149.871 14.7995C149.308 13.3932 147.393 13.3932 146.717 14.7995L145.028 18.9014C144.802 19.4874 144.239 19.9561 143.563 19.9561L139.283 20.3077C137.819 20.4249 137.143 22.4173 138.27 23.3548L141.536 26.2847C141.987 26.7535 142.212 27.3395 142.099 28.0427L141.085 32.3789C141.085 33.9025 142.662 35.0744 143.901 34.2541L147.505 31.9101C148.069 31.5586 148.744 31.5586 149.308 31.9101L152.912 34.2541C154.151 35.0744 155.728 33.9025 155.39 32.3789L154.489 28.0427C154.376 27.4567 154.601 26.7535 155.052 26.2847L158.318 23.3548C159.444 22.4173 158.881 20.4249 157.304 20.3077Z" fill="white" fill-opacity="0.2"/>
</g>
<defs>
<linearGradient id="paint0_linear" x1="0" y1="0" x2="162.709" y2="101.286" gradientUnits="userSpaceOnUse">
<stop stop-color="#FF512F"/>
<stop offset="1" stop-color="#DD2476"/>
</linearGradient>
<linearGradient id="paint1_linear" x1="0" y1="0" x2="162.709" y2="101.286" gradientUnits="userSpaceOnUse">
<stop stop-color="#F7502F"/>
<stop offset="1" stop-color="#D72574"/>
</linearGradient>
</defs>
</svg>
