<svg width="80" height="16" viewBox="0 0 80 16" fill="none" xmlns="http://www.w3.org/2000/svg">
<path d="M7.27355 1.57493C7.55949 0.955034 8.44051 0.955034 8.72645 1.57493L10.0695 4.48674C10.1861 4.73939 10.4255 4.91334 10.7018 4.9461L13.8861 5.32365C14.564 5.40403 14.8363 6.24194 14.3351 6.70544L11.9808 8.88259C11.7766 9.07149 11.6851 9.35295 11.7393 9.62584L12.3643 12.771C12.4973 13.4406 11.7845 13.9584 11.1889 13.625L8.39075 12.0587C8.14797 11.9228 7.85203 11.9228 7.60925 12.0587L4.81115 13.625C4.21546 13.9584 3.50269 13.4406 3.63573 12.771L4.26067 9.62584C4.31489 9.35295 4.22344 9.07149 4.01917 8.88259L1.66491 6.70544C1.16371 6.24194 1.43597 5.40403 2.11388 5.32365L5.29821 4.9461C5.5745 4.91334 5.81393 4.73939 5.93047 4.48674L7.27355 1.57493Z" fill="#FFCC00"/>
<path d="M23.2736 1.57493C23.5595 0.955034 24.4405 0.955034 24.7264 1.57493L26.0695 4.48674C26.1861 4.73939 26.4255 4.91334 26.7018 4.9461L29.8861 5.32365C30.564 5.40403 30.8363 6.24194 30.3351 6.70544L27.9808 8.88259C27.7766 9.07149 27.6851 9.35295 27.7393 9.62584L28.3643 12.771C28.4973 13.4406 27.7845 13.9584 27.1889 13.625L24.3908 12.0587C24.148 11.9228 23.852 11.9228 23.6092 12.0587L20.8111 13.625C20.2155 13.9584 19.5027 13.4406 19.6357 12.771L20.2607 9.62584C20.3149 9.35295 20.2234 9.07149 20.0192 8.88259L17.6649 6.70544C17.1637 6.24194 17.436 5.40403 18.1139 5.32365L21.2982 4.9461C21.5745 4.91334 21.8139 4.73939 21.9305 4.48674L23.2736 1.57493Z" fill="#FFCC00"/>
<path d="M39.2736 1.57493C39.5595 0.955034 40.4405 0.955034 40.7264 1.57493L42.0695 4.48674C42.1861 4.73939 42.4255 4.91334 42.7018 4.9461L45.8861 5.32365C46.564 5.40403 46.8363 6.24194 46.3351 6.70544L43.9808 8.88259C43.7766 9.07149 43.6851 9.35295 43.7393 9.62584L44.3643 12.771C44.4973 13.4406 43.7845 13.9584 43.1889 13.625L40.3908 12.0587C40.148 11.9228 39.852 11.9228 39.6092 12.0587L36.8111 13.625C36.2155 13.9584 35.5027 13.4406 35.6357 12.771L36.2607 9.62584C36.3149 9.35295 36.2234 9.07149 36.0192 8.88259L33.6649 6.70544C33.1637 6.24194 33.436 5.40403 34.1139 5.32365L37.2982 4.9461C37.5745 4.91334 37.8139 4.73939 37.9305 4.48674L39.2736 1.57493Z" fill="#FFCC00"/>
<path d="M55.2736 1.57493C55.5595 0.955034 56.4405 0.955034 56.7264 1.57493L58.0695 4.48674C58.1861 4.73939 58.4255 4.91334 58.7018 4.9461L61.8861 5.32365C62.564 5.40403 62.8363 6.24194 62.3351 6.70544L59.9808 8.88259C59.7766 9.07149 59.6851 9.35295 59.7393 9.62584L60.3643 12.771C60.4973 13.4406 59.7845 13.9584 59.1889 13.625L56.3908 12.0587C56.148 11.9228 55.852 11.9228 55.6092 12.0587L52.8111 13.625C52.2155 13.9584 51.5027 13.4406 51.6357 12.771L52.2607 9.62584C52.3149 9.35295 52.2234 9.07149 52.0192 8.88259L49.6649 6.70544C49.1637 6.24194 49.436 5.40403 50.1139 5.32365L53.2982 4.9461C53.5745 4.91334 53.8139 4.73939 53.9305 4.48674L55.2736 1.57493Z" fill="#FFCC00"/>
<path d="M71.2736 1.57493C71.5595 0.955034 72.4405 0.955034 72.7264 1.57493L74.0695 4.48674C74.1861 4.73939 74.4255 4.91334 74.7018 4.9461L77.8861 5.32365C78.564 5.40403 78.8363 6.24194 78.3351 6.70544L75.9808 8.88259C75.7766 9.07149 75.6851 9.35295 75.7393 9.62584L76.3643 12.771C76.4973 13.4406 75.7845 13.9584 75.1889 13.625L72.3908 12.0587C72.148 11.9228 71.852 11.9228 71.6092 12.0587L68.8111 13.625C68.2155 13.9584 67.5027 13.4406 67.6357 12.771L68.2607 9.62584C68.3149 9.35295 68.2234 9.07149 68.0192 8.88259L65.6649 6.70544C65.1637 6.24194 65.436 5.40403 66.1139 5.32365L69.2982 4.9461C69.5745 4.91334 69.8139 4.73939 69.9305 4.48674L71.2736 1.57493Z" fill="#888888"/>
<path d="M74.0696 4.48674L72.7265 1.57493C72.4406 0.955035 71.5595 0.955034 71.2736 1.57493L69.9305 4.48674C69.814 4.73939 69.5746 4.91334 69.2983 4.9461L66.1139 5.32365C65.436 5.40403 65.1638 6.24194 65.665 6.70544L68.0192 8.88259C68.2235 9.07149 68.3149 9.35295 68.2607 9.62584L67.6358 12.771C67.5027 13.4406 68.2155 13.9584 68.8112 13.625L71.6093 12.0587C71.8521 11.9228 72.148 11.9228 72.3908 12.0587L75.6521 13.8843V9.18663V5.05877L74.7018 4.9461C74.4255 4.91334 74.1861 4.73939 74.0696 4.48674Z" fill="#FFCC00"/>
</svg>
