<svg width="166" height="96" viewBox="0 0 166 96" fill="none" xmlns="http://www.w3.org/2000/svg">
<mask id="mask0" mask-type="alpha" maskUnits="userSpaceOnUse" x="0" y="0" width="166" height="96">
<rect width="166" height="96" rx="16" fill="url(#paint0_linear)"/>
</mask>
<g mask="url(#mask0)">
<rect width="166" height="96" rx="16" fill="url(#paint1_linear)"/>
<path d="M25.616 21.744V18.528H28.368C28.944 18.528 29.376 18.656 29.664 18.912C29.952 19.1573 30.096 19.5573 30.096 20.112C30.096 20.688 29.952 21.104 29.664 21.36C29.376 21.616 28.944 21.744 28.368 21.744H25.616ZM23.104 16.576V28H25.616V23.536H28.128C28.7573 23.536 29.2107 23.6747 29.488 23.952C29.7653 24.2293 29.9467 24.6667 30.032 25.264C30.096 25.7227 30.144 26.2027 30.176 26.704C30.208 27.2053 30.2933 27.6373 30.432 28H32.944C32.8267 27.84 32.736 27.648 32.672 27.424C32.6187 27.1893 32.576 26.944 32.544 26.688C32.5227 26.432 32.5067 26.1813 32.496 25.936C32.4853 25.6907 32.4747 25.4773 32.464 25.296C32.4427 25.008 32.4 24.72 32.336 24.432C32.2827 24.144 32.192 23.8827 32.064 23.648C31.936 23.4027 31.7707 23.1947 31.568 23.024C31.3653 22.8427 31.1093 22.7093 30.8 22.624V22.592C31.44 22.336 31.8987 21.9627 32.176 21.472C32.464 20.9813 32.608 20.4 32.608 19.728C32.608 19.2907 32.528 18.8853 32.368 18.512C32.2187 18.128 31.9947 17.792 31.696 17.504C31.408 17.216 31.056 16.992 30.64 16.832C30.2347 16.6613 29.776 16.576 29.264 16.576H23.104ZM39.9789 22.976H36.2829C36.2935 22.816 36.3255 22.6347 36.3789 22.432C36.4429 22.2293 36.5442 22.0373 36.6829 21.856C36.8322 21.6747 37.0242 21.5253 37.2589 21.408C37.5042 21.28 37.8082 21.216 38.1709 21.216C38.7255 21.216 39.1362 21.3653 39.4029 21.664C39.6802 21.9627 39.8722 22.4 39.9789 22.976ZM36.2829 24.416H42.2509C42.2935 23.776 42.2402 23.1627 42.0909 22.576C41.9415 21.9893 41.6962 21.4667 41.3549 21.008C41.0242 20.5493 40.5975 20.1867 40.0749 19.92C39.5522 19.6427 38.9389 19.504 38.2349 19.504C37.6055 19.504 37.0295 19.616 36.5069 19.84C35.9949 20.064 35.5522 20.3733 35.1789 20.768C34.8055 21.152 34.5175 21.6107 34.3149 22.144C34.1122 22.6773 34.0109 23.2533 34.0109 23.872C34.0109 24.512 34.1069 25.0987 34.2989 25.632C34.5015 26.1653 34.7842 26.624 35.1469 27.008C35.5095 27.392 35.9522 27.6907 36.4749 27.904C36.9975 28.1067 37.5842 28.208 38.2349 28.208C39.1735 28.208 39.9735 27.9947 40.6349 27.568C41.2962 27.1413 41.7869 26.432 42.1069 25.44H40.1069C40.0322 25.696 39.8295 25.9413 39.4989 26.176C39.1682 26.4 38.7735 26.512 38.3149 26.512C37.6749 26.512 37.1842 26.3467 36.8429 26.016C36.5015 25.6853 36.3149 25.152 36.2829 24.416ZM44.0944 21.248V28H46.3664V21.248H47.9344V19.728H46.3664V19.232C46.3664 18.8907 46.4304 18.6507 46.5584 18.512C46.697 18.3627 46.921 18.288 47.2304 18.288C47.5184 18.288 47.7957 18.304 48.0624 18.336V16.64C47.8704 16.6293 47.673 16.6187 47.4704 16.608C47.2677 16.5867 47.065 16.576 46.8624 16.576C45.9344 16.576 45.241 16.8107 44.7824 17.28C44.3237 17.7493 44.0944 18.352 44.0944 19.088V19.728H42.7344V21.248H44.0944ZM54.4945 22.976H50.7985C50.8092 22.816 50.8412 22.6347 50.8945 22.432C50.9585 22.2293 51.0598 22.0373 51.1985 21.856C51.3478 21.6747 51.5398 21.5253 51.7745 21.408C52.0198 21.28 52.3238 21.216 52.6865 21.216C53.2412 21.216 53.6518 21.3653 53.9185 21.664C54.1958 21.9627 54.3878 22.4 54.4945 22.976ZM50.7985 24.416H56.7665C56.8092 23.776 56.7558 23.1627 56.6065 22.576C56.4572 21.9893 56.2118 21.4667 55.8705 21.008C55.5398 20.5493 55.1132 20.1867 54.5905 19.92C54.0678 19.6427 53.4545 19.504 52.7505 19.504C52.1212 19.504 51.5452 19.616 51.0225 19.84C50.5105 20.064 50.0678 20.3733 49.6945 20.768C49.3212 21.152 49.0332 21.6107 48.8305 22.144C48.6278 22.6773 48.5265 23.2533 48.5265 23.872C48.5265 24.512 48.6225 25.0987 48.8145 25.632C49.0172 26.1653 49.2998 26.624 49.6625 27.008C50.0252 27.392 50.4678 27.6907 50.9905 27.904C51.5132 28.1067 52.0998 28.208 52.7505 28.208C53.6892 28.208 54.4892 27.9947 55.1505 27.568C55.8118 27.1413 56.3025 26.432 56.6225 25.44H54.6225C54.5478 25.696 54.3452 25.9413 54.0145 26.176C53.6838 26.4 53.2892 26.512 52.8305 26.512C52.1905 26.512 51.6998 26.3467 51.3585 26.016C51.0172 25.6853 50.8305 25.152 50.7985 24.416ZM58.114 19.728V28H60.386V24.272C60.386 23.8987 60.4233 23.552 60.498 23.232C60.5727 22.912 60.6953 22.6347 60.866 22.4C61.0473 22.1547 61.282 21.9627 61.57 21.824C61.858 21.6853 62.21 21.616 62.626 21.616C62.7647 21.616 62.9087 21.6267 63.058 21.648C63.2073 21.6587 63.3353 21.6747 63.442 21.696V19.584C63.2607 19.5307 63.0953 19.504 62.946 19.504C62.658 19.504 62.3807 19.5467 62.114 19.632C61.8473 19.7173 61.5967 19.84 61.362 20C61.1273 20.1493 60.9193 20.336 60.738 20.56C60.5567 20.7733 60.4127 21.008 60.306 21.264H60.274V19.728H58.114ZM64.3328 19.728V28H66.6048V24.272C66.6048 23.8987 66.6421 23.552 66.7168 23.232C66.7914 22.912 66.9141 22.6347 67.0848 22.4C67.2661 22.1547 67.5008 21.9627 67.7888 21.824C68.0768 21.6853 68.4288 21.616 68.8448 21.616C68.9834 21.616 69.1274 21.6267 69.2768 21.648C69.4261 21.6587 69.5541 21.6747 69.6608 21.696V19.584C69.4794 19.5307 69.3141 19.504 69.1648 19.504C68.8768 19.504 68.5994 19.5467 68.3328 19.632C68.0661 19.7173 67.8154 19.84 67.5807 20C67.3461 20.1493 67.1381 20.336 66.9568 20.56C66.7754 20.7733 66.6314 21.008 66.5248 21.264H66.4928V19.728H64.3328ZM70.4555 22.272H72.7275C72.7702 21.824 72.9195 21.504 73.1755 21.312C73.4315 21.12 73.7835 21.024 74.2315 21.024C74.4342 21.024 74.6208 21.04 74.7915 21.072C74.9728 21.0933 75.1275 21.1467 75.2555 21.232C75.3942 21.3067 75.5008 21.4187 75.5755 21.568C75.6608 21.7067 75.7035 21.8987 75.7035 22.144C75.7142 22.3787 75.6448 22.56 75.4955 22.688C75.3462 22.8053 75.1435 22.896 74.8875 22.96C74.6315 23.024 74.3382 23.072 74.0075 23.104C73.6768 23.136 73.3408 23.1787 72.9995 23.232C72.6582 23.2853 72.3168 23.36 71.9755 23.456C71.6448 23.5413 71.3462 23.6747 71.0795 23.856C70.8235 24.0373 70.6102 24.2827 70.4395 24.592C70.2795 24.8907 70.1995 25.2747 70.1995 25.744C70.1995 26.1707 70.2688 26.5387 70.4075 26.848C70.5568 27.1573 70.7595 27.4133 71.0155 27.616C71.2715 27.8187 71.5702 27.968 71.9115 28.064C72.2528 28.16 72.6208 28.208 73.0155 28.208C73.5275 28.208 74.0288 28.1333 74.5195 27.984C75.0102 27.8347 75.4368 27.5733 75.7995 27.2C75.8102 27.3387 75.8262 27.4773 75.8475 27.616C75.8795 27.744 75.9168 27.872 75.9595 28H78.2635C78.1568 27.8293 78.0822 27.5733 78.0395 27.232C77.9968 26.8907 77.9755 26.5333 77.9755 26.16V21.856C77.9755 21.3547 77.8635 20.9547 77.6395 20.656C77.4155 20.3467 77.1275 20.1067 76.7755 19.936C76.4235 19.7653 76.0342 19.6533 75.6075 19.6C75.1808 19.536 74.7595 19.504 74.3435 19.504C73.8848 19.504 73.4262 19.552 72.9675 19.648C72.5195 19.7333 72.1142 19.8827 71.7515 20.096C71.3888 20.3093 71.0902 20.592 70.8555 20.944C70.6208 21.296 70.4875 21.7387 70.4555 22.272ZM75.7035 23.952V24.8C75.7035 24.928 75.6875 25.0987 75.6555 25.312C75.6342 25.5253 75.5648 25.7387 75.4475 25.952C75.3302 26.1547 75.1488 26.3307 74.9035 26.48C74.6582 26.6293 74.3115 26.704 73.8635 26.704C73.6822 26.704 73.5062 26.688 73.3355 26.656C73.1648 26.624 73.0155 26.5707 72.8875 26.496C72.7595 26.4107 72.6582 26.2987 72.5835 26.16C72.5088 26.0213 72.4715 25.8507 72.4715 25.648C72.4715 25.4347 72.5088 25.2587 72.5835 25.12C72.6582 24.9813 72.7542 24.8693 72.8715 24.784C72.9995 24.688 73.1435 24.6133 73.3035 24.56C73.4742 24.5067 73.6448 24.464 73.8155 24.432C73.9968 24.4 74.1782 24.3733 74.3595 24.352C74.5408 24.3307 74.7115 24.304 74.8715 24.272C75.0422 24.24 75.1968 24.2027 75.3355 24.16C75.4848 24.1067 75.6075 24.0373 75.7035 23.952ZM79.803 16.576V28H82.075V16.576H79.803ZM85.624 25.312H83.464C83.4853 25.8667 83.608 26.3307 83.832 26.704C84.0667 27.0667 84.36 27.36 84.712 27.584C85.0747 27.808 85.4853 27.968 85.944 28.064C86.4027 28.16 86.872 28.208 87.352 28.208C87.8213 28.208 88.28 28.16 88.728 28.064C89.1867 27.9787 89.592 27.824 89.944 27.6C90.296 27.376 90.5787 27.0827 90.792 26.72C91.016 26.3467 91.128 25.888 91.128 25.344C91.128 24.96 91.0533 24.64 90.904 24.384C90.7547 24.1173 90.5573 23.8987 90.312 23.728C90.0667 23.5467 89.784 23.4027 89.464 23.296C89.1547 23.1893 88.8347 23.0987 88.504 23.024C88.184 22.9493 87.8693 22.88 87.56 22.816C87.2507 22.752 86.9733 22.6827 86.728 22.608C86.4933 22.5227 86.3013 22.416 86.152 22.288C86.0027 22.16 85.928 21.9947 85.928 21.792C85.928 21.6213 85.9707 21.488 86.056 21.392C86.1413 21.2853 86.2427 21.2053 86.36 21.152C86.488 21.0987 86.6267 21.0667 86.776 21.056C86.9253 21.0347 87.064 21.024 87.192 21.024C87.5973 21.024 87.9493 21.104 88.248 21.264C88.5467 21.4133 88.712 21.7067 88.744 22.144H90.904C90.8613 21.632 90.728 21.2107 90.504 20.88C90.2907 20.5387 90.0187 20.2667 89.688 20.064C89.3573 19.8613 88.9787 19.7173 88.552 19.632C88.136 19.5467 87.704 19.504 87.256 19.504C86.808 19.504 86.3707 19.5467 85.944 19.632C85.5173 19.7067 85.1333 19.8453 84.792 20.048C84.4507 20.24 84.1733 20.5067 83.96 20.848C83.7573 21.1893 83.656 21.6267 83.656 22.16C83.656 22.5227 83.7307 22.832 83.88 23.088C84.0293 23.3333 84.2267 23.5413 84.472 23.712C84.7173 23.872 84.9947 24.0053 85.304 24.112C85.624 24.208 85.9493 24.2933 86.28 24.368C87.0907 24.5387 87.72 24.7093 88.168 24.88C88.6267 25.0507 88.856 25.3067 88.856 25.648C88.856 25.8507 88.808 26.0213 88.712 26.16C88.616 26.288 88.4933 26.3947 88.344 26.48C88.2053 26.5547 88.0453 26.6133 87.864 26.656C87.6933 26.688 87.528 26.704 87.368 26.704C87.144 26.704 86.9253 26.6773 86.712 26.624C86.5093 26.5707 86.328 26.4907 86.168 26.384C86.008 26.2667 85.8747 26.1227 85.768 25.952C85.672 25.7707 85.624 25.5573 85.624 25.312Z" fill="white"/>
<g opacity="0.6">
<path d="M85.9721 67.2017C85.5865 64.8036 85.3738 62.3366 85.3738 59.8282C85.3738 40.8364 96.9278 24.6562 113.149 18.399" stroke="white" stroke-width="8" stroke-miterlimit="10"/>
<path d="M155.177 93.8563C147.797 100.196 138.331 104 128 104C117.669 104 108.203 100.196 100.823 93.8563" stroke="white" stroke-width="8" stroke-miterlimit="10"/>
<path d="M142.852 18.3855C159.072 24.6426 170.626 40.8228 170.626 59.8146C170.626 62.323 170.427 64.79 170.028 67.188" stroke="white" stroke-width="8" stroke-miterlimit="10"/>
<path d="M143.09 15.6428C143.09 16.5799 143.01 17.5033 142.864 18.3992C141.614 25.7175 135.431 31.2855 128.012 31.2855C120.593 31.2855 114.411 25.7313 113.161 18.3992C113.015 17.5033 112.935 16.5799 112.935 15.6428C112.935 7.00134 119.689 0 128.026 0C136.362 0 143.09 7.00134 143.09 15.6428Z" stroke="white" stroke-width="8" stroke-miterlimit="10"/>
<path d="M177.979 89.7218C173.817 97.2056 164.59 99.769 157.37 95.4414C156.586 94.9728 155.855 94.4353 155.177 93.8427C149.699 89.0465 148.143 80.7358 151.853 74.0791C155.562 67.4085 163.287 64.652 170.041 67.188C170.866 67.505 171.677 67.8909 172.461 68.3594C179.667 72.6871 182.14 82.2519 177.979 89.7218Z" stroke="white" stroke-width="8" stroke-miterlimit="10"/>
<path d="M100.823 93.8562C100.158 94.4489 99.4137 94.9726 98.6293 95.4549C91.4096 99.7687 82.1824 97.2053 78.0208 89.7354C73.8592 82.2655 76.3322 72.7007 83.5385 68.3732C84.323 67.9046 85.134 67.5187 85.9584 67.2017C92.6993 64.6658 100.424 67.436 104.147 74.0927C107.857 80.7495 106.301 89.0601 100.823 93.8562Z" stroke="white" stroke-width="8" stroke-miterlimit="10"/>
</g>
</g>
<defs>
<linearGradient id="paint0_linear" x1="0" y1="48" x2="166" y2="48" gradientUnits="userSpaceOnUse">
<stop stop-color="#FF512F"/>
<stop offset="1" stop-color="#F09819"/>
</linearGradient>
<linearGradient id="paint1_linear" x1="-6.19947e-07" y1="15" x2="166" y2="87" gradientUnits="userSpaceOnUse">
<stop stop-color="#F09819"/>
<stop offset="1" stop-color="#FF512F"/>
</linearGradient>
</defs>
</svg>
