<svg width="26" height="28" viewBox="0 0 26 28" fill="none" xmlns="http://www.w3.org/2000/svg">
<path d="M21.6667 19.8052C20.5689 19.8052 19.5794 20.2199 18.8283 20.8876L8.53667 15.0472C8.61609 14.7309 8.66667 14.4006 8.66667 14.0633C8.66667 13.7259 8.61609 13.3956 8.53667 13.0794L18.72 7.2952C19.4928 7.99803 20.5256 8.43375 21.6667 8.43375C24.0572 8.43375 26 6.54321 26 4.21688C26 1.89054 24.0572 0 21.6667 0C19.2761 0 17.3333 1.89054 17.3333 4.21688C17.3333 4.55423 17.3839 4.88453 17.4633 5.20079L7.28 10.9849C6.50725 10.2821 5.47442 9.84634 4.33333 9.84634C1.94276 9.84634 0 11.7369 0 14.0632C0 16.3896 1.94276 18.2801 4.33333 18.2801C5.47442 18.2801 6.50725 17.8444 7.28 17.1415L17.5717 22.9819C17.4994 23.2771 17.4561 23.5863 17.4561 23.9026C17.4561 26.1657 19.3411 28 21.6667 28C23.9922 28 25.8772 26.1657 25.8772 23.9026C25.8772 21.6395 23.9922 19.8052 21.6667 19.8052Z" fill="white"/>
</svg>
