<svg width="347" height="64" viewBox="0 0 347 64" fill="none" xmlns="http://www.w3.org/2000/svg">
<mask id="mask0" mask-type="alpha" maskUnits="userSpaceOnUse" x="0" y="0" width="347" height="64">
<rect width="347" height="64" rx="16" fill="url(#paint0_linear)"/>
</mask>
<g mask="url(#mask0)">
<rect width="347" height="64" rx="16" fill="url(#paint1_linear)"/>
<path d="M144.816 34.208H142.384C142.373 34.912 142.501 35.52 142.768 36.032C143.035 36.544 143.392 36.9653 143.84 37.296C144.299 37.6267 144.821 37.8667 145.408 38.016C146.005 38.176 146.619 38.256 147.248 38.256C148.027 38.256 148.709 38.1653 149.296 37.984C149.893 37.8027 150.389 37.552 150.784 37.232C151.189 36.9013 151.493 36.512 151.696 36.064C151.899 35.616 152 35.1307 152 34.608C152 33.968 151.861 33.4453 151.584 33.04C151.317 32.624 150.997 32.2933 150.624 32.048C150.251 31.8027 149.872 31.6267 149.488 31.52C149.115 31.4027 148.821 31.3227 148.608 31.28C147.893 31.0987 147.312 30.9493 146.864 30.832C146.427 30.7147 146.08 30.5973 145.824 30.48C145.579 30.3627 145.413 30.2347 145.328 30.096C145.243 29.9573 145.2 29.776 145.2 29.552C145.2 29.3067 145.253 29.104 145.36 28.944C145.467 28.784 145.6 28.6507 145.76 28.544C145.931 28.4373 146.117 28.3627 146.32 28.32C146.523 28.2773 146.725 28.256 146.928 28.256C147.237 28.256 147.52 28.2827 147.776 28.336C148.043 28.3893 148.277 28.48 148.48 28.608C148.683 28.736 148.843 28.912 148.96 29.136C149.088 29.36 149.163 29.6427 149.184 29.984H151.616C151.616 29.3227 151.488 28.7627 151.232 28.304C150.987 27.8347 150.651 27.4507 150.224 27.152C149.797 26.8533 149.307 26.64 148.752 26.512C148.208 26.3733 147.637 26.304 147.04 26.304C146.528 26.304 146.016 26.3733 145.504 26.512C144.992 26.6507 144.533 26.864 144.128 27.152C143.723 27.44 143.392 27.8027 143.136 28.24C142.891 28.6667 142.768 29.1733 142.768 29.76C142.768 30.2827 142.864 30.7307 143.056 31.104C143.259 31.4667 143.52 31.7707 143.84 32.016C144.16 32.2613 144.523 32.464 144.928 32.624C145.333 32.7733 145.749 32.9013 146.176 33.008C146.592 33.1253 147.003 33.232 147.408 33.328C147.813 33.424 148.176 33.536 148.496 33.664C148.816 33.792 149.072 33.952 149.264 34.144C149.467 34.336 149.568 34.5867 149.568 34.896C149.568 35.184 149.493 35.424 149.344 35.616C149.195 35.7973 149.008 35.9413 148.784 36.048C148.56 36.1547 148.32 36.2293 148.064 36.272C147.808 36.304 147.568 36.32 147.344 36.32C147.013 36.32 146.693 36.2827 146.384 36.208C146.075 36.1227 145.803 36 145.568 35.84C145.344 35.6693 145.163 35.4507 145.024 35.184C144.885 34.9173 144.816 34.592 144.816 34.208ZM155.591 28.448V26.576H153.319V28.448H155.591ZM153.319 29.728V38H155.591V29.728H153.319ZM161.236 36.048C160.884 36.048 160.59 35.9733 160.356 35.824C160.121 35.6747 159.929 35.4827 159.78 35.248C159.641 35.0133 159.54 34.752 159.476 34.464C159.422 34.1653 159.396 33.8667 159.396 33.568C159.396 33.2587 159.428 32.9653 159.492 32.688C159.566 32.4 159.678 32.1493 159.828 31.936C159.988 31.712 160.18 31.536 160.404 31.408C160.638 31.28 160.916 31.216 161.236 31.216C161.609 31.216 161.918 31.2853 162.164 31.424C162.409 31.5627 162.606 31.7493 162.756 31.984C162.905 32.2187 163.012 32.4907 163.076 32.8C163.14 33.0987 163.172 33.4187 163.172 33.76C163.172 34.0587 163.129 34.3467 163.044 34.624C162.969 34.8907 162.852 35.1307 162.692 35.344C162.532 35.5573 162.329 35.728 162.084 35.856C161.838 35.984 161.556 36.048 161.236 36.048ZM165.332 37.472V29.728H163.172V30.832H163.14C162.862 30.352 162.516 30.0107 162.1 29.808C161.694 29.6053 161.22 29.504 160.676 29.504C160.1 29.504 159.588 29.616 159.14 29.84C158.702 30.064 158.334 30.368 158.036 30.752C157.737 31.1253 157.508 31.5627 157.348 32.064C157.198 32.5547 157.124 33.0667 157.124 33.6C157.124 34.1653 157.188 34.704 157.316 35.216C157.454 35.7173 157.668 36.16 157.956 36.544C158.244 36.9173 158.612 37.216 159.06 37.44C159.508 37.6533 160.041 37.76 160.66 37.76C161.161 37.76 161.636 37.6587 162.084 37.456C162.542 37.2427 162.894 36.9173 163.14 36.48H163.172V37.568C163.182 38.1547 163.038 38.64 162.74 39.024C162.452 39.408 161.988 39.6 161.348 39.6C160.942 39.6 160.585 39.5147 160.276 39.344C159.966 39.184 159.758 38.8907 159.652 38.464H157.396C157.428 38.9333 157.556 39.3333 157.78 39.664C158.014 40.0053 158.302 40.2827 158.644 40.496C158.996 40.7093 159.38 40.864 159.796 40.96C160.222 41.0667 160.638 41.12 161.044 41.12C161.993 41.12 162.75 40.992 163.316 40.736C163.881 40.48 164.313 40.1653 164.612 39.792C164.91 39.4293 165.102 39.0347 165.188 38.608C165.284 38.1813 165.332 37.8027 165.332 37.472ZM167.161 29.728V38H169.433V33.664C169.433 32.8213 169.572 32.2187 169.849 31.856C170.126 31.4827 170.574 31.296 171.193 31.296C171.737 31.296 172.116 31.4667 172.329 31.808C172.542 32.1387 172.649 32.6453 172.649 33.328V38H174.921V32.912C174.921 32.4 174.873 31.936 174.777 31.52C174.692 31.0933 174.537 30.736 174.313 30.448C174.089 30.1493 173.78 29.92 173.385 29.76C173.001 29.5893 172.505 29.504 171.897 29.504C171.417 29.504 170.948 29.616 170.489 29.84C170.03 30.0533 169.657 30.4 169.369 30.88H169.321V29.728H167.161ZM183.114 33.872C183.114 33.5413 183.146 33.216 183.21 32.896C183.274 32.576 183.381 32.2933 183.53 32.048C183.69 31.8027 183.898 31.6053 184.154 31.456C184.41 31.296 184.73 31.216 185.114 31.216C185.498 31.216 185.818 31.296 186.074 31.456C186.341 31.6053 186.549 31.8027 186.698 32.048C186.858 32.2933 186.97 32.576 187.034 32.896C187.098 33.216 187.13 33.5413 187.13 33.872C187.13 34.2027 187.098 34.528 187.034 34.848C186.97 35.1573 186.858 35.44 186.698 35.696C186.549 35.9413 186.341 36.1387 186.074 36.288C185.818 36.4373 185.498 36.512 185.114 36.512C184.73 36.512 184.41 36.4373 184.154 36.288C183.898 36.1387 183.69 35.9413 183.53 35.696C183.381 35.44 183.274 35.1573 183.21 34.848C183.146 34.528 183.114 34.2027 183.114 33.872ZM180.842 33.872C180.842 34.5333 180.944 35.1307 181.146 35.664C181.349 36.1973 181.637 36.656 182.01 37.04C182.384 37.4133 182.832 37.7013 183.354 37.904C183.877 38.1067 184.464 38.208 185.114 38.208C185.765 38.208 186.352 38.1067 186.874 37.904C187.408 37.7013 187.861 37.4133 188.234 37.04C188.608 36.656 188.896 36.1973 189.098 35.664C189.301 35.1307 189.402 34.5333 189.402 33.872C189.402 33.2107 189.301 32.6133 189.098 32.08C188.896 31.536 188.608 31.0773 188.234 30.704C187.861 30.32 187.408 30.0267 186.874 29.824C186.352 29.6107 185.765 29.504 185.114 29.504C184.464 29.504 183.877 29.6107 183.354 29.824C182.832 30.0267 182.384 30.32 182.01 30.704C181.637 31.0773 181.349 31.536 181.146 32.08C180.944 32.6133 180.842 33.2107 180.842 33.872ZM198.64 38V29.728H196.368V34.064C196.368 34.9067 196.229 35.5147 195.952 35.888C195.674 36.2507 195.226 36.432 194.608 36.432C194.064 36.432 193.685 36.2667 193.472 35.936C193.258 35.5947 193.152 35.0827 193.152 34.4V29.728H190.88V34.816C190.88 35.328 190.922 35.7973 191.008 36.224C191.104 36.64 191.264 36.9973 191.488 37.296C191.712 37.584 192.016 37.808 192.4 37.968C192.794 38.128 193.296 38.208 193.904 38.208C194.384 38.208 194.853 38.1013 195.312 37.888C195.77 37.6747 196.144 37.328 196.432 36.848H196.48V38H198.64ZM203.244 29.728V27.248H200.972V29.728H199.596V31.248H200.972V36.128C200.972 36.544 201.041 36.88 201.18 37.136C201.319 37.392 201.505 37.5893 201.74 37.728C201.985 37.8667 202.263 37.9573 202.572 38C202.892 38.0533 203.228 38.08 203.58 38.08C203.804 38.08 204.033 38.0747 204.268 38.064C204.503 38.0533 204.716 38.032 204.908 38V36.24C204.801 36.2613 204.689 36.2773 204.572 36.288C204.455 36.2987 204.332 36.304 204.204 36.304C203.82 36.304 203.564 36.24 203.436 36.112C203.308 35.984 203.244 35.728 203.244 35.344V31.248H204.908V29.728H203.244Z" fill="white"/>
<path d="M258 9.92807C258.109 9.29538 258.204 8.66269 258.329 8.02999C259.693 1.17441 265.058 -3.8084 271.275 -3.96728C273.055 -4.01367 274.836 -4.00805 276.616 -3.96728C279.596 -3.90963 281.95 -1.24107 281.99 2.07846C282.018 3.69697 281.483 5.26255 280.501 6.43454C279.519 7.60654 278.171 8.2901 276.748 8.3365C275.167 8.40117 273.584 8.34634 272 8.35899C269.933 8.37587 268.835 9.63844 268.834 11.9921C268.834 25.302 268.834 38.6163 268.834 51.9347C268.834 54.3333 269.936 55.5902 272.034 55.6057C273.681 55.6156 275.334 55.5495 276.978 55.6535C280.837 55.8982 283.209 60.7811 281.361 64.6518C280.442 66.5738 279.012 67.8322 277.064 67.9165C274.697 68.0177 272.306 68.0712 269.954 67.8111C263.972 67.1418 258.967 61.501 258.14 54.7354C258.11 54.488 258.047 54.2517 258 54.0113C258 39.3169 258 24.6225 258 9.92807Z" fill="white" fill-opacity="0.1"/>
<path d="M311.095 26.287C310.832 25.9778 310.68 25.7874 310.517 25.6118C308.188 23.0881 305.847 20.5765 303.534 18.0365C301.668 15.9854 301.438 12.8418 302.945 10.5773C304.545 8.17239 307.429 7.31223 309.841 8.58559C310.438 8.9093 310.983 9.33424 311.454 9.84409C317.073 15.8593 322.679 21.8876 328.273 27.929C330.579 30.4177 330.576 33.9825 328.262 36.4752C322.788 42.3734 317.305 48.2636 311.814 54.1456C309.526 56.5951 306.119 56.6113 303.889 54.2252C301.711 51.8946 301.762 48.2419 304.032 45.7803C306.186 43.4397 308.352 41.1154 310.529 38.8072C310.699 38.6517 310.881 38.5112 311.072 38.3873L310.969 38.1267H310.235C302.725 38.1267 295.215 38.1267 287.704 38.1267C285.031 38.1267 282.746 36.2551 282.161 33.6247C281.316 29.8357 283.898 26.3181 287.576 26.3005C292.426 26.2762 297.277 26.3005 302.128 26.3005H311.095V26.287Z" fill="white" fill-opacity="0.1"/>
</g>
<defs>
<linearGradient id="paint0_linear" x1="0" y1="0" x2="347" y2="64" gradientUnits="userSpaceOnUse">
<stop stop-color="#536976"/>
<stop offset="1" stop-color="#292E49"/>
</linearGradient>
<linearGradient id="paint1_linear" x1="0" y1="0" x2="347" y2="64" gradientUnits="userSpaceOnUse">
<stop stop-color="#536976"/>
<stop offset="1" stop-color="#292E49"/>
</linearGradient>
</defs>
</svg>
