<svg width="41" height="51" viewBox="0 0 41 51" fill="none" xmlns="http://www.w3.org/2000/svg">
<path d="M40.5938 32.6688C39.8653 21.1245 33.7523 10.6476 24.2013 4.27522C23.484 3.79648 22.5948 3.62732 21.7495 3.80438C21.7495 3.80381 21.749 3.80325 21.749 3.80325L3.71948 35.0309L5.59438 36.1136H37.3515C39.2219 36.1136 40.7117 34.5324 40.5938 32.6688Z" fill="#FFA000"/>
<path d="M40.5938 32.6688C39.8653 21.1245 33.7523 10.6476 24.2013 4.27522C23.484 3.79648 22.5948 3.62732 21.7495 3.80438C21.7495 3.80381 21.749 3.80325 21.749 3.80325L21.7157 3.86076C29.5305 10.4458 34.1904 19.7983 34.8208 29.7823C34.9381 31.6454 33.4489 33.2265 31.578 33.2265H4.76153L3.71948 35.0309L5.59438 36.1136H37.3515C39.2219 36.1136 40.7117 34.5324 40.5938 32.6688Z" fill="#F57C00"/>
<path d="M31.4517 35.031C32.6561 35.031 33.6604 34.109 33.763 32.908C33.8555 31.831 33.9367 30.7647 33.7562 29.7345C33.4495 27.9825 32.4356 26.4301 31.8407 24.796C31.2351 23.132 31.009 21.2937 30.1339 19.7808C29.2503 18.2544 27.7667 17.1424 26.6389 15.7999C25.5078 14.4533 24.6682 12.8006 23.3216 11.67C21.9796 10.5422 20.2079 10.0003 18.6809 9.11731L3.71948 35.031H18.2969V42.2565C18.2963 43.7339 19.494 44.931 20.9714 44.931C22.6799 44.931 23.8105 43.6183 23.8105 42.1742V41.1812C23.8105 40.2328 24.5797 39.4642 25.5281 39.4642C26.4765 39.4642 27.2457 40.2328 27.2457 41.1812V48.8968C27.2457 50.0584 28.1874 51.0001 29.3484 51.0001C30.51 51.0001 31.4517 50.0584 31.4517 48.8968V35.031Z" fill="#FFE082"/>
<path d="M33.7562 29.7345C33.4495 27.9825 32.4356 26.4301 31.8407 24.796C31.2351 23.132 31.009 21.2937 30.1339 19.7808C29.2503 18.2544 27.7667 17.1424 26.6389 15.7999C25.5078 14.4533 24.6682 12.8006 23.3216 11.67C21.9796 10.5422 20.2079 10.0003 18.6809 9.11731L18.3911 9.61973C19.2882 10.6454 19.9897 11.8707 20.8654 12.9133C21.9931 14.2559 23.4773 15.3679 24.3603 16.8943C25.2354 18.4067 25.4621 20.2455 26.0677 21.9089C26.6626 23.5436 27.6765 25.0954 27.9832 26.848C27.9861 26.8649 27.9889 26.8818 27.9917 26.8993C28.4507 29.6516 26.2831 32.1445 23.4931 32.1445H5.38631L3.71948 35.031H25.6787V39.4715C26.5566 39.5477 27.2457 40.2835 27.2457 41.1812V48.8973C27.2457 50.0589 28.1874 51.0001 29.3484 51.0001C30.51 51.0001 31.4517 50.0584 31.4517 48.8973V35.031C32.6555 35.031 33.6604 34.109 33.763 32.908C33.8555 31.831 33.9367 30.7647 33.7562 29.7345V29.7345Z" fill="#FFCA28"/>
<path d="M22.8009 17.6989C22.8009 18.8836 21.84 19.8445 20.6553 19.8445C19.4706 19.8445 18.5098 18.8836 18.5098 17.6989C18.5098 16.5136 19.4706 15.5533 20.6553 15.5533C21.84 15.5533 22.8009 16.5136 22.8009 17.6989Z" fill="#FF6F00"/>
<path d="M15.896 28.8412C15.896 30.026 14.9357 30.9868 13.7505 30.9868C12.5658 30.9868 11.6055 30.026 11.6055 28.8412C11.6055 27.6565 12.5658 26.6957 13.7505 26.6957C14.9357 26.6957 15.896 27.6565 15.896 28.8412Z" fill="#FF6F00"/>
<path d="M28.5922 27.2162C28.5922 29.5862 26.671 31.5073 24.3016 31.5073C21.9316 31.5073 20.0105 29.5862 20.0105 27.2162C20.0105 24.8468 21.9316 22.9257 24.3016 22.9257C26.671 22.9257 28.5922 24.8468 28.5922 27.2162Z" fill="#EF5350"/>
<path d="M25.1944 23.0192C25.5203 23.6242 25.7058 24.3161 25.7058 25.0514C25.7058 27.4208 23.7847 29.342 21.4147 29.342C21.1085 29.342 20.8102 29.3092 20.5215 29.2483C21.2461 30.5932 22.667 31.5073 24.3017 31.5073C26.6712 31.5073 28.5923 29.5861 28.5923 27.2161C28.5923 25.1529 27.1358 23.4302 25.1944 23.0192V23.0192Z" fill="#D32F2F"/>
</svg>
