<svg width="14" height="13" viewBox="0 0 14 13" fill="none" xmlns="http://www.w3.org/2000/svg">
<path d="M6.27355 0.574932C6.55949 -0.0449655 7.44051 -0.0449655 7.72645 0.574932L9.06953 3.48674C9.18607 3.73939 9.4255 3.91334 9.70179 3.9461L12.8861 4.32365C13.564 4.40403 13.8363 5.24194 13.3351 5.70544L10.9808 7.88259C10.7766 8.07149 10.6851 8.35295 10.7393 8.62584L11.3643 11.771C11.4973 12.4406 10.7845 12.9584 10.1889 12.625L7.39075 11.0587C7.14797 10.9228 6.85203 10.9228 6.60925 11.0587L3.81115 12.625C3.21546 12.9584 2.50269 12.4406 2.63573 11.771L3.26067 8.62584C3.31489 8.35295 3.22344 8.07149 3.01917 7.88259L0.664913 5.70544C0.163713 5.24194 0.435966 4.40403 1.11388 4.32365L4.29821 3.9461C4.5745 3.91334 4.81393 3.73939 4.93047 3.48674L6.27355 0.574932Z" fill="#888888"/>
</svg>
