<svg width="166" height="192" viewBox="0 0 166 192" fill="none" xmlns="http://www.w3.org/2000/svg">
<mask id="mask0" mask-type="alpha" maskUnits="userSpaceOnUse" x="0" y="0" width="166" height="192">
<rect width="166" height="192" rx="16" fill="url(#paint0_linear)"/>
</mask>
<g mask="url(#mask0)">
<rect width="166" height="192" rx="16" fill="url(#paint1_linear)"/>
<path  d="M18.816 24.208H16.384C16.3733 24.912 16.5013 25.52 16.768 26.032C17.0347 26.544 17.392 26.9653 17.84 27.296C18.2987 27.6267 18.8213 27.8667 19.408 28.016C20.0053 28.176 20.6187 28.256 21.248 28.256C22.0267 28.256 22.7093 28.1653 23.296 27.984C23.8933 27.8027 24.3893 27.552 24.784 27.232C25.1893 26.9013 25.4933 26.512 25.696 26.064C25.8987 25.616 26 25.1307 26 24.608C26 23.968 25.8613 23.4453 25.584 23.04C25.3173 22.624 24.9973 22.2933 24.624 22.048C24.2507 21.8027 23.872 21.6267 23.488 21.52C23.1147 21.4027 22.8213 21.3227 22.608 21.28C21.8933 21.0987 21.312 20.9493 20.864 20.832C20.4267 20.7147 20.08 20.5973 19.824 20.48C19.5787 20.3627 19.4133 20.2347 19.328 20.096C19.2427 19.9573 19.2 19.776 19.2 19.552C19.2 19.3067 19.2533 19.104 19.36 18.944C19.4667 18.784 19.6 18.6507 19.76 18.544C19.9307 18.4373 20.1173 18.3627 20.32 18.32C20.5227 18.2773 20.7253 18.256 20.928 18.256C21.2373 18.256 21.52 18.2827 21.776 18.336C22.0427 18.3893 22.2773 18.48 22.48 18.608C22.6827 18.736 22.8427 18.912 22.96 19.136C23.088 19.36 23.1627 19.6427 23.184 19.984H25.616C25.616 19.3227 25.488 18.7627 25.232 18.304C24.9867 17.8347 24.6507 17.4507 24.224 17.152C23.7973 16.8533 23.3067 16.64 22.752 16.512C22.208 16.3733 21.6373 16.304 21.04 16.304C20.528 16.304 20.016 16.3733 19.504 16.512C18.992 16.6507 18.5333 16.864 18.128 17.152C17.7227 17.44 17.392 17.8027 17.136 18.24C16.8907 18.6667 16.768 19.1733 16.768 19.76C16.768 20.2827 16.864 20.7307 17.056 21.104C17.2587 21.4667 17.52 21.7707 17.84 22.016C18.16 22.2613 18.5227 22.464 18.928 22.624C19.3333 22.7733 19.7493 22.9013 20.176 23.008C20.592 23.1253 21.0027 23.232 21.408 23.328C21.8133 23.424 22.176 23.536 22.496 23.664C22.816 23.792 23.072 23.952 23.264 24.144C23.4667 24.336 23.568 24.5867 23.568 24.896C23.568 25.184 23.4933 25.424 23.344 25.616C23.1947 25.7973 23.008 25.9413 22.784 26.048C22.56 26.1547 22.32 26.2293 22.064 26.272C21.808 26.304 21.568 26.32 21.344 26.32C21.0133 26.32 20.6933 26.2827 20.384 26.208C20.0747 26.1227 19.8027 26 19.568 25.84C19.344 25.6693 19.1627 25.4507 19.024 25.184C18.8853 24.9173 18.816 24.592 18.816 24.208ZM35.0146 28V19.728H32.7426V24.064C32.7426 24.9067 32.604 25.5147 32.3266 25.888C32.0493 26.2507 31.6013 26.432 30.9826 26.432C30.4386 26.432 30.06 26.2667 29.8466 25.936C29.6333 25.5947 29.5266 25.0827 29.5266 24.4V19.728H27.2546V24.816C27.2546 25.328 27.2973 25.7973 27.3826 26.224C27.4786 26.64 27.6386 26.9973 27.8626 27.296C28.0866 27.584 28.3906 27.808 28.7746 27.968C29.1693 28.128 29.6706 28.208 30.2786 28.208C30.7586 28.208 31.228 28.1013 31.6866 27.888C32.1453 27.6747 32.5186 27.328 32.8066 26.848H32.8546V28H35.0146ZM42.803 23.872C42.803 24.2133 42.7657 24.544 42.691 24.864C42.6163 25.184 42.499 25.4667 42.339 25.712C42.179 25.9573 41.9763 26.1547 41.731 26.304C41.4963 26.4427 41.2083 26.512 40.867 26.512C40.5363 26.512 40.2483 26.4427 40.003 26.304C39.7577 26.1547 39.555 25.9573 39.395 25.712C39.235 25.4667 39.1177 25.184 39.043 24.864C38.9683 24.544 38.931 24.2133 38.931 23.872C38.931 23.52 38.9683 23.184 39.043 22.864C39.1177 22.544 39.235 22.2613 39.395 22.016C39.555 21.7707 39.7577 21.5787 40.003 21.44C40.2483 21.2907 40.5363 21.216 40.867 21.216C41.2083 21.216 41.4963 21.2907 41.731 21.44C41.9763 21.5787 42.179 21.7707 42.339 22.016C42.499 22.2613 42.6163 22.544 42.691 22.864C42.7657 23.184 42.803 23.52 42.803 23.872ZM36.739 16.576V28H38.899V26.944H38.931C39.1763 27.4027 39.539 27.728 40.019 27.92C40.499 28.112 41.043 28.208 41.651 28.208C42.067 28.208 42.4777 28.1227 42.883 27.952C43.2883 27.7813 43.651 27.52 43.971 27.168C44.3017 26.816 44.5683 26.368 44.771 25.824C44.9737 25.2693 45.075 24.6133 45.075 23.856C45.075 23.0987 44.9737 22.448 44.771 21.904C44.5683 21.3493 44.3017 20.896 43.971 20.544C43.651 20.192 43.2883 19.9307 42.883 19.76C42.4777 19.5893 42.067 19.504 41.651 19.504C41.139 19.504 40.643 19.6053 40.163 19.808C39.6937 20 39.3203 20.3093 39.043 20.736H39.011V16.576H36.739ZM48.2803 25.312H46.1203C46.1416 25.8667 46.2643 26.3307 46.4883 26.704C46.7229 27.0667 47.0163 27.36 47.3683 27.584C47.7309 27.808 48.1416 27.968 48.6003 28.064C49.0589 28.16 49.5283 28.208 50.0083 28.208C50.4776 28.208 50.9363 28.16 51.3843 28.064C51.8429 27.9787 52.2483 27.824 52.6003 27.6C52.9523 27.376 53.2349 27.0827 53.4483 26.72C53.6723 26.3467 53.7843 25.888 53.7843 25.344C53.7843 24.96 53.7096 24.64 53.5603 24.384C53.4109 24.1173 53.2136 23.8987 52.9683 23.728C52.7229 23.5467 52.4403 23.4027 52.1203 23.296C51.8109 23.1893 51.4909 23.0987 51.1603 23.024C50.8403 22.9493 50.5256 22.88 50.2163 22.816C49.9069 22.752 49.6296 22.6827 49.3843 22.608C49.1496 22.5227 48.9576 22.416 48.8083 22.288C48.6589 22.16 48.5843 21.9947 48.5843 21.792C48.5843 21.6213 48.6269 21.488 48.7123 21.392C48.7976 21.2853 48.8989 21.2053 49.0163 21.152C49.1443 21.0987 49.2829 21.0667 49.4323 21.056C49.5816 21.0347 49.7203 21.024 49.8483 21.024C50.2536 21.024 50.6056 21.104 50.9043 21.264C51.2029 21.4133 51.3683 21.7067 51.4003 22.144H53.5603C53.5176 21.632 53.3843 21.2107 53.1603 20.88C52.9469 20.5387 52.6749 20.2667 52.3443 20.064C52.0136 19.8613 51.6349 19.7173 51.2083 19.632C50.7923 19.5467 50.3603 19.504 49.9123 19.504C49.4643 19.504 49.0269 19.5467 48.6003 19.632C48.1736 19.7067 47.7896 19.8453 47.4483 20.048C47.1069 20.24 46.8296 20.5067 46.6163 20.848C46.4136 21.1893 46.3123 21.6267 46.3123 22.16C46.3123 22.5227 46.3869 22.832 46.5363 23.088C46.6856 23.3333 46.8829 23.5413 47.1283 23.712C47.3736 23.872 47.6509 24.0053 47.9603 24.112C48.2803 24.208 48.6056 24.2933 48.9363 24.368C49.7469 24.5387 50.3763 24.7093 50.8243 24.88C51.2829 25.0507 51.5123 25.3067 51.5123 25.648C51.5123 25.8507 51.4643 26.0213 51.3683 26.16C51.2723 26.288 51.1496 26.3947 51.0003 26.48C50.8616 26.5547 50.7016 26.6133 50.5203 26.656C50.3496 26.688 50.1843 26.704 50.0243 26.704C49.8003 26.704 49.5816 26.6773 49.3683 26.624C49.1656 26.5707 48.9843 26.4907 48.8243 26.384C48.6643 26.2667 48.5309 26.1227 48.4243 25.952C48.3283 25.7707 48.2803 25.5573 48.2803 25.312ZM60.746 22.64H62.97C62.938 22.1067 62.81 21.648 62.586 21.264C62.362 20.8693 62.0687 20.544 61.706 20.288C61.354 20.0213 60.9487 19.824 60.49 19.696C60.042 19.568 59.5727 19.504 59.082 19.504C58.41 19.504 57.8127 19.616 57.29 19.84C56.7673 20.064 56.3247 20.3787 55.962 20.784C55.5993 21.1787 55.322 21.6533 55.13 22.208C54.9487 22.752 54.858 23.344 54.858 23.984C54.858 24.6027 54.9593 25.1733 55.162 25.696C55.3647 26.208 55.6473 26.6507 56.01 27.024C56.3727 27.3973 56.81 27.6907 57.322 27.904C57.8447 28.1067 58.4153 28.208 59.034 28.208C60.1327 28.208 61.034 27.92 61.738 27.344C62.442 26.768 62.8687 25.9307 63.018 24.832H60.826C60.7513 25.344 60.5647 25.7547 60.266 26.064C59.978 26.3627 59.562 26.512 59.018 26.512C58.666 26.512 58.3673 26.432 58.122 26.272C57.8767 26.112 57.6793 25.9093 57.53 25.664C57.3913 25.408 57.29 25.1253 57.226 24.816C57.162 24.5067 57.13 24.2027 57.13 23.904C57.13 23.5947 57.162 23.2853 57.226 22.976C57.29 22.656 57.3967 22.368 57.546 22.112C57.706 21.8453 57.9087 21.632 58.154 21.472C58.3993 21.3013 58.7033 21.216 59.066 21.216C60.0367 21.216 60.5967 21.6907 60.746 22.64ZM64.3015 19.728V28H66.5735V24.272C66.5735 23.8987 66.6108 23.552 66.6855 23.232C66.7602 22.912 66.8828 22.6347 67.0535 22.4C67.2348 22.1547 67.4695 21.9627 67.7575 21.824C68.0455 21.6853 68.3975 21.616 68.8135 21.616C68.9522 21.616 69.0962 21.6267 69.2455 21.648C69.3948 21.6587 69.5228 21.6747 69.6295 21.696V19.584C69.4482 19.5307 69.2828 19.504 69.1335 19.504C68.8455 19.504 68.5682 19.5467 68.3015 19.632C68.0348 19.7173 67.7842 19.84 67.5495 20C67.3148 20.1493 67.1068 20.336 66.9255 20.56C66.7442 20.7733 66.6002 21.008 66.4935 21.264H66.4615V19.728H64.3015ZM72.8563 18.448V16.576H70.5843V18.448H72.8563ZM70.5843 19.728V28H72.8563V19.728H70.5843ZM78.8213 26.512C78.4586 26.512 78.1493 26.4373 77.8932 26.288C77.6373 26.1387 77.4293 25.9467 77.2693 25.712C77.1199 25.4667 77.0079 25.184 76.9333 24.864C76.8693 24.544 76.8373 24.2187 76.8373 23.888C76.8373 23.5467 76.8693 23.216 76.9333 22.896C76.9973 22.576 77.1039 22.2933 77.2533 22.048C77.4133 21.8027 77.6159 21.6053 77.8613 21.456C78.1173 21.296 78.4319 21.216 78.8053 21.216C79.1679 21.216 79.4719 21.296 79.7173 21.456C79.9733 21.6053 80.1813 21.808 80.3413 22.064C80.5013 22.3093 80.6133 22.592 80.6773 22.912C80.7519 23.232 80.7893 23.5573 80.7893 23.888C80.7893 24.2187 80.7573 24.544 80.6933 24.864C80.6293 25.184 80.5173 25.4667 80.3573 25.712C80.2079 25.9467 80.0053 26.1387 79.7493 26.288C79.5039 26.4373 79.1946 26.512 78.8213 26.512ZM74.6453 19.728V30.896H76.9173V26.976H76.9493C77.2266 27.3813 77.5786 27.6907 78.0052 27.904C78.4426 28.1067 78.9173 28.208 79.4293 28.208C80.0373 28.208 80.5653 28.0907 81.0133 27.856C81.4719 27.6213 81.8506 27.3067 82.1493 26.912C82.4586 26.5173 82.6879 26.064 82.8373 25.552C82.9866 25.04 83.0613 24.5067 83.0613 23.952C83.0613 23.3653 82.9866 22.8053 82.8373 22.272C82.6879 21.728 82.4586 21.2533 82.1493 20.848C81.8399 20.4427 81.4506 20.1173 80.9813 19.872C80.5119 19.6267 79.9519 19.504 79.3013 19.504C78.7893 19.504 78.3199 19.6053 77.8932 19.808C77.4666 20.0107 77.1146 20.336 76.8373 20.784H76.8053V19.728H74.6453ZM87.3065 19.728V17.248H85.0345V19.728H83.6585V21.248H85.0345V26.128C85.0345 26.544 85.1038 26.88 85.2425 27.136C85.3812 27.392 85.5678 27.5893 85.8025 27.728C86.0478 27.8667 86.3252 27.9573 86.6345 28C86.9545 28.0533 87.2905 28.08 87.6425 28.08C87.8665 28.08 88.0958 28.0747 88.3305 28.064C88.5652 28.0533 88.7785 28.032 88.9705 28V26.24C88.8638 26.2613 88.7518 26.2773 88.6345 26.288C88.5172 26.2987 88.3945 26.304 88.2665 26.304C87.8825 26.304 87.6265 26.24 87.4985 26.112C87.3705 25.984 87.3065 25.728 87.3065 25.344V21.248H88.9705V19.728H87.3065ZM92.3875 18.448V16.576H90.1155V18.448H92.3875ZM90.1155 19.728V28H92.3875V19.728H90.1155ZM96.1925 23.872C96.1925 23.5413 96.2245 23.216 96.2885 22.896C96.3525 22.576 96.4592 22.2933 96.6085 22.048C96.7685 21.8027 96.9765 21.6053 97.2325 21.456C97.4885 21.296 97.8085 21.216 98.1925 21.216C98.5765 21.216 98.8965 21.296 99.1525 21.456C99.4192 21.6053 99.6272 21.8027 99.7765 22.048C99.9365 22.2933 100.049 22.576 100.113 22.896C100.177 23.216 100.209 23.5413 100.209 23.872C100.209 24.2027 100.177 24.528 100.113 24.848C100.049 25.1573 99.9365 25.44 99.7765 25.696C99.6272 25.9413 99.4192 26.1387 99.1525 26.288C98.8965 26.4373 98.5765 26.512 98.1925 26.512C97.8085 26.512 97.4885 26.4373 97.2325 26.288C96.9765 26.1387 96.7685 25.9413 96.6085 25.696C96.4592 25.44 96.3525 25.1573 96.2885 24.848C96.2245 24.528 96.1925 24.2027 96.1925 23.872ZM93.9205 23.872C93.9205 24.5333 94.0218 25.1307 94.2245 25.664C94.4272 26.1973 94.7152 26.656 95.0885 27.04C95.4618 27.4133 95.9098 27.7013 96.4325 27.904C96.9552 28.1067 97.5418 28.208 98.1925 28.208C98.8432 28.208 99.4298 28.1067 99.9525 27.904C100.486 27.7013 100.939 27.4133 101.312 27.04C101.686 26.656 101.974 26.1973 102.177 25.664C102.379 25.1307 102.481 24.5333 102.481 23.872C102.481 23.2107 102.379 22.6133 102.177 22.08C101.974 21.536 101.686 21.0773 101.312 20.704C100.939 20.32 100.486 20.0267 99.9525 19.824C99.4298 19.6107 98.8432 19.504 98.1925 19.504C97.5418 19.504 96.9552 19.6107 96.4325 19.824C95.9098 20.0267 95.4618 20.32 95.0885 20.704C94.7152 21.0773 94.4272 21.536 94.2245 22.08C94.0218 22.6133 93.9205 23.2107 93.9205 23.872ZM103.958 19.728V28H106.23V23.664C106.23 22.8213 106.368 22.2187 106.646 21.856C106.923 21.4827 107.371 21.296 107.99 21.296C108.534 21.296 108.912 21.4667 109.126 21.808C109.339 22.1387 109.446 22.6453 109.446 23.328V28H111.718V22.912C111.718 22.4 111.67 21.936 111.574 21.52C111.488 21.0933 111.334 20.736 111.11 20.448C110.886 20.1493 110.576 19.92 110.182 19.76C109.798 19.5893 109.302 19.504 108.694 19.504C108.214 19.504 107.744 19.616 107.286 19.84C106.827 20.0533 106.454 20.4 106.166 20.88H106.118V19.728H103.958Z" fill="white"/>
<path d="M128.785 107.066C99.5557 105.607 75.2782 128.472 73.8288 157.418H67.6688C64.77 157.418 63.079 160.58 64.5284 163.013L77.3315 184.054C78.7809 186.365 82.1628 186.365 83.6122 184.054L96.4153 163.013C97.8647 160.58 96.1737 157.418 93.2749 157.418H86.2695C87.5981 135.648 105.836 118.499 127.94 119.472C148.594 120.323 165.745 137.715 166.349 158.634C180 188 148.715 200.473 126.128 200.473C116.949 200.473 108.126 199.338 101 193.5C101 195.527 97.2608 193.527 96.4153 194.5L92.5502 197.432C91.584 198.405 91.7047 200.108 92.7918 200.959C102.213 208.743 113.929 213 126.249 213C155.962 213 179.998 188.067 178.79 157.783C177.582 130.783 155.599 108.404 128.785 107.066Z" fill="white" fill-opacity="0.20"/>
<path d="M128.906 129.931H123.471C122.384 129.931 121.539 130.783 121.539 131.877V136.742L120.935 136.864C114.05 138.445 109.46 144.891 110.064 152.067C110.789 159.242 117.19 164.837 124.558 164.837H128.182C129.51 164.837 130.718 165.445 131.564 166.418C132.409 167.391 132.892 168.729 132.771 169.945C132.53 172.256 130.356 174.081 127.819 174.081H122.988C121.659 174.081 120.452 173.108 120.089 171.77C119.848 170.918 119.123 170.31 118.157 170.31H112.601C111.997 170.31 111.514 170.553 111.151 170.918C110.789 171.283 110.668 171.891 110.668 172.378C111.272 177.851 115.379 182.351 120.814 183.324L121.297 183.445V188.189C121.297 189.283 122.142 190.135 123.23 190.135H128.665C129.752 190.135 130.597 189.283 130.597 188.189V183.081L131.08 182.959C136.999 181.5 141.347 176.513 141.951 170.675C142.313 166.661 140.985 162.77 138.327 159.729C135.67 156.81 131.926 155.107 127.94 155.107H123.713C122.384 155.107 121.176 154.499 120.331 153.526C119.485 152.553 119.002 151.215 119.123 149.877C119.364 147.567 121.539 145.742 124.075 145.742H128.906C130.235 145.742 131.443 146.715 131.805 148.053C132.047 148.904 132.771 149.634 133.738 149.634H139.294C139.898 149.634 140.381 149.391 140.743 149.026C141.106 148.661 141.347 148.053 141.226 147.567C140.622 142.094 136.516 137.594 131.08 136.621L130.597 136.499V131.756C130.839 130.783 129.993 129.931 128.906 129.931Z" fill="white" fill-opacity="0.20"/>
</g>
<defs>
<linearGradient id="paint0_linear" x1="-7.5976e-07" y1="25.5" x2="150.359" y2="197.51" gradientUnits="userSpaceOnUse">
<stop stop-color="#02BCE4"/>
<stop offset="1" stop-color="#447AC6"/>
</linearGradient>
<linearGradient id="paint1_linear" x1="-7.5976e-07" y1="25.5" x2="150.359" y2="197.51" gradientUnits="userSpaceOnUse">
<stop stop-color="#02BCE4"/>
<stop offset="1" stop-color="#447AC6"/>
</linearGradient>
</defs>
</svg>
