<svg width="166" height="96" viewBox="0 0 166 96" fill="none" xmlns="http://www.w3.org/2000/svg">
<mask id="mask0" mask-type="alpha" maskUnits="userSpaceOnUse" x="0" y="0" width="166" height="96">
<rect width="166" height="96" rx="16" fill="url(#paint0_linear)"/>
</mask>
<g mask="url(#mask0)">
<rect width="166" height="96" rx="16" fill="url(#paint1_linear)"/>
<path d="M18.816 24.208H16.384C16.3733 24.912 16.5013 25.52 16.768 26.032C17.0347 26.544 17.392 26.9653 17.84 27.296C18.2987 27.6267 18.8213 27.8667 19.408 28.016C20.0053 28.176 20.6187 28.256 21.248 28.256C22.0267 28.256 22.7093 28.1653 23.296 27.984C23.8933 27.8027 24.3893 27.552 24.784 27.232C25.1893 26.9013 25.4933 26.512 25.696 26.064C25.8987 25.616 26 25.1307 26 24.608C26 23.968 25.8613 23.4453 25.584 23.04C25.3173 22.624 24.9973 22.2933 24.624 22.048C24.2507 21.8027 23.872 21.6267 23.488 21.52C23.1147 21.4027 22.8213 21.3227 22.608 21.28C21.8933 21.0987 21.312 20.9493 20.864 20.832C20.4267 20.7147 20.08 20.5973 19.824 20.48C19.5787 20.3627 19.4133 20.2347 19.328 20.096C19.2427 19.9573 19.2 19.776 19.2 19.552C19.2 19.3067 19.2533 19.104 19.36 18.944C19.4667 18.784 19.6 18.6507 19.76 18.544C19.9307 18.4373 20.1173 18.3627 20.32 18.32C20.5227 18.2773 20.7253 18.256 20.928 18.256C21.2373 18.256 21.52 18.2827 21.776 18.336C22.0427 18.3893 22.2773 18.48 22.48 18.608C22.6827 18.736 22.8427 18.912 22.96 19.136C23.088 19.36 23.1627 19.6427 23.184 19.984H25.616C25.616 19.3227 25.488 18.7627 25.232 18.304C24.9867 17.8347 24.6507 17.4507 24.224 17.152C23.7973 16.8533 23.3067 16.64 22.752 16.512C22.208 16.3733 21.6373 16.304 21.04 16.304C20.528 16.304 20.016 16.3733 19.504 16.512C18.992 16.6507 18.5333 16.864 18.128 17.152C17.7227 17.44 17.392 17.8027 17.136 18.24C16.8907 18.6667 16.768 19.1733 16.768 19.76C16.768 20.2827 16.864 20.7307 17.056 21.104C17.2587 21.4667 17.52 21.7707 17.84 22.016C18.16 22.2613 18.5227 22.464 18.928 22.624C19.3333 22.7733 19.7493 22.9013 20.176 23.008C20.592 23.1253 21.0027 23.232 21.408 23.328C21.8133 23.424 22.176 23.536 22.496 23.664C22.816 23.792 23.072 23.952 23.264 24.144C23.4667 24.336 23.568 24.5867 23.568 24.896C23.568 25.184 23.4933 25.424 23.344 25.616C23.1947 25.7973 23.008 25.9413 22.784 26.048C22.56 26.1547 22.32 26.2293 22.064 26.272C21.808 26.304 21.568 26.32 21.344 26.32C21.0133 26.32 20.6933 26.2827 20.384 26.208C20.0747 26.1227 19.8027 26 19.568 25.84C19.344 25.6693 19.1627 25.4507 19.024 25.184C18.8853 24.9173 18.816 24.592 18.816 24.208ZM35.0146 28V19.728H32.7426V24.064C32.7426 24.9067 32.604 25.5147 32.3266 25.888C32.0493 26.2507 31.6013 26.432 30.9826 26.432C30.4386 26.432 30.06 26.2667 29.8466 25.936C29.6333 25.5947 29.5266 25.0827 29.5266 24.4V19.728H27.2546V24.816C27.2546 25.328 27.2973 25.7973 27.3826 26.224C27.4786 26.64 27.6386 26.9973 27.8626 27.296C28.0866 27.584 28.3906 27.808 28.7746 27.968C29.1693 28.128 29.6706 28.208 30.2786 28.208C30.7586 28.208 31.228 28.1013 31.6866 27.888C32.1453 27.6747 32.5186 27.328 32.8066 26.848H32.8546V28H35.0146ZM40.915 26.512C40.5523 26.512 40.243 26.4373 39.987 26.288C39.731 26.1387 39.523 25.9467 39.363 25.712C39.2137 25.4667 39.1017 25.184 39.027 24.864C38.963 24.544 38.931 24.2187 38.931 23.888C38.931 23.5467 38.963 23.216 39.027 22.896C39.091 22.576 39.1977 22.2933 39.347 22.048C39.507 21.8027 39.7097 21.6053 39.955 21.456C40.211 21.296 40.5257 21.216 40.899 21.216C41.2617 21.216 41.5657 21.296 41.811 21.456C42.067 21.6053 42.275 21.808 42.435 22.064C42.595 22.3093 42.707 22.592 42.771 22.912C42.8457 23.232 42.883 23.5573 42.883 23.888C42.883 24.2187 42.851 24.544 42.787 24.864C42.723 25.184 42.611 25.4667 42.451 25.712C42.3017 25.9467 42.099 26.1387 41.843 26.288C41.5977 26.4373 41.2883 26.512 40.915 26.512ZM36.739 19.728V30.896H39.011V26.976H39.043C39.3203 27.3813 39.6723 27.6907 40.099 27.904C40.5363 28.1067 41.011 28.208 41.523 28.208C42.131 28.208 42.659 28.0907 43.107 27.856C43.5657 27.6213 43.9443 27.3067 44.243 26.912C44.5523 26.5173 44.7817 26.064 44.931 25.552C45.0803 25.04 45.155 24.5067 45.155 23.952C45.155 23.3653 45.0803 22.8053 44.931 22.272C44.7817 21.728 44.5523 21.2533 44.243 20.848C43.9337 20.4427 43.5443 20.1173 43.075 19.872C42.6057 19.6267 42.0457 19.504 41.395 19.504C40.883 19.504 40.4137 19.6053 39.987 19.808C39.5603 20.0107 39.2083 20.336 38.931 20.784H38.899V19.728H36.739ZM50.6963 26.512C50.3336 26.512 50.0243 26.4373 49.7682 26.288C49.5123 26.1387 49.3043 25.9467 49.1443 25.712C48.9949 25.4667 48.8829 25.184 48.8083 24.864C48.7443 24.544 48.7123 24.2187 48.7123 23.888C48.7123 23.5467 48.7443 23.216 48.8083 22.896C48.8723 22.576 48.9789 22.2933 49.1283 22.048C49.2883 21.8027 49.4909 21.6053 49.7363 21.456C49.9923 21.296 50.3069 21.216 50.6803 21.216C51.0429 21.216 51.3469 21.296 51.5923 21.456C51.8483 21.6053 52.0563 21.808 52.2163 22.064C52.3763 22.3093 52.4883 22.592 52.5523 22.912C52.6269 23.232 52.6643 23.5573 52.6643 23.888C52.6643 24.2187 52.6323 24.544 52.5683 24.864C52.5043 25.184 52.3923 25.4667 52.2323 25.712C52.0829 25.9467 51.8803 26.1387 51.6243 26.288C51.3789 26.4373 51.0696 26.512 50.6963 26.512ZM46.5203 19.728V30.896H48.7923V26.976H48.8243C49.1016 27.3813 49.4536 27.6907 49.8802 27.904C50.3176 28.1067 50.7923 28.208 51.3043 28.208C51.9123 28.208 52.4403 28.0907 52.8883 27.856C53.3469 27.6213 53.7256 27.3067 54.0243 26.912C54.3336 26.5173 54.5629 26.064 54.7123 25.552C54.8616 25.04 54.9363 24.5067 54.9363 23.952C54.9363 23.3653 54.8616 22.8053 54.7123 22.272C54.5629 21.728 54.3336 21.2533 54.0243 20.848C53.7149 20.4427 53.3256 20.1173 52.8563 19.872C52.3869 19.6267 51.8269 19.504 51.1763 19.504C50.6643 19.504 50.1949 19.6053 49.7682 19.808C49.3416 20.0107 48.9896 20.336 48.7123 20.784H48.6803V19.728H46.5203ZM58.3175 23.872C58.3175 23.5413 58.3495 23.216 58.4135 22.896C58.4775 22.576 58.5842 22.2933 58.7335 22.048C58.8935 21.8027 59.1015 21.6053 59.3575 21.456C59.6135 21.296 59.9335 21.216 60.3175 21.216C60.7015 21.216 61.0215 21.296 61.2775 21.456C61.5442 21.6053 61.7522 21.8027 61.9015 22.048C62.0615 22.2933 62.1735 22.576 62.2375 22.896C62.3015 23.216 62.3335 23.5413 62.3335 23.872C62.3335 24.2027 62.3015 24.528 62.2375 24.848C62.1735 25.1573 62.0615 25.44 61.9015 25.696C61.7522 25.9413 61.5442 26.1387 61.2775 26.288C61.0215 26.4373 60.7015 26.512 60.3175 26.512C59.9335 26.512 59.6135 26.4373 59.3575 26.288C59.1015 26.1387 58.8935 25.9413 58.7335 25.696C58.5842 25.44 58.4775 25.1573 58.4135 24.848C58.3495 24.528 58.3175 24.2027 58.3175 23.872ZM56.0455 23.872C56.0455 24.5333 56.1468 25.1307 56.3495 25.664C56.5522 26.1973 56.8402 26.656 57.2135 27.04C57.5868 27.4133 58.0348 27.7013 58.5575 27.904C59.0802 28.1067 59.6668 28.208 60.3175 28.208C60.9682 28.208 61.5548 28.1067 62.0775 27.904C62.6108 27.7013 63.0642 27.4133 63.4375 27.04C63.8108 26.656 64.0988 26.1973 64.3015 25.664C64.5042 25.1307 64.6055 24.5333 64.6055 23.872C64.6055 23.2107 64.5042 22.6133 64.3015 22.08C64.0988 21.536 63.8108 21.0773 63.4375 20.704C63.0642 20.32 62.6108 20.0267 62.0775 19.824C61.5548 19.6107 60.9682 19.504 60.3175 19.504C59.6668 19.504 59.0802 19.6107 58.5575 19.824C58.0348 20.0267 57.5868 20.32 57.2135 20.704C56.8402 21.0773 56.5522 21.536 56.3495 22.08C56.1468 22.6133 56.0455 23.2107 56.0455 23.872ZM66.0828 19.728V28H68.3548V24.272C68.3548 23.8987 68.3921 23.552 68.4668 23.232C68.5414 22.912 68.6641 22.6347 68.8348 22.4C69.0161 22.1547 69.2508 21.9627 69.5388 21.824C69.8268 21.6853 70.1788 21.616 70.5948 21.616C70.7334 21.616 70.8774 21.6267 71.0268 21.648C71.1761 21.6587 71.3041 21.6747 71.4108 21.696V19.584C71.2294 19.5307 71.0641 19.504 70.9148 19.504C70.6268 19.504 70.3494 19.5467 70.0828 19.632C69.8161 19.7173 69.5654 19.84 69.3307 20C69.0961 20.1493 68.8881 20.336 68.7068 20.56C68.5254 20.7733 68.3814 21.008 68.2748 21.264H68.2428V19.728H66.0828ZM75.1815 19.728V17.248H72.9095V19.728H71.5335V21.248H72.9095V26.128C72.9095 26.544 72.9788 26.88 73.1175 27.136C73.2562 27.392 73.4428 27.5893 73.6775 27.728C73.9228 27.8667 74.2002 27.9573 74.5095 28C74.8295 28.0533 75.1655 28.08 75.5175 28.08C75.7415 28.08 75.9708 28.0747 76.2055 28.064C76.4402 28.0533 76.6535 28.032 76.8455 28V26.24C76.7388 26.2613 76.6268 26.2773 76.5095 26.288C76.3922 26.2987 76.2695 26.304 76.1415 26.304C75.7575 26.304 75.5015 26.24 75.3735 26.112C75.2455 25.984 75.1815 25.728 75.1815 25.344V21.248H76.8455V19.728H75.1815Z" fill="white"/>
<path d="M126.819 123.633C125.676 123.973 124.479 124.078 123.297 123.943C122.114 123.808 120.969 123.436 119.929 122.847C118.889 122.259 117.974 121.466 117.236 120.515C116.499 119.565 115.954 118.474 115.634 117.307L113.285 108.73H100.51C98.8776 108.73 97.2615 108.402 95.7538 107.766C94.246 107.131 92.876 106.199 91.722 105.024C90.568 103.849 89.6526 102.454 89.0281 100.919C88.4035 99.3844 88.0821 97.7392 88.0821 96.0777V83.2362L84.7888 82.1228C83.669 81.7444 82.6395 81.1316 81.7664 80.3237C80.8934 79.5157 80.1962 78.5306 79.7197 77.4318C79.2433 76.333 78.9981 75.1448 79 73.9436C79.0019 72.7425 79.2509 71.5551 79.7308 70.4578L86.715 54.4912C87.6178 52.4376 88.0837 50.2128 88.0821 47.9629C88.0909 37.9512 91.1696 28.1921 96.8885 20.0474C102.607 11.9027 110.681 5.7788 119.983 2.53027C120.447 5.76914 120.862 9.07548 121.226 12.4493C114.293 15.3077 108.354 20.204 104.166 26.5134C99.9784 32.8229 97.7319 40.2595 97.7134 47.8744C97.7191 51.4884 96.9737 55.0628 95.5261 58.3627L88.9893 73.2792L92.9785 74.6456C94.3464 75.1041 95.5371 75.9907 96.3807 77.179C97.2243 78.3672 97.6776 79.7964 97.6761 81.2625V96.1536C97.6761 96.5325 97.7494 96.9076 97.8918 97.2575C98.0342 97.6075 98.2429 97.9255 98.506 98.1934C98.7691 98.4612 99.0815 98.6737 99.4252 98.8187C99.769 98.9636 100.137 99.0383 100.51 99.0383H120.481L124.718 114.22L167.506 101.784V77.4318L168.5 73.9436C172.351 69.8756 169.091 65.5132 170.862 60.1591C172.633 54.805 173.215 49.1175 172.566 43.5068C171.917 37.896 171.444 32.2886 168.5 27.4999C165.556 22.7112 171.782 17.0459 167.108 13.9999C166.81 10.0526 167.556 10.8123 167.108 6.99992C173.792 10.0324 167.002 11.7847 171.645 17.5431C176.288 23.3015 179.548 30.0826 181.167 37.3479C182.786 44.6133 182.719 52.1628 180.971 59.3971C179.223 66.6314 175.842 73.3513 171.098 79.0231L176.852 99.5696C177.183 100.733 177.285 101.951 177.152 103.154C177.019 104.358 176.653 105.522 176.075 106.581C175.497 107.639 174.719 108.571 173.786 109.322C172.853 110.073 171.783 110.628 170.638 110.956L126.819 123.633Z" fill="white" fill-opacity="0.15"/>
<path d="M119.275 76.3663C117.976 75.5696 116.457 75.2253 114.948 75.3857C113.439 75.546 112.022 76.2022 110.912 77.255C109.802 78.3078 109.059 79.6999 108.795 81.2209C108.531 82.7419 108.761 84.3089 109.449 85.6851C110.138 87.0614 111.248 88.1719 112.612 88.8487C113.976 89.5256 115.519 89.732 117.008 89.4368C118.497 89.1415 119.851 88.3607 120.866 87.2123C121.88 86.0639 122.5 84.6105 122.631 83.0717C128.31 79.5406 132.924 74.4846 135.966 68.4589C139.528 69.1277 143.207 68.5309 146.389 66.7684C149.57 65.0059 152.06 62.1846 153.443 58.7764C154.826 55.3683 155.017 51.5801 153.985 48.0457C152.952 44.5112 150.759 41.4449 147.772 39.3597C147.76 26.5695 146.144 11.1803 144.5 -1.50003C142.286 -1.99561 140.762 -0.3386 138.5 -0.500027C137.39 -0.584372 136.118 -1.00003 135 -1.00003C132.746 -1.00087 130.731 -1.32099 128.5 -1.00003C130.302 11.6034 131.212 25.8013 131.256 38.5374C128.958 39.8207 127.011 41.6657 125.588 43.9061C124.166 46.1466 123.313 48.7121 123.108 51.3715C122.902 54.0309 123.349 56.7007 124.409 59.1403C125.469 61.5799 127.109 63.7127 129.18 65.3466C126.9 69.8512 123.481 73.6551 119.275 76.3663Z" fill="white" fill-opacity="0.15"/>
</g>
<defs>
<linearGradient id="paint0_linear" x1="3.77223e-07" y1="13" x2="163.819" y2="91.0763" gradientUnits="userSpaceOnUse">
<stop stop-color="#AA076B"/>
<stop offset="1" stop-color="#61045F"/>
</linearGradient>
<linearGradient id="paint1_linear" x1="3.77223e-07" y1="13" x2="163.819" y2="91.0763" gradientUnits="userSpaceOnUse">
<stop stop-color="#AA076B"/>
<stop offset="1" stop-color="#61045F"/>
</linearGradient>
</defs>
</svg>
