<svg width="36" height="37" viewBox="0 0 36 37" fill="none" xmlns="http://www.w3.org/2000/svg">
<path d="M19.9999 0.888916H16.4443C7.60778 0.888916 0.444336 8.05237 0.444336 16.8889V20.4445C0.444336 29.281 7.60779 36.4445 16.4443 36.4445H19.9999C28.8364 36.4445 35.9999 29.281 35.9999 20.4445V16.8889C35.9999 8.05236 28.8364 0.888916 19.9999 0.888916Z" fill="#50ABF1"/>
<path d="M5.1548 27.2453C7.52111 28.7461 10.3281 29.6146 13.337 29.6146C21.7903 29.6146 28.6427 22.7613 28.6427 14.3088C28.6427 14.0978 28.6383 13.8883 28.6302 13.6795C28.9359 13.4389 30.8269 11.9232 31.2905 10.9488C31.2905 10.9488 29.7548 11.587 28.2519 11.7373C28.2489 11.7373 28.2452 11.738 28.2423 11.738C28.2423 11.738 28.2452 11.7366 28.2504 11.7329C28.3889 11.6404 30.325 10.3224 30.5871 8.75204C30.5871 8.75204 29.5009 9.33179 27.9801 9.83899C27.7284 9.92263 27.4648 10.0049 27.1931 10.0811C26.2128 9.03485 24.8193 8.38184 23.2726 8.38184C20.3058 8.38184 17.9017 10.7852 17.9017 13.7498C17.9017 14.1681 17.9499 14.5753 18.0409 14.9662C17.6263 14.9492 11.3128 14.5952 7.01773 9.3939C7.01773 9.3939 4.45076 12.8983 8.54745 16.5018C8.54745 16.5018 7.30211 16.4522 6.22772 15.8102C6.22772 15.8102 5.8331 20.0557 10.4725 21.1412C10.4725 21.1412 9.55958 21.487 8.10321 21.2404C8.10321 21.2404 8.91765 24.6707 13.0395 24.9913C13.0395 24.9913 9.78014 27.9358 5.15332 27.2449L5.1548 27.2453Z" fill="white"/>
</svg>
